solid OpenSCAD_Model
  facet normal 0 -1 0
    outer loop
      vertex -2.09057 -19.8904 -20
      vertex 2.09057 -19.8904 -12
      vertex -2.09057 -19.8904 -12
    endloop
  endfacet
  facet normal 0 -1 -0
    outer loop
      vertex 2.09057 -19.8904 -12
      vertex -2.09057 -19.8904 -20
      vertex 2.09057 -19.8904 -20
    endloop
  endfacet
  facet normal 0 0 -1
    outer loop
      vertex 16.1803 -11.7557 -20
      vertex 19.2894 -5 -20
      vertex 18.2709 -8.13473 -20
    endloop
  endfacet
  facet normal 0 0 -1
    outer loop
      vertex 13.3826 -14.8629 -20
      vertex 19.2894 -5 -20
      vertex 16.1803 -11.7557 -20
    endloop
  endfacet
  facet normal 0 0 -1
    outer loop
      vertex 10 -17.3205 -20
      vertex 19.2894 -5 -20
      vertex 13.3826 -14.8629 -20
    endloop
  endfacet
  facet normal 0 0 -1
    outer loop
      vertex 6.18034 -19.0211 -20
      vertex 19.2894 -5 -20
      vertex 10 -17.3205 -20
    endloop
  endfacet
  facet normal 0 0 -1
    outer loop
      vertex 2.09057 -19.8904 -20
      vertex 19.2894 -5 -20
      vertex 6.18034 -19.0211 -20
    endloop
  endfacet
  facet normal 0 0 -1
    outer loop
      vertex -2.09057 -19.8904 -20
      vertex 19.2894 -5 -20
      vertex 2.09057 -19.8904 -20
    endloop
  endfacet
  facet normal 0 0 -1
    outer loop
      vertex -6.18034 -19.0211 -20
      vertex 19.2894 -5 -20
      vertex -2.09057 -19.8904 -20
    endloop
  endfacet
  facet normal 0 0 -1
    outer loop
      vertex -10 -17.3205 -20
      vertex 19.2894 -5 -20
      vertex -6.18034 -19.0211 -20
    endloop
  endfacet
  facet normal 0 0 -1
    outer loop
      vertex -13.3826 -14.8629 -20
      vertex 19.2894 -5 -20
      vertex -10 -17.3205 -20
    endloop
  endfacet
  facet normal 0 0 -1
    outer loop
      vertex -16.1803 -11.7557 -20
      vertex 19.2894 -5 -20
      vertex -13.3826 -14.8629 -20
    endloop
  endfacet
  facet normal 0 0 -1
    outer loop
      vertex -19.2894 -5 -20
      vertex -16.1803 -11.7557 -20
      vertex -18.2709 -8.13473 -20
    endloop
  endfacet
  facet normal 0 0 -1
    outer loop
      vertex -16.1803 -11.7557 -20
      vertex -19.2894 -5 -20
      vertex 19.2894 -5 -20
    endloop
  endfacet
  facet normal -1.22465e-16 -1.61213e-23 1
    outer loop
      vertex 17.7209 -5 2.17018e-15
      vertex 18.2709 -8.13473 2.23754e-15
      vertex 19.2894 -5 2.36228e-15
    endloop
  endfacet
  facet normal -1.22465e-16 -6.93507e-24 1
    outer loop
      vertex 16.9006 -7.52463 2.06973e-15
      vertex 18.2709 -8.13473 2.23754e-15
      vertex 17.7209 -5 2.17018e-15
    endloop
  endfacet
  facet normal -1.22465e-16 -1.33669e-23 1
    outer loop
      vertex 16.9006 -7.52463 2.06973e-15
      vertex 16.1803 -11.7557 1.98152e-15
      vertex 18.2709 -8.13473 2.23754e-15
    endloop
  endfacet
  facet normal -1.22465e-16 -6.79859e-24 1
    outer loop
      vertex 14.9668 -10.874 1.83291e-15
      vertex 16.1803 -11.7557 1.98152e-15
      vertex 16.9006 -7.52463 2.06973e-15
    endloop
  endfacet
  facet normal -1.22465e-16 2.99088e-24 1
    outer loop
      vertex 14.9668 -10.874 1.83291e-15
      vertex 13.3826 -14.8629 1.6389e-15
      vertex 16.1803 -11.7557 1.98152e-15
    endloop
  endfacet
  facet normal -1.22465e-16 -1.46104e-23 1
    outer loop
      vertex 12.3789 -13.7482 1.51598e-15
      vertex 13.3826 -14.8629 1.6389e-15
      vertex 14.9668 -10.874 1.83291e-15
    endloop
  endfacet
  facet normal -1.22464e-16 1.62986e-22 1
    outer loop
      vertex 13.3826 -14.8629 1.6389e-15
      vertex 12.3789 -13.7482 1.51598e-15
      vertex 13.1939 -15 1.61579e-15
    endloop
  endfacet
  facet normal -1.22465e-16 1.1014e-23 1
    outer loop
      vertex 13.1939 -15 1.61579e-15
      vertex 12.3789 -13.7482 1.51598e-15
      vertex 10.6559 -15 1.30498e-15
    endloop
  endfacet
  facet normal -1.22465e-16 -1.1014e-23 1
    outer loop
      vertex -12.3789 -13.7482 -1.51598e-15
      vertex -13.1939 -15 -1.61579e-15
      vertex -10.6559 -15 -1.30498e-15
    endloop
  endfacet
  facet normal -1.22464e-16 -1.62986e-22 1
    outer loop
      vertex -12.3789 -13.7482 -1.51598e-15
      vertex -13.3826 -14.8629 -1.6389e-15
      vertex -13.1939 -15 -1.61579e-15
    endloop
  endfacet
  facet normal -1.22465e-16 1.46104e-23 1
    outer loop
      vertex -14.9668 -10.874 -1.83291e-15
      vertex -13.3826 -14.8629 -1.6389e-15
      vertex -12.3789 -13.7482 -1.51598e-15
    endloop
  endfacet
  facet normal -1.22465e-16 -2.99088e-24 1
    outer loop
      vertex -14.9668 -10.874 -1.83291e-15
      vertex -16.1803 -11.7557 -1.98152e-15
      vertex -13.3826 -14.8629 -1.6389e-15
    endloop
  endfacet
  facet normal -1.22465e-16 6.79859e-24 1
    outer loop
      vertex -16.9006 -7.52463 -2.06973e-15
      vertex -16.1803 -11.7557 -1.98152e-15
      vertex -14.9668 -10.874 -1.83291e-15
    endloop
  endfacet
  facet normal -1.22465e-16 6.93507e-24 1
    outer loop
      vertex -18.2709 -8.13473 -2.23754e-15
      vertex -16.9006 -7.52463 -2.06973e-15
      vertex -17.7209 -5 -2.17018e-15
    endloop
  endfacet
  facet normal -1.22465e-16 1.33669e-23 1
    outer loop
      vertex -16.9006 -7.52463 -2.06973e-15
      vertex -18.2709 -8.13473 -2.23754e-15
      vertex -16.1803 -11.7557 -1.98152e-15
    endloop
  endfacet
  facet normal -1.22465e-16 1.61213e-23 1
    outer loop
      vertex -18.2709 -8.13473 -2.23754e-15
      vertex -17.7209 -5 -2.17018e-15
      vertex -19.2894 -5 -2.36228e-15
    endloop
  endfacet
  facet normal -0.207912 -0.978148 0
    outer loop
      vertex -6.18034 -19.0211 -20
      vertex -2.09057 -19.8904 -12
      vertex -6.18034 -19.0211 -12
    endloop
  endfacet
  facet normal -0.207912 -0.978148 -0
    outer loop
      vertex -2.09057 -19.8904 -12
      vertex -6.18034 -19.0211 -20
      vertex -2.09057 -19.8904 -20
    endloop
  endfacet
  facet normal -0.743145 -0.669131 0
    outer loop
      vertex -13.3826 -14.8629 -20
      vertex -16.1803 -11.7557 -1.98152e-15
      vertex -16.1803 -11.7557 -20
    endloop
  endfacet
  facet normal -0.743145 -0.669131 0
    outer loop
      vertex -16.1803 -11.7557 -1.98152e-15
      vertex -13.3826 -14.8629 -20
      vertex -13.3826 -14.8629 -1.6389e-15
    endloop
  endfacet
  facet normal -0.951057 -0.309017 -0
    outer loop
      vertex -18.5 -7.42966 -11
      vertex -19.2894 -5 -20
      vertex -18.5 -7.42966 -19
    endloop
  endfacet
  facet normal -0.951057 -0.309017 -1.76942e-07
    outer loop
      vertex -18.2709 -8.13473 -20
      vertex -18.5 -7.42966 -19
      vertex -19.2894 -5 -20
    endloop
  endfacet
  facet normal -0.951056 -0.309017 0
    outer loop
      vertex -18.5 -7.42966 -19
      vertex -18.2709 -8.13473 -20
      vertex -18.2709 -8.13473 -19
    endloop
  endfacet
  facet normal -0.951057 -0.309017 0
    outer loop
      vertex -19.2894 -5 -20
      vertex -18.5 -7.42966 -11
      vertex -19.2894 -5 -2.36228e-15
    endloop
  endfacet
  facet normal -0.951056 -0.309017 -0
    outer loop
      vertex -18.2709 -8.13473 -2.23754e-15
      vertex -18.5 -7.42966 -11
      vertex -18.2709 -8.13473 -11
    endloop
  endfacet
  facet normal -0.951057 -0.309017 1.60857e-08
    outer loop
      vertex -18.5 -7.42966 -11
      vertex -18.2709 -8.13473 -2.23754e-15
      vertex -19.2894 -5 -2.36228e-15
    endloop
  endfacet
  facet normal -0.866026 -0.5 0
    outer loop
      vertex -18.2709 -8.13473 -20
      vertex -17.194 -10 -19
      vertex -18.2709 -8.13473 -19
    endloop
  endfacet
  facet normal -0.866025 -0.5 0
    outer loop
      vertex -16.1803 -11.7557 -20
      vertex -17.194 -10 -15.4212
      vertex -17.194 -10 -19
    endloop
  endfacet
  facet normal -0.866025 -0.5 0
    outer loop
      vertex -17.194 -10 -15.4212
      vertex -16.1803 -11.7557 -20
      vertex -17.194 -10 -14.5788
    endloop
  endfacet
  facet normal -0.866025 -0.5 0
    outer loop
      vertex -17.194 -10 -14.5788
      vertex -16.1803 -11.7557 -20
      vertex -17.194 -10 -11
    endloop
  endfacet
  facet normal -0.866026 -0.5 -3.52875e-07
    outer loop
      vertex -16.1803 -11.7557 -20
      vertex -17.194 -10 -19
      vertex -18.2709 -8.13473 -20
    endloop
  endfacet
  facet normal -0.866026 -0.499999 0
    outer loop
      vertex -17.5 -9.46999 -15
      vertex -17.194 -10 -15.4212
      vertex -17.194 -10 -14.5788
    endloop
  endfacet
  facet normal -0.866026 -0.5 0
    outer loop
      vertex -17.194 -10 -11
      vertex -18.2709 -8.13473 -2.23754e-15
      vertex -18.2709 -8.13473 -11
    endloop
  endfacet
  facet normal -0.866025 -0.5 -0
    outer loop
      vertex -16.1803 -11.7557 -1.98152e-15
      vertex -17.194 -10 -11
      vertex -16.1803 -11.7557 -20
    endloop
  endfacet
  facet normal -0.866026 -0.5 3.20795e-08
    outer loop
      vertex -17.194 -10 -11
      vertex -16.1803 -11.7557 -1.98152e-15
      vertex -18.2709 -8.13473 -2.23754e-15
    endloop
  endfacet
  facet normal 0.866026 -0.5 0
    outer loop
      vertex 18.2709 -8.13473 2.23754e-15
      vertex 17.194 -10 -11
      vertex 18.2709 -8.13473 -11
    endloop
  endfacet
  facet normal 0.866025 -0.5 0
    outer loop
      vertex 16.1803 -11.7557 -20
      vertex 17.194 -10 -14.112
      vertex 17.194 -10 -11
    endloop
  endfacet
  facet normal 0.866025 -0.5 0
    outer loop
      vertex 17.194 -10 -14.112
      vertex 16.1803 -11.7557 -20
      vertex 17.194 -10 -15.888
    endloop
  endfacet
  facet normal 0.866025 -0.5 0
    outer loop
      vertex 16.1803 -11.7557 -20
      vertex 17.194 -10 -11
      vertex 16.1803 -11.7557 1.98152e-15
    endloop
  endfacet
  facet normal 0.866026 -0.5 3.20795e-08
    outer loop
      vertex 16.1803 -11.7557 1.98152e-15
      vertex 17.194 -10 -11
      vertex 18.2709 -8.13473 2.23754e-15
    endloop
  endfacet
  facet normal 0.866041 -0.499973 0
    outer loop
      vertex 17.194 -10 -14.112
      vertex 17.2135 -9.96618 -15.8817
      vertex 17.2135 -9.96618 -14.1183
    endloop
  endfacet
  facet normal 0.866041 -0.499973 0
    outer loop
      vertex 17.2135 -9.96618 -15.8817
      vertex 17.194 -10 -14.112
      vertex 17.194 -10 -15.888
    endloop
  endfacet
  facet normal 0.866026 -0.5 0
    outer loop
      vertex 17.194 -10 -19
      vertex 18.2709 -8.13473 -20
      vertex 18.2709 -8.13473 -19
    endloop
  endfacet
  facet normal 0.866026 -0.5 -3.52875e-07
    outer loop
      vertex 17.194 -10 -19
      vertex 16.1803 -11.7557 -20
      vertex 18.2709 -8.13473 -20
    endloop
  endfacet
  facet normal 0.866025 -0.5 0
    outer loop
      vertex 17.194 -10 -15.888
      vertex 16.1803 -11.7557 -20
      vertex 17.194 -10 -19
    endloop
  endfacet
  facet normal -0.587786 -0.809017 0
    outer loop
      vertex -13.3826 -14.8629 -1.6389e-15
      vertex -13.1939 -15 -12
      vertex -13.1939 -15 -1.61579e-15
    endloop
  endfacet
  facet normal -0.587786 -0.809017 0
    outer loop
      vertex -13.3826 -14.8629 -20
      vertex -13.1939 -15 -12
      vertex -13.3826 -14.8629 -1.6389e-15
    endloop
  endfacet
  facet normal -0.587785 -0.809017 -1.11669e-08
    outer loop
      vertex -10 -17.3205 -20
      vertex -13.1939 -15 -12
      vertex -13.3826 -14.8629 -20
    endloop
  endfacet
  facet normal -0.587785 -0.809017 0
    outer loop
      vertex -13.1939 -15 -12
      vertex -10 -17.3205 -20
      vertex -10 -17.3205 -12
    endloop
  endfacet
  facet normal -0.406737 -0.913545 0
    outer loop
      vertex -10 -17.3205 -20
      vertex -6.18034 -19.0211 -12
      vertex -10 -17.3205 -12
    endloop
  endfacet
  facet normal -0.406737 -0.913545 -0
    outer loop
      vertex -6.18034 -19.0211 -12
      vertex -10 -17.3205 -20
      vertex -6.18034 -19.0211 -20
    endloop
  endfacet
  facet normal 0.406737 -0.913545 0
    outer loop
      vertex 6.18034 -19.0211 -20
      vertex 10 -17.3205 -12
      vertex 6.18034 -19.0211 -12
    endloop
  endfacet
  facet normal 0.406737 -0.913545 0
    outer loop
      vertex 10 -17.3205 -12
      vertex 6.18034 -19.0211 -20
      vertex 10 -17.3205 -20
    endloop
  endfacet
  facet normal 0.743145 -0.669131 0
    outer loop
      vertex 13.3826 -14.8629 1.6389e-15
      vertex 16.1803 -11.7557 -20
      vertex 16.1803 -11.7557 1.98152e-15
    endloop
  endfacet
  facet normal 0.743145 -0.669131 0
    outer loop
      vertex 16.1803 -11.7557 -20
      vertex 13.3826 -14.8629 1.6389e-15
      vertex 13.3826 -14.8629 -20
    endloop
  endfacet
  facet normal 0.951057 -0.309017 0
    outer loop
      vertex 19.2894 -5 2.36228e-15
      vertex 18.5 -7.42966 -11
      vertex 19.2894 -5 -20
    endloop
  endfacet
  facet normal 0.951057 -0.309017 1.60857e-08
    outer loop
      vertex 18.2709 -8.13473 2.23754e-15
      vertex 18.5 -7.42966 -11
      vertex 19.2894 -5 2.36228e-15
    endloop
  endfacet
  facet normal 0.951056 -0.309017 0
    outer loop
      vertex 18.5 -7.42966 -11
      vertex 18.2709 -8.13473 2.23754e-15
      vertex 18.2709 -8.13473 -11
    endloop
  endfacet
  facet normal 0.951057 -0.309017 0
    outer loop
      vertex 18.5 -7.42966 -19
      vertex 19.2894 -5 -20
      vertex 18.5 -7.42966 -11
    endloop
  endfacet
  facet normal 0.951056 -0.309017 0
    outer loop
      vertex 18.2709 -8.13473 -20
      vertex 18.5 -7.42966 -19
      vertex 18.2709 -8.13473 -19
    endloop
  endfacet
  facet normal 0.951057 -0.309017 -1.76942e-07
    outer loop
      vertex 18.5 -7.42966 -19
      vertex 18.2709 -8.13473 -20
      vertex 19.2894 -5 -20
    endloop
  endfacet
  facet normal 0.587785 -0.809017 0
    outer loop
      vertex 10 -17.3205 -12
      vertex 10 -17.3205 -20
      vertex 13.1939 -15 -12
    endloop
  endfacet
  facet normal 0.587786 -0.809017 0
    outer loop
      vertex 13.1939 -15 -12
      vertex 13.3826 -14.8629 1.6389e-15
      vertex 13.1939 -15 1.61579e-15
    endloop
  endfacet
  facet normal 0.587786 -0.809017 0
    outer loop
      vertex 13.1939 -15 -12
      vertex 13.3826 -14.8629 -20
      vertex 13.3826 -14.8629 1.6389e-15
    endloop
  endfacet
  facet normal 0.587785 -0.809017 -1.11669e-08
    outer loop
      vertex 13.3826 -14.8629 -20
      vertex 13.1939 -15 -12
      vertex 10 -17.3205 -20
    endloop
  endfacet
  facet normal 0.207912 -0.978148 0
    outer loop
      vertex 2.09057 -19.8904 -20
      vertex 6.18034 -19.0211 -12
      vertex 2.09057 -19.8904 -12
    endloop
  endfacet
  facet normal 0.207912 -0.978148 0
    outer loop
      vertex 6.18034 -19.0211 -12
      vertex 2.09057 -19.8904 -20
      vertex 6.18034 -19.0211 -20
    endloop
  endfacet
  facet normal 0 1 -0
    outer loop
      vertex 1.93378 -18.3987 -19
      vertex -1.93378 -18.3987 -12
      vertex 1.93378 -18.3987 -12
    endloop
  endfacet
  facet normal 0 1 0
    outer loop
      vertex -1.93378 -18.3987 -12
      vertex 1.93378 -18.3987 -19
      vertex -1.93378 -18.3987 -19
    endloop
  endfacet
  facet normal 0 0 1
    outer loop
      vertex 9.25 -16.0215 -19
      vertex 13.5 -10 -19
      vertex 13.5 -5 -19
    endloop
  endfacet
  facet normal 0 0 1
    outer loop
      vertex 13.5 -10 -19
      vertex 9.25 -16.0215 -19
      vertex 12.3789 -13.7482 -19
    endloop
  endfacet
  facet normal 0 0 1
    outer loop
      vertex 13.5 -5 -19
      vertex 5.71681 -17.5945 -19
      vertex 9.25 -16.0215 -19
    endloop
  endfacet
  facet normal 0 0 1
    outer loop
      vertex 13.5 -5 -19
      vertex 1.93378 -18.3987 -19
      vertex 5.71681 -17.5945 -19
    endloop
  endfacet
  facet normal 0 0 1
    outer loop
      vertex 13.5 -5 -19
      vertex -1.93378 -18.3987 -19
      vertex 1.93378 -18.3987 -19
    endloop
  endfacet
  facet normal -0 0 1
    outer loop
      vertex -13.5 -5 -19
      vertex -1.93378 -18.3987 -19
      vertex 13.5 -5 -19
    endloop
  endfacet
  facet normal 0 0 1
    outer loop
      vertex -1.93378 -18.3987 -19
      vertex -13.5 -5 -19
      vertex -5.71681 -17.5945 -19
    endloop
  endfacet
  facet normal 0 0 1
    outer loop
      vertex -5.71681 -17.5945 -19
      vertex -13.5 -5 -19
      vertex -9.25 -16.0215 -19
    endloop
  endfacet
  facet normal 0 0 1
    outer loop
      vertex -9.25 -16.0215 -19
      vertex -13.5 -5 -19
      vertex -13.5 -10 -19
    endloop
  endfacet
  facet normal 0 0 1
    outer loop
      vertex -9.25 -16.0215 -19
      vertex -13.5 -10 -19
      vertex -12.3789 -13.7482 -19
    endloop
  endfacet
  facet normal 0 0 1
    outer loop
      vertex -13.5 -10 -19
      vertex -14.9668 -10.874 -19
      vertex -12.3789 -13.7482 -19
    endloop
  endfacet
  facet normal 0 -0 1
    outer loop
      vertex -14.9668 -10.874 -19
      vertex -13.5 -10 -19
      vertex -15.4714 -10 -19
    endloop
  endfacet
  facet normal -0 0 1
    outer loop
      vertex 13.5 -10 -19
      vertex 14.9668 -10.874 -19
      vertex 15.4714 -10 -19
    endloop
  endfacet
  facet normal 0 0 1
    outer loop
      vertex 14.9668 -10.874 -19
      vertex 13.5 -10 -19
      vertex 12.3789 -13.7482 -19
    endloop
  endfacet
  facet normal 0 0 -1
    outer loop
      vertex -18.5 -10 -19
      vertex -18.2709 -8.13473 -19
      vertex -17.194 -10 -19
    endloop
  endfacet
  facet normal -0 0 -1
    outer loop
      vertex -18.2709 -8.13473 -19
      vertex -18.5 -10 -19
      vertex -18.5 -7.42966 -19
    endloop
  endfacet
  facet normal 0 0 -1
    outer loop
      vertex 18.5 -10 -19
      vertex 18.2709 -8.13473 -19
      vertex 18.5 -7.42966 -19
    endloop
  endfacet
  facet normal 0 -0 -1
    outer loop
      vertex 18.2709 -8.13473 -19
      vertex 18.5 -10 -19
      vertex 17.194 -10 -19
    endloop
  endfacet
  facet normal 0.207912 0.978148 -0
    outer loop
      vertex -1.93378 -18.3987 -19
      vertex -5.71681 -17.5945 -12
      vertex -1.93378 -18.3987 -12
    endloop
  endfacet
  facet normal 0.207912 0.978148 0
    outer loop
      vertex -5.71681 -17.5945 -12
      vertex -1.93378 -18.3987 -19
      vertex -5.71681 -17.5945 -19
    endloop
  endfacet
  facet normal 0.743145 0.669131 0
    outer loop
      vertex -12.3789 -13.7482 -1.51598e-15
      vertex -14.9668 -10.874 -19
      vertex -14.9668 -10.874 -1.83291e-15
    endloop
  endfacet
  facet normal 0.743145 0.669131 0
    outer loop
      vertex -14.9668 -10.874 -19
      vertex -12.3789 -13.7482 -1.51598e-15
      vertex -12.3789 -13.7482 -19
    endloop
  endfacet
  facet normal 0.951057 0.309017 0
    outer loop
      vertex -16.9006 -7.52463 -2.06973e-15
      vertex -17.7209 -5 -11
      vertex -17.7209 -5 -2.17018e-15
    endloop
  endfacet
  facet normal 0.951057 0.309017 0
    outer loop
      vertex -17.7209 -5 -11
      vertex -16.9006 -7.52463 -2.06973e-15
      vertex -16.9006 -7.52463 -11
    endloop
  endfacet
  facet normal 0.951057 0.309017 -0
    outer loop
      vertex -16.9006 -7.52463 -15.825
      vertex -17.5 -5.67983 -15
      vertex -16.9006 -7.52463 -14.175
    endloop
  endfacet
  facet normal 0.866025 0.5 0
    outer loop
      vertex -16.9006 -7.52463 -2.06973e-15
      vertex -15.4714 -10 -11
      vertex -16.9006 -7.52463 -11
    endloop
  endfacet
  facet normal 0.866025 0.5 0
    outer loop
      vertex -14.9668 -10.874 -19
      vertex -15.4714 -10 -13.8958
      vertex -15.4714 -10 -11
    endloop
  endfacet
  facet normal 0.866025 0.5 0
    outer loop
      vertex -15.4714 -10 -13.8958
      vertex -14.9668 -10.874 -19
      vertex -15.4714 -10 -16.1042
    endloop
  endfacet
  facet normal 0.866025 0.5 -8.36256e-09
    outer loop
      vertex -14.9668 -10.874 -1.83291e-15
      vertex -15.4714 -10 -11
      vertex -16.9006 -7.52463 -2.06973e-15
    endloop
  endfacet
  facet normal 0.866025 0.5 -0
    outer loop
      vertex -14.9668 -10.874 -19
      vertex -15.4714 -10 -11
      vertex -14.9668 -10.874 -1.83291e-15
    endloop
  endfacet
  facet normal 0.866025 0.5 0
    outer loop
      vertex -15.4714 -10 -16.1042
      vertex -14.9668 -10.874 -19
      vertex -15.4714 -10 -19
    endloop
  endfacet
  facet normal 0.866025 0.500001 0
    outer loop
      vertex -16.4635 -8.28165 -13.5734
      vertex -16.9006 -7.52463 -15.825
      vertex -16.9006 -7.52463 -14.175
    endloop
  endfacet
  facet normal 0.866025 0.500001 0
    outer loop
      vertex -16.4635 -8.28165 -13.5734
      vertex -16.4635 -8.28165 -16.4266
      vertex -16.9006 -7.52463 -15.825
    endloop
  endfacet
  facet normal 0.866026 0.5 0
    outer loop
      vertex -15.4714 -10 -13.8958
      vertex -16.4635 -8.28165 -16.4266
      vertex -16.4635 -8.28165 -13.5734
    endloop
  endfacet
  facet normal 0.866026 0.5 0
    outer loop
      vertex -16.4635 -8.28165 -16.4266
      vertex -15.4714 -10 -13.8958
      vertex -15.4714 -10 -16.1042
    endloop
  endfacet
  facet normal -0.866025 0.5 0
    outer loop
      vertex 14.9668 -10.874 -19
      vertex 15.4714 -10 -16.3371
      vertex 15.4714 -10 -19
    endloop
  endfacet
  facet normal -0.866025 0.5 0
    outer loop
      vertex 15.4714 -10 -16.3371
      vertex 14.9668 -10.874 -19
      vertex 15.4714 -10 -13.6629
    endloop
  endfacet
  facet normal -0.866025 0.5 0
    outer loop
      vertex 15.4714 -10 -13.6629
      vertex 14.9668 -10.874 -19
      vertex 15.4714 -10 -11
    endloop
  endfacet
  facet normal -0.866025 0.5 1.96251e-06
    outer loop
      vertex 15.4714 -10 -16.3371
      vertex 16.9006 -7.52463 -15.9834
      vertex 15.5365 -9.88734 -16.4266
    endloop
  endfacet
  facet normal -0.866025 0.5 0
    outer loop
      vertex 16.9006 -7.52463 -15.9834
      vertex 15.4714 -10 -16.3371
      vertex 16.9006 -7.52463 -14.0166
    endloop
  endfacet
  facet normal -0.866025 0.5 0
    outer loop
      vertex 15.4714 -10 -13.6629
      vertex 16.9006 -7.52463 -14.0166
      vertex 15.4714 -10 -16.3371
    endloop
  endfacet
  facet normal -0.866025 0.5 -1.9625e-06
    outer loop
      vertex 16.9006 -7.52463 -14.0166
      vertex 15.4714 -10 -13.6629
      vertex 15.5365 -9.88734 -13.5734
    endloop
  endfacet
  facet normal -0.866025 0.5 0
    outer loop
      vertex 15.4714 -10 -11
      vertex 16.9006 -7.52463 2.06973e-15
      vertex 16.9006 -7.52463 -11
    endloop
  endfacet
  facet normal -0.866025 0.5 -8.36256e-09
    outer loop
      vertex 15.4714 -10 -11
      vertex 14.9668 -10.874 1.83291e-15
      vertex 16.9006 -7.52463 2.06973e-15
    endloop
  endfacet
  facet normal -0.866025 0.5 0
    outer loop
      vertex 14.9668 -10.874 1.83291e-15
      vertex 15.4714 -10 -11
      vertex 14.9668 -10.874 -19
    endloop
  endfacet
  facet normal 0.587785 0.809017 0
    outer loop
      vertex -9.25 -16.0215 -12
      vertex -9.25 -16.0215 -19
      vertex -10.6559 -15 -12
    endloop
  endfacet
  facet normal 0.587785 0.809017 -0
    outer loop
      vertex -10.6559 -15 -12
      vertex -12.3789 -13.7482 -1.51598e-15
      vertex -10.6559 -15 -1.30498e-15
    endloop
  endfacet
  facet normal 0.587785 0.809017 0
    outer loop
      vertex -10.6559 -15 -12
      vertex -12.3789 -13.7482 -19
      vertex -12.3789 -13.7482 -1.51598e-15
    endloop
  endfacet
  facet normal 0.587785 0.809017 2.19707e-10
    outer loop
      vertex -12.3789 -13.7482 -19
      vertex -10.6559 -15 -12
      vertex -9.25 -16.0215 -19
    endloop
  endfacet
  facet normal 0.406737 0.913545 -0
    outer loop
      vertex -5.71681 -17.5945 -19
      vertex -9.25 -16.0215 -12
      vertex -5.71681 -17.5945 -12
    endloop
  endfacet
  facet normal 0.406737 0.913545 0
    outer loop
      vertex -9.25 -16.0215 -12
      vertex -5.71681 -17.5945 -19
      vertex -9.25 -16.0215 -19
    endloop
  endfacet
  facet normal -0.207912 0.978148 0
    outer loop
      vertex 5.71681 -17.5945 -19
      vertex 1.93378 -18.3987 -12
      vertex 5.71681 -17.5945 -12
    endloop
  endfacet
  facet normal -0.207912 0.978148 0
    outer loop
      vertex 1.93378 -18.3987 -12
      vertex 5.71681 -17.5945 -19
      vertex 1.93378 -18.3987 -19
    endloop
  endfacet
  facet normal -0.587785 0.809017 0
    outer loop
      vertex 12.3789 -13.7482 1.51598e-15
      vertex 10.6559 -15 -12
      vertex 10.6559 -15 1.30498e-15
    endloop
  endfacet
  facet normal -0.587785 0.809017 0
    outer loop
      vertex 12.3789 -13.7482 -19
      vertex 10.6559 -15 -12
      vertex 12.3789 -13.7482 1.51598e-15
    endloop
  endfacet
  facet normal -0.587785 0.809017 2.19707e-10
    outer loop
      vertex 9.25 -16.0215 -19
      vertex 10.6559 -15 -12
      vertex 12.3789 -13.7482 -19
    endloop
  endfacet
  facet normal -0.587785 0.809017 0
    outer loop
      vertex 10.6559 -15 -12
      vertex 9.25 -16.0215 -19
      vertex 9.25 -16.0215 -12
    endloop
  endfacet
  facet normal -0.743145 0.669131 0
    outer loop
      vertex 12.3789 -13.7482 -19
      vertex 14.9668 -10.874 1.83291e-15
      vertex 14.9668 -10.874 -19
    endloop
  endfacet
  facet normal -0.743145 0.669131 0
    outer loop
      vertex 14.9668 -10.874 1.83291e-15
      vertex 12.3789 -13.7482 -19
      vertex 12.3789 -13.7482 1.51598e-15
    endloop
  endfacet
  facet normal -0.951057 0.309017 0
    outer loop
      vertex 16.9006 -7.52463 -11
      vertex 17.7209 -5 2.17018e-15
      vertex 17.7209 -5 -11
    endloop
  endfacet
  facet normal -0.951057 0.309017 0
    outer loop
      vertex 17.7209 -5 2.17018e-15
      vertex 16.9006 -7.52463 -11
      vertex 16.9006 -7.52463 2.06973e-15
    endloop
  endfacet
  facet normal -0.951057 0.309016 0
    outer loop
      vertex 16.9006 -7.52463 -15.9834
      vertex 17.2135 -6.56152 -14.1183
      vertex 17.2135 -6.56152 -15.8817
    endloop
  endfacet
  facet normal -0.951057 0.309016 0
    outer loop
      vertex 17.2135 -6.56152 -14.1183
      vertex 16.9006 -7.52463 -15.9834
      vertex 16.9006 -7.52463 -14.0166
    endloop
  endfacet
  facet normal -0.406737 0.913545 0
    outer loop
      vertex 9.25 -16.0215 -19
      vertex 5.71681 -17.5945 -12
      vertex 9.25 -16.0215 -12
    endloop
  endfacet
  facet normal -0.406737 0.913545 0
    outer loop
      vertex 5.71681 -17.5945 -12
      vertex 9.25 -16.0215 -19
      vertex 5.71681 -17.5945 -19
    endloop
  endfacet
  facet normal 0 1 0
    outer loop
      vertex 19.2894 -5 2.36228e-15
      vertex 18.5 -5 -11
      vertex 17.7209 -5 2.17018e-15
    endloop
  endfacet
  facet normal 0 1 -0
    outer loop
      vertex 19.2894 -5 -20
      vertex 18.5 -5 -11
      vertex 19.2894 -5 2.36228e-15
    endloop
  endfacet
  facet normal 0 1 0
    outer loop
      vertex 19.2894 -5 -20
      vertex 13.5 -5 -19
      vertex 18.5 -5 -19
    endloop
  endfacet
  facet normal 0 1 0
    outer loop
      vertex 13.5 -5 -19
      vertex 19.2894 -5 -20
      vertex -13.5 -5 -19
    endloop
  endfacet
  facet normal 0 1 0
    outer loop
      vertex -19.2894 -5 -20
      vertex -13.5 -5 -19
      vertex 19.2894 -5 -20
    endloop
  endfacet
  facet normal 0 1 0
    outer loop
      vertex 18.5 -5 -11
      vertex 19.2894 -5 -20
      vertex 18.5 -5 -19
    endloop
  endfacet
  facet normal 0 1 0
    outer loop
      vertex 17.7209 -5 2.17018e-15
      vertex 18.5 -5 -11
      vertex 17.7209 -5 -11
    endloop
  endfacet
  facet normal 0 1 0
    outer loop
      vertex -18.5 -5 -11
      vertex -17.7209 -5 -2.17018e-15
      vertex -17.7209 -5 -11
    endloop
  endfacet
  facet normal 0 1 0
    outer loop
      vertex -17.7209 -5 -2.17018e-15
      vertex -18.5 -5 -11
      vertex -19.2894 -5 -2.36228e-15
    endloop
  endfacet
  facet normal 0 1 0
    outer loop
      vertex -19.2894 -5 -20
      vertex -18.5 -5 -11
      vertex -18.5 -5 -19
    endloop
  endfacet
  facet normal 0 1 0
    outer loop
      vertex -18.5 -5 -11
      vertex -19.2894 -5 -20
      vertex -19.2894 -5 -2.36228e-15
    endloop
  endfacet
  facet normal 0 1 0
    outer loop
      vertex -13.5 -5 -19
      vertex -19.2894 -5 -20
      vertex -18.5 -5 -19
    endloop
  endfacet
  facet normal 0 1 -0
    outer loop
      vertex -16.4635 -5 -13.5734
      vertex -17.7209 -5 -11
      vertex -13.5 -5 -11
    endloop
  endfacet
  facet normal 0 1 0
    outer loop
      vertex -17.7209 -5 -11
      vertex -16.4635 -5 -13.5734
      vertex -18.5 -5 -11
    endloop
  endfacet
  facet normal 0 1 0
    outer loop
      vertex -13.5 -5 -11
      vertex -14.7865 -5 -14.1183
      vertex -16.4635 -5 -13.5734
    endloop
  endfacet
  facet normal 0 1 0
    outer loop
      vertex -13.5 -5 -11
      vertex -14.7865 -5 -15.8817
      vertex -14.7865 -5 -14.1183
    endloop
  endfacet
  facet normal 0 1 0
    outer loop
      vertex -14.7865 -5 -15.8817
      vertex -13.5 -5 -19
      vertex -16.4635 -5 -16.4266
    endloop
  endfacet
  facet normal 0 1 -0
    outer loop
      vertex -13.5 -5 -19
      vertex -14.7865 -5 -15.8817
      vertex -13.5 -5 -11
    endloop
  endfacet
  facet normal 0 1 -0
    outer loop
      vertex -17.5 -5 -15
      vertex -18.5 -5 -11
      vertex -16.4635 -5 -13.5734
    endloop
  endfacet
  facet normal 0 1 0
    outer loop
      vertex -17.5 -5 -15
      vertex -18.5 -5 -19
      vertex -18.5 -5 -11
    endloop
  endfacet
  facet normal 0 1 0
    outer loop
      vertex -16.4635 -5 -16.4266
      vertex -18.5 -5 -19
      vertex -17.5 -5 -15
    endloop
  endfacet
  facet normal 0 1 0
    outer loop
      vertex -18.5 -5 -19
      vertex -16.4635 -5 -16.4266
      vertex -13.5 -5 -19
    endloop
  endfacet
  facet normal 0 1 0
    outer loop
      vertex 17.2135 -5 -14.1183
      vertex 17.7209 -5 -11
      vertex 18.5 -5 -11
    endloop
  endfacet
  facet normal 0 1 0
    outer loop
      vertex 17.7209 -5 -11
      vertex 15.5365 -5 -13.5734
      vertex 13.5 -5 -11
    endloop
  endfacet
  facet normal 0 1 0
    outer loop
      vertex 17.7209 -5 -11
      vertex 17.2135 -5 -14.1183
      vertex 15.5365 -5 -13.5734
    endloop
  endfacet
  facet normal 0 1 0
    outer loop
      vertex 18.5 -5 -11
      vertex 17.2135 -5 -15.8817
      vertex 17.2135 -5 -14.1183
    endloop
  endfacet
  facet normal 0 1 0
    outer loop
      vertex 17.2135 -5 -15.8817
      vertex 18.5 -5 -19
      vertex 15.5365 -5 -16.4266
    endloop
  endfacet
  facet normal 0 1 -0
    outer loop
      vertex 18.5 -5 -19
      vertex 17.2135 -5 -15.8817
      vertex 18.5 -5 -11
    endloop
  endfacet
  facet normal 0 1 -0
    outer loop
      vertex 14.5 -5 -15
      vertex 13.5 -5 -11
      vertex 15.5365 -5 -13.5734
    endloop
  endfacet
  facet normal 0 1 0
    outer loop
      vertex 14.5 -5 -15
      vertex 13.5 -5 -19
      vertex 13.5 -5 -11
    endloop
  endfacet
  facet normal 0 1 0
    outer loop
      vertex 15.5365 -5 -16.4266
      vertex 13.5 -5 -19
      vertex 14.5 -5 -15
    endloop
  endfacet
  facet normal 0 1 0
    outer loop
      vertex 13.5 -5 -19
      vertex 15.5365 -5 -16.4266
      vertex 18.5 -5 -19
    endloop
  endfacet
  facet normal -0 0 1
    outer loop
      vertex 10.6559 -15 -12
      vertex 10 -17.3205 -12
      vertex 13.1939 -15 -12
    endloop
  endfacet
  facet normal -0 0 1
    outer loop
      vertex 9.25 -16.0215 -12
      vertex 10 -17.3205 -12
      vertex 10.6559 -15 -12
    endloop
  endfacet
  facet normal 0 0 1
    outer loop
      vertex 9.25 -16.0215 -12
      vertex 6.18034 -19.0211 -12
      vertex 10 -17.3205 -12
    endloop
  endfacet
  facet normal -0 0 1
    outer loop
      vertex 5.71681 -17.5945 -12
      vertex 6.18034 -19.0211 -12
      vertex 9.25 -16.0215 -12
    endloop
  endfacet
  facet normal 0 0 1
    outer loop
      vertex 5.71681 -17.5945 -12
      vertex 2.09057 -19.8904 -12
      vertex 6.18034 -19.0211 -12
    endloop
  endfacet
  facet normal -0 0 1
    outer loop
      vertex 1.93378 -18.3987 -12
      vertex 2.09057 -19.8904 -12
      vertex 5.71681 -17.5945 -12
    endloop
  endfacet
  facet normal -0 0 1
    outer loop
      vertex -1.93378 -18.3987 -12
      vertex 2.09057 -19.8904 -12
      vertex 1.93378 -18.3987 -12
    endloop
  endfacet
  facet normal 0 0 1
    outer loop
      vertex -1.93378 -18.3987 -12
      vertex -2.09057 -19.8904 -12
      vertex 2.09057 -19.8904 -12
    endloop
  endfacet
  facet normal 0 0 1
    outer loop
      vertex -5.71681 -17.5945 -12
      vertex -2.09057 -19.8904 -12
      vertex -1.93378 -18.3987 -12
    endloop
  endfacet
  facet normal 0 0 1
    outer loop
      vertex -5.71681 -17.5945 -12
      vertex -6.18034 -19.0211 -12
      vertex -2.09057 -19.8904 -12
    endloop
  endfacet
  facet normal 0 0 1
    outer loop
      vertex -9.25 -16.0215 -12
      vertex -6.18034 -19.0211 -12
      vertex -5.71681 -17.5945 -12
    endloop
  endfacet
  facet normal 0 0 1
    outer loop
      vertex -9.25 -16.0215 -12
      vertex -10 -17.3205 -12
      vertex -6.18034 -19.0211 -12
    endloop
  endfacet
  facet normal 0 0 1
    outer loop
      vertex -10.6559 -15 -12
      vertex -10 -17.3205 -12
      vertex -9.25 -16.0215 -12
    endloop
  endfacet
  facet normal 0 0 1
    outer loop
      vertex -10 -17.3205 -12
      vertex -10.6559 -15 -12
      vertex -13.1939 -15 -12
    endloop
  endfacet
  facet normal 0 -1 0
    outer loop
      vertex 10.6559 -15 -12
      vertex 13.1939 -15 1.61579e-15
      vertex 10.6559 -15 1.30498e-15
    endloop
  endfacet
  facet normal 0 -1 -0
    outer loop
      vertex 13.1939 -15 1.61579e-15
      vertex 10.6559 -15 -12
      vertex 13.1939 -15 -12
    endloop
  endfacet
  facet normal 0 -1 0
    outer loop
      vertex -13.1939 -15 -12
      vertex -10.6559 -15 -1.30498e-15
      vertex -13.1939 -15 -1.61579e-15
    endloop
  endfacet
  facet normal 0 -1 -0
    outer loop
      vertex -10.6559 -15 -1.30498e-15
      vertex -13.1939 -15 -12
      vertex -10.6559 -15 -12
    endloop
  endfacet
  facet normal 1 -0 0
    outer loop
      vertex 18.5 -10 -11
      vertex 18.5 -7.42966 -19
      vertex 18.5 -7.42966 -11
    endloop
  endfacet
  facet normal 1 0 0
    outer loop
      vertex 18.5 -7.42966 -19
      vertex 18.5 -10 -11
      vertex 18.5 -10 -19
    endloop
  endfacet
  facet normal -1 0 0
    outer loop
      vertex 13.5 -10 -19
      vertex 13.5 -5 -11
      vertex 13.5 -5 -19
    endloop
  endfacet
  facet normal -1 -0 0
    outer loop
      vertex 13.5 -5 -11
      vertex 13.5 -10 -19
      vertex 13.5 -10 -11
    endloop
  endfacet
  facet normal -0 0 1
    outer loop
      vertex 18.2709 -8.13473 -11
      vertex 18.5 -10 -11
      vertex 18.5 -7.42966 -11
    endloop
  endfacet
  facet normal 0 0 1
    outer loop
      vertex 18.5 -10 -11
      vertex 18.2709 -8.13473 -11
      vertex 17.194 -10 -11
    endloop
  endfacet
  facet normal -0 0 1
    outer loop
      vertex 13.5 -5 -11
      vertex 16.9006 -7.52463 -11
      vertex 17.7209 -5 -11
    endloop
  endfacet
  facet normal 0 0 1
    outer loop
      vertex 13.5 -10 -11
      vertex 16.9006 -7.52463 -11
      vertex 13.5 -5 -11
    endloop
  endfacet
  facet normal 0 0 1
    outer loop
      vertex 16.9006 -7.52463 -11
      vertex 13.5 -10 -11
      vertex 15.4714 -10 -11
    endloop
  endfacet
  facet normal 0 -1 0
    outer loop
      vertex 17.2135 -10 -14.1183
      vertex 17.194 -10 -11
      vertex 17.194 -10 -14.112
    endloop
  endfacet
  facet normal 0 -1 0
    outer loop
      vertex 17.194 -10 -11
      vertex 17.2135 -10 -14.1183
      vertex 18.5 -10 -11
    endloop
  endfacet
  facet normal 0 -1 0
    outer loop
      vertex 17.2135 -10 -15.8817
      vertex 18.5 -10 -11
      vertex 17.2135 -10 -14.1183
    endloop
  endfacet
  facet normal 0 -1 0
    outer loop
      vertex 17.194 -10 -19
      vertex 17.2135 -10 -15.8817
      vertex 17.194 -10 -15.888
    endloop
  endfacet
  facet normal 0 -1 0
    outer loop
      vertex 18.5 -10 -19
      vertex 17.2135 -10 -15.8817
      vertex 17.194 -10 -19
    endloop
  endfacet
  facet normal 0 -1 0
    outer loop
      vertex 17.2135 -10 -15.8817
      vertex 18.5 -10 -19
      vertex 18.5 -10 -11
    endloop
  endfacet
  facet normal 0 -1 0
    outer loop
      vertex 13.5 -10 -11
      vertex 15.4714 -10 -13.6629
      vertex 15.4714 -10 -11
    endloop
  endfacet
  facet normal 0 -1 0
    outer loop
      vertex 13.5 -10 -11
      vertex 14.5 -10 -15
      vertex 15.4714 -10 -13.6629
    endloop
  endfacet
  facet normal 0 -1 0
    outer loop
      vertex 13.5 -10 -19
      vertex 14.5 -10 -15
      vertex 13.5 -10 -11
    endloop
  endfacet
  facet normal 0 -1 0
    outer loop
      vertex 13.5 -10 -19
      vertex 15.4714 -10 -16.3371
      vertex 14.5 -10 -15
    endloop
  endfacet
  facet normal 0 -1 -0
    outer loop
      vertex 15.4714 -10 -16.3371
      vertex 13.5 -10 -19
      vertex 15.4714 -10 -19
    endloop
  endfacet
  facet normal 0.809017 0 0.587786
    outer loop
      vertex 14.5 -5 -15
      vertex 15.5365 -9.88734 -16.4266
      vertex 15.5365 -5 -16.4266
    endloop
  endfacet
  facet normal 0.809017 -0 0.587786
    outer loop
      vertex 14.5 -10 -15
      vertex 15.5365 -9.88734 -16.4266
      vertex 14.5 -5 -15
    endloop
  endfacet
  facet normal 0.809017 -2.80036e-06 0.587786
    outer loop
      vertex 15.5365 -9.88734 -16.4266
      vertex 14.5 -10 -15
      vertex 15.4714 -10 -16.3371
    endloop
  endfacet
  facet normal -0.309057 0 0.951044
    outer loop
      vertex 17.2135 -9.96618 -15.8817
      vertex 17.194 -10 -15.888
      vertex 17.2135 -10 -15.8817
    endloop
  endfacet
  facet normal -0.309017 0 0.951056
    outer loop
      vertex 15.5365 -5 -16.4266
      vertex 17.2135 -6.56152 -15.8817
      vertex 17.2135 -5 -15.8817
    endloop
  endfacet
  facet normal -0.309018 -5.12553e-07 0.951056
    outer loop
      vertex 17.2135 -6.56152 -15.8817
      vertex 15.5365 -5 -16.4266
      vertex 16.9006 -7.52463 -15.9834
    endloop
  endfacet
  facet normal -0.309017 0 0.951057
    outer loop
      vertex 16.9006 -7.52463 -15.9834
      vertex 15.5365 -5 -16.4266
      vertex 15.5365 -9.88734 -16.4266
    endloop
  endfacet
  facet normal -1 0 0
    outer loop
      vertex 17.2135 -10 -15.8817
      vertex 17.2135 -9.96618 -14.1183
      vertex 17.2135 -9.96618 -15.8817
    endloop
  endfacet
  facet normal -1 -0 0
    outer loop
      vertex 17.2135 -9.96618 -14.1183
      vertex 17.2135 -10 -15.8817
      vertex 17.2135 -10 -14.1183
    endloop
  endfacet
  facet normal -1 0 0
    outer loop
      vertex 17.2135 -6.56152 -15.8817
      vertex 17.2135 -5 -14.1183
      vertex 17.2135 -5 -15.8817
    endloop
  endfacet
  facet normal -1 -0 0
    outer loop
      vertex 17.2135 -5 -14.1183
      vertex 17.2135 -6.56152 -15.8817
      vertex 17.2135 -6.56152 -14.1183
    endloop
  endfacet
  facet normal -0.309057 0 -0.951044
    outer loop
      vertex 17.194 -10 -14.112
      vertex 17.2135 -9.96618 -14.1183
      vertex 17.2135 -10 -14.1183
    endloop
  endfacet
  facet normal -0.309018 -5.12553e-07 -0.951056
    outer loop
      vertex 15.5365 -5 -13.5734
      vertex 17.2135 -6.56152 -14.1183
      vertex 16.9006 -7.52463 -14.0166
    endloop
  endfacet
  facet normal -0.309017 -0 -0.951057
    outer loop
      vertex 15.5365 -5 -13.5734
      vertex 16.9006 -7.52463 -14.0166
      vertex 15.5365 -9.88734 -13.5734
    endloop
  endfacet
  facet normal -0.309017 0 -0.951056
    outer loop
      vertex 17.2135 -6.56152 -14.1183
      vertex 15.5365 -5 -13.5734
      vertex 17.2135 -5 -14.1183
    endloop
  endfacet
  facet normal 0.809017 0 -0.587786
    outer loop
      vertex 15.5365 -9.88734 -13.5734
      vertex 14.5 -5 -15
      vertex 15.5365 -5 -13.5734
    endloop
  endfacet
  facet normal 0.809017 2.50863e-06 -0.587786
    outer loop
      vertex 14.5 -10 -15
      vertex 15.5365 -9.88734 -13.5734
      vertex 15.4714 -10 -13.6629
    endloop
  endfacet
  facet normal 0.809017 0 -0.587786
    outer loop
      vertex 15.5365 -9.88734 -13.5734
      vertex 14.5 -10 -15
      vertex 14.5 -5 -15
    endloop
  endfacet
  facet normal 1 -0 0
    outer loop
      vertex -13.5 -10 -11
      vertex -13.5 -5 -19
      vertex -13.5 -5 -11
    endloop
  endfacet
  facet normal 1 0 0
    outer loop
      vertex -13.5 -5 -19
      vertex -13.5 -10 -11
      vertex -13.5 -10 -19
    endloop
  endfacet
  facet normal -1 0 0
    outer loop
      vertex -18.5 -10 -19
      vertex -18.5 -7.42966 -11
      vertex -18.5 -7.42966 -19
    endloop
  endfacet
  facet normal -1 -0 0
    outer loop
      vertex -18.5 -7.42966 -11
      vertex -18.5 -10 -19
      vertex -18.5 -10 -11
    endloop
  endfacet
  facet normal -0 0 1
    outer loop
      vertex -16.9006 -7.52463 -11
      vertex -13.5 -10 -11
      vertex -13.5 -5 -11
    endloop
  endfacet
  facet normal 0 0 1
    outer loop
      vertex -13.5 -10 -11
      vertex -16.9006 -7.52463 -11
      vertex -15.4714 -10 -11
    endloop
  endfacet
  facet normal 0 -0 1
    outer loop
      vertex -16.9006 -7.52463 -11
      vertex -13.5 -5 -11
      vertex -17.7209 -5 -11
    endloop
  endfacet
  facet normal 0 0 1
    outer loop
      vertex -18.2709 -8.13473 -11
      vertex -18.5 -10 -11
      vertex -17.194 -10 -11
    endloop
  endfacet
  facet normal 0 0 1
    outer loop
      vertex -18.5 -10 -11
      vertex -18.2709 -8.13473 -11
      vertex -18.5 -7.42966 -11
    endloop
  endfacet
  facet normal 0 -1 0
    outer loop
      vertex -14.7865 -10 -14.1183
      vertex -15.4714 -10 -11
      vertex -15.4714 -10 -13.8958
    endloop
  endfacet
  facet normal 0 -1 0
    outer loop
      vertex -15.4714 -10 -11
      vertex -14.7865 -10 -14.1183
      vertex -13.5 -10 -11
    endloop
  endfacet
  facet normal 0 -1 0
    outer loop
      vertex -14.7865 -10 -15.8817
      vertex -13.5 -10 -11
      vertex -14.7865 -10 -14.1183
    endloop
  endfacet
  facet normal 0 -1 0
    outer loop
      vertex -15.4714 -10 -19
      vertex -14.7865 -10 -15.8817
      vertex -15.4714 -10 -16.1042
    endloop
  endfacet
  facet normal 0 -1 0
    outer loop
      vertex -13.5 -10 -19
      vertex -14.7865 -10 -15.8817
      vertex -15.4714 -10 -19
    endloop
  endfacet
  facet normal 0 -1 0
    outer loop
      vertex -14.7865 -10 -15.8817
      vertex -13.5 -10 -19
      vertex -13.5 -10 -11
    endloop
  endfacet
  facet normal 0 -1 0
    outer loop
      vertex -18.5 -10 -11
      vertex -17.194 -10 -14.5788
      vertex -17.194 -10 -11
    endloop
  endfacet
  facet normal 0 -1 0
    outer loop
      vertex -18.5 -10 -11
      vertex -17.5 -10 -15
      vertex -17.194 -10 -14.5788
    endloop
  endfacet
  facet normal 0 -1 0
    outer loop
      vertex -18.5 -10 -19
      vertex -17.5 -10 -15
      vertex -18.5 -10 -11
    endloop
  endfacet
  facet normal 0 -1 0
    outer loop
      vertex -18.5 -10 -19
      vertex -17.194 -10 -15.4212
      vertex -17.5 -10 -15
    endloop
  endfacet
  facet normal 0 -1 -0
    outer loop
      vertex -17.194 -10 -15.4212
      vertex -18.5 -10 -19
      vertex -17.194 -10 -19
    endloop
  endfacet
  facet normal 0.809017 0 0.587785
    outer loop
      vertex -17.5 -9.46999 -15
      vertex -17.5 -10 -15
      vertex -17.194 -10 -15.4212
    endloop
  endfacet
  facet normal 0.809016 -0 0.587786
    outer loop
      vertex -17.5 -5.67983 -15
      vertex -16.4635 -5 -16.4266
      vertex -17.5 -5 -15
    endloop
  endfacet
  facet normal 0.809017 -2.14577e-07 0.587786
    outer loop
      vertex -16.9006 -7.52463 -15.825
      vertex -16.4635 -5 -16.4266
      vertex -17.5 -5.67983 -15
    endloop
  endfacet
  facet normal 0.809016 0 0.587787
    outer loop
      vertex -16.4635 -5 -16.4266
      vertex -16.9006 -7.52463 -15.825
      vertex -16.4635 -8.28165 -16.4266
    endloop
  endfacet
  facet normal -0.309017 0 0.951056
    outer loop
      vertex -16.4635 -8.28165 -16.4266
      vertex -14.7865 -10 -15.8817
      vertex -14.7865 -5 -15.8817
    endloop
  endfacet
  facet normal -0.309017 0 0.951056
    outer loop
      vertex -16.4635 -8.28165 -16.4266
      vertex -14.7865 -5 -15.8817
      vertex -16.4635 -5 -16.4266
    endloop
  endfacet
  facet normal -0.309018 -5.18789e-07 0.951056
    outer loop
      vertex -14.7865 -10 -15.8817
      vertex -16.4635 -8.28165 -16.4266
      vertex -15.4714 -10 -16.1042
    endloop
  endfacet
  facet normal -1 0 0
    outer loop
      vertex -14.7865 -10 -15.8817
      vertex -14.7865 -5 -14.1183
      vertex -14.7865 -5 -15.8817
    endloop
  endfacet
  facet normal -1 -0 0
    outer loop
      vertex -14.7865 -5 -14.1183
      vertex -14.7865 -10 -15.8817
      vertex -14.7865 -10 -14.1183
    endloop
  endfacet
  facet normal -0.309017 7.73548e-07 -0.951057
    outer loop
      vertex -16.4635 -8.28165 -13.5734
      vertex -14.7865 -10 -14.1183
      vertex -15.4714 -10 -13.8958
    endloop
  endfacet
  facet normal -0.309017 0 -0.951056
    outer loop
      vertex -14.7865 -10 -14.1183
      vertex -16.4635 -8.28165 -13.5734
      vertex -14.7865 -5 -14.1183
    endloop
  endfacet
  facet normal -0.309017 0 -0.951056
    outer loop
      vertex -14.7865 -5 -14.1183
      vertex -16.4635 -8.28165 -13.5734
      vertex -16.4635 -5 -13.5734
    endloop
  endfacet
  facet normal 0.809017 0 -0.587785
    outer loop
      vertex -17.5 -10 -15
      vertex -17.5 -9.46999 -15
      vertex -17.194 -10 -14.5788
    endloop
  endfacet
  facet normal 0.809016 0 -0.587786
    outer loop
      vertex -16.4635 -5 -13.5734
      vertex -17.5 -5.67983 -15
      vertex -17.5 -5 -15
    endloop
  endfacet
  facet normal 0.809017 -2.14577e-07 -0.587786
    outer loop
      vertex -16.4635 -5 -13.5734
      vertex -16.9006 -7.52463 -14.175
      vertex -17.5 -5.67983 -15
    endloop
  endfacet
  facet normal 0.809016 0 -0.587787
    outer loop
      vertex -16.9006 -7.52463 -14.175
      vertex -16.4635 -5 -13.5734
      vertex -16.4635 -8.28165 -13.5734
    endloop
  endfacet
endsolid OpenSCAD_Model
