solid OpenSCAD_Model
  facet normal -1 0 0
    outer loop
      vertex 0 -28 0
      vertex 0 -28 10
      vertex 0 -13 0
    endloop
  endfacet
  facet normal -1 0 0
    outer loop
      vertex 0 -13 0
      vertex 0 -28 10
      vertex 0 -13 10
    endloop
  endfacet
  facet normal 0 -1 0
    outer loop
      vertex 0 -28 10
      vertex 0 -28 0
      vertex 10 -28 0
    endloop
  endfacet
  facet normal 0 -1 0
    outer loop
      vertex 15 -28 5
      vertex 0 -28 10
      vertex 10 -28 5
    endloop
  endfacet
  facet normal 0 -1 0
    outer loop
      vertex 10 -28 5
      vertex 0 -28 10
      vertex 10 -28 0
    endloop
  endfacet
  facet normal 0 -1 0
    outer loop
      vertex 15 -28 10
      vertex 0 -28 10
      vertex 15 -28 5
    endloop
  endfacet
  facet normal 0 0 -1
    outer loop
      vertex 6.76777 -18.7322 0
      vertex 0 -13 0
      vertex 10 -13 0
    endloop
  endfacet
  facet normal 0 0 -1
    outer loop
      vertex 0 -28 0
      vertex 0 -13 0
      vertex 2.5 -20.5 0
    endloop
  endfacet
  facet normal 0 0 -1
    outer loop
      vertex 3.23223 -22.2678 0
      vertex 5 -23 0
      vertex 10 -28 0
    endloop
  endfacet
  facet normal 0 0 -1
    outer loop
      vertex 0 -28 0
      vertex 2.5 -20.5 0
      vertex 3.23223 -22.2678 0
    endloop
  endfacet
  facet normal 0 0 -1
    outer loop
      vertex 0 -28 0
      vertex 3.23223 -22.2678 0
      vertex 10 -28 0
    endloop
  endfacet
  facet normal 0 0 -1
    outer loop
      vertex 6.76777 -22.2678 0
      vertex 10 -28 0
      vertex 5 -23 0
    endloop
  endfacet
  facet normal 0 0 -1
    outer loop
      vertex 6.76777 -18.7322 0
      vertex 10 -13 0
      vertex 7.5 -20.5 0
    endloop
  endfacet
  facet normal 0 0 -1
    outer loop
      vertex 10 -28 0
      vertex 6.76777 -22.2678 0
      vertex 7.5 -20.5 0
    endloop
  endfacet
  facet normal 0 0 -1
    outer loop
      vertex 10 -28 0
      vertex 7.5 -20.5 0
      vertex 10 -13 0
    endloop
  endfacet
  facet normal 0 0 -1
    outer loop
      vertex 5 -18 0
      vertex 0 -13 0
      vertex 6.76777 -18.7322 0
    endloop
  endfacet
  facet normal 0 0 -1
    outer loop
      vertex 3.23223 -18.7322 0
      vertex 0 -13 0
      vertex 5 -18 0
    endloop
  endfacet
  facet normal 0 0 -1
    outer loop
      vertex 2.5 -20.5 0
      vertex 0 -13 0
      vertex 3.23223 -18.7322 0
    endloop
  endfacet
  facet normal 0 1 0
    outer loop
      vertex 0 -13 0
      vertex 0 -13 10
      vertex 10 -13 0
    endloop
  endfacet
  facet normal 0 1 0
    outer loop
      vertex 10 -13 5
      vertex 0 -13 10
      vertex 15 -13 10
    endloop
  endfacet
  facet normal 0 1 0
    outer loop
      vertex 10 -13 0
      vertex 0 -13 10
      vertex 10 -13 5
    endloop
  endfacet
  facet normal 0 1 0
    outer loop
      vertex 10 -13 5
      vertex 15 -13 10
      vertex 15 -13 5
    endloop
  endfacet
  facet normal 0 0 1
    outer loop
      vertex 3.23223 -22.2678 10
      vertex 0 -28 10
      vertex 15 -28 10
    endloop
  endfacet
  facet normal 0 0 1
    outer loop
      vertex 5 -18 10
      vertex 0 -13 10
      vertex 3.23223 -18.7322 10
    endloop
  endfacet
  facet normal 0 0 1
    outer loop
      vertex 5 -23 10
      vertex 3.23223 -22.2678 10
      vertex 15 -28 10
    endloop
  endfacet
  facet normal 0 0 1
    outer loop
      vertex 2.5 -20.5 10
      vertex 0 -28 10
      vertex 3.23223 -22.2678 10
    endloop
  endfacet
  facet normal 0 0 1
    outer loop
      vertex 7.5 -20.5 10
      vertex 6.76777 -22.2678 10
      vertex 15 -28 10
    endloop
  endfacet
  facet normal 0 0 1
    outer loop
      vertex 0 -13 10
      vertex 0 -28 10
      vertex 2.5 -20.5 10
    endloop
  endfacet
  facet normal 0 0 1
    outer loop
      vertex 15 -13 10
      vertex 0 -13 10
      vertex 5 -18 10
    endloop
  endfacet
  facet normal 0 0 1
    outer loop
      vertex 15 -13 10
      vertex 6.76777 -18.7322 10
      vertex 15 -28 10
    endloop
  endfacet
  facet normal 0 0 1
    outer loop
      vertex 15 -13 10
      vertex 5 -18 10
      vertex 6.76777 -18.7322 10
    endloop
  endfacet
  facet normal 0 0 1
    outer loop
      vertex 6.76777 -18.7322 10
      vertex 7.5 -20.5 10
      vertex 15 -28 10
    endloop
  endfacet
  facet normal 0 0 1
    outer loop
      vertex 6.76777 -22.2678 10
      vertex 5 -23 10
      vertex 15 -28 10
    endloop
  endfacet
  facet normal 0 0 1
    outer loop
      vertex 2.5 -20.5 10
      vertex 3.23223 -18.7322 10
      vertex 0 -13 10
    endloop
  endfacet
  facet normal 1 0 0
    outer loop
      vertex 15 -28 10
      vertex 15 -28 5
      vertex 15 -13 5
    endloop
  endfacet
  facet normal 1 0 0
    outer loop
      vertex 15 -13 10
      vertex 15 -28 10
      vertex 15 -13 5
    endloop
  endfacet
  facet normal 0 0 -1
    outer loop
      vertex 15 -13 5
      vertex 15 -28 5
      vertex 10 -13 5
    endloop
  endfacet
  facet normal 0 0 -1
    outer loop
      vertex 10 -13 5
      vertex 15 -28 5
      vertex 10 -28 5
    endloop
  endfacet
  facet normal 1 0 0
    outer loop
      vertex 10 -28 5
      vertex 10 -28 0
      vertex 10 -13 0
    endloop
  endfacet
  facet normal 1 0 0
    outer loop
      vertex 10 -13 5
      vertex 10 -28 5
      vertex 10 -13 0
    endloop
  endfacet
  facet normal 0.92388 -0.382683 0
    outer loop
      vertex 3.23223 -18.7322 0
      vertex 3.23223 -18.7322 10
      vertex 2.5 -20.5 10
    endloop
  endfacet
  facet normal 0.92388 -0.382683 0
    outer loop
      vertex 2.5 -20.5 0
      vertex 3.23223 -18.7322 0
      vertex 2.5 -20.5 10
    endloop
  endfacet
  facet normal 0.92388 0.382683 0
    outer loop
      vertex 2.5 -20.5 10
      vertex 3.23223 -22.2678 10
      vertex 3.23223 -22.2678 0
    endloop
  endfacet
  facet normal 0.92388 0.382683 0
    outer loop
      vertex 2.5 -20.5 0
      vertex 2.5 -20.5 10
      vertex 3.23223 -22.2678 0
    endloop
  endfacet
  facet normal 0.382683 -0.92388 0
    outer loop
      vertex 5 -18 0
      vertex 5 -18 10
      vertex 3.23223 -18.7322 10
    endloop
  endfacet
  facet normal 0.382683 -0.92388 0
    outer loop
      vertex 3.23223 -18.7322 0
      vertex 5 -18 0
      vertex 3.23223 -18.7322 10
    endloop
  endfacet
  facet normal -0.382683 -0.92388 0
    outer loop
      vertex 6.76777 -18.7322 0
      vertex 6.76777 -18.7322 10
      vertex 5 -18 10
    endloop
  endfacet
  facet normal -0.382683 -0.92388 0
    outer loop
      vertex 5 -18 0
      vertex 6.76777 -18.7322 0
      vertex 5 -18 10
    endloop
  endfacet
  facet normal -0.92388 -0.382683 0
    outer loop
      vertex 7.5 -20.5 10
      vertex 6.76777 -18.7322 10
      vertex 7.5 -20.5 0
    endloop
  endfacet
  facet normal -0.92388 -0.382683 0
    outer loop
      vertex 7.5 -20.5 0
      vertex 6.76777 -18.7322 10
      vertex 6.76777 -18.7322 0
    endloop
  endfacet
  facet normal -0.92388 0.382683 0
    outer loop
      vertex 7.5 -20.5 10
      vertex 7.5 -20.5 0
      vertex 6.76777 -22.2678 10
    endloop
  endfacet
  facet normal -0.92388 0.382683 0
    outer loop
      vertex 6.76777 -22.2678 10
      vertex 7.5 -20.5 0
      vertex 6.76777 -22.2678 0
    endloop
  endfacet
  facet normal -0.382683 0.92388 0
    outer loop
      vertex 6.76777 -22.2678 10
      vertex 6.76777 -22.2678 0
      vertex 5 -23 10
    endloop
  endfacet
  facet normal -0.382683 0.92388 0
    outer loop
      vertex 5 -23 10
      vertex 6.76777 -22.2678 0
      vertex 5 -23 0
    endloop
  endfacet
  facet normal 0.382683 0.92388 0
    outer loop
      vertex 5 -23 10
      vertex 5 -23 0
      vertex 3.23223 -22.2678 10
    endloop
  endfacet
  facet normal 0.382683 0.92388 0
    outer loop
      vertex 3.23223 -22.2678 10
      vertex 5 -23 0
      vertex 3.23223 -22.2678 0
    endloop
  endfacet
  facet normal -1 0 0
    outer loop
      vertex 0 28 0
      vertex 0 28 10
      vertex 0 43 0
    endloop
  endfacet
  facet normal -1 0 0
    outer loop
      vertex 0 43 0
      vertex 0 28 10
      vertex 0 43 10
    endloop
  endfacet
  facet normal 0 -1 0
    outer loop
      vertex 0 28 10
      vertex 0 28 0
      vertex 10 28 0
    endloop
  endfacet
  facet normal 0 -1 0
    outer loop
      vertex 15 28 5
      vertex 0 28 10
      vertex 10 28 5
    endloop
  endfacet
  facet normal 0 -1 0
    outer loop
      vertex 10 28 5
      vertex 0 28 10
      vertex 10 28 0
    endloop
  endfacet
  facet normal 0 -1 0
    outer loop
      vertex 15 28 10
      vertex 0 28 10
      vertex 15 28 5
    endloop
  endfacet
  facet normal 0 0 -1
    outer loop
      vertex 6.76777 37.2678 0
      vertex 0 43 0
      vertex 10 43 0
    endloop
  endfacet
  facet normal 0 0 -1
    outer loop
      vertex 0 28 0
      vertex 0 43 0
      vertex 2.5 35.5 0
    endloop
  endfacet
  facet normal 0 0 -1
    outer loop
      vertex 3.23223 33.7322 0
      vertex 5 33 0
      vertex 10 28 0
    endloop
  endfacet
  facet normal 0 0 -1
    outer loop
      vertex 0 28 0
      vertex 2.5 35.5 0
      vertex 3.23223 33.7322 0
    endloop
  endfacet
  facet normal 0 0 -1
    outer loop
      vertex 0 28 0
      vertex 3.23223 33.7322 0
      vertex 10 28 0
    endloop
  endfacet
  facet normal 0 0 -1
    outer loop
      vertex 6.76777 33.7322 0
      vertex 10 28 0
      vertex 5 33 0
    endloop
  endfacet
  facet normal 0 0 -1
    outer loop
      vertex 6.76777 37.2678 0
      vertex 10 43 0
      vertex 7.5 35.5 0
    endloop
  endfacet
  facet normal 0 0 -1
    outer loop
      vertex 10 28 0
      vertex 6.76777 33.7322 0
      vertex 7.5 35.5 0
    endloop
  endfacet
  facet normal 0 0 -1
    outer loop
      vertex 10 28 0
      vertex 7.5 35.5 0
      vertex 10 43 0
    endloop
  endfacet
  facet normal 0 0 -1
    outer loop
      vertex 5 38 0
      vertex 0 43 0
      vertex 6.76777 37.2678 0
    endloop
  endfacet
  facet normal 0 0 -1
    outer loop
      vertex 3.23223 37.2678 0
      vertex 0 43 0
      vertex 5 38 0
    endloop
  endfacet
  facet normal 0 0 -1
    outer loop
      vertex 2.5 35.5 0
      vertex 0 43 0
      vertex 3.23223 37.2678 0
    endloop
  endfacet
  facet normal 0 1 0
    outer loop
      vertex 0 43 0
      vertex 0 43 10
      vertex 10 43 0
    endloop
  endfacet
  facet normal 0 1 0
    outer loop
      vertex 10 43 5
      vertex 0 43 10
      vertex 15 43 10
    endloop
  endfacet
  facet normal 0 1 0
    outer loop
      vertex 10 43 0
      vertex 0 43 10
      vertex 10 43 5
    endloop
  endfacet
  facet normal 0 1 0
    outer loop
      vertex 10 43 5
      vertex 15 43 10
      vertex 15 43 5
    endloop
  endfacet
  facet normal 0 0 1
    outer loop
      vertex 3.23223 33.7322 10
      vertex 0 28 10
      vertex 15 28 10
    endloop
  endfacet
  facet normal 0 0 1
    outer loop
      vertex 5 38 10
      vertex 0 43 10
      vertex 3.23223 37.2678 10
    endloop
  endfacet
  facet normal 0 0 1
    outer loop
      vertex 5 33 10
      vertex 3.23223 33.7322 10
      vertex 15 28 10
    endloop
  endfacet
  facet normal 0 0 1
    outer loop
      vertex 2.5 35.5 10
      vertex 0 28 10
      vertex 3.23223 33.7322 10
    endloop
  endfacet
  facet normal 0 0 1
    outer loop
      vertex 7.5 35.5 10
      vertex 6.76777 33.7322 10
      vertex 15 28 10
    endloop
  endfacet
  facet normal 0 0 1
    outer loop
      vertex 0 43 10
      vertex 0 28 10
      vertex 2.5 35.5 10
    endloop
  endfacet
  facet normal 0 0 1
    outer loop
      vertex 15 43 10
      vertex 0 43 10
      vertex 5 38 10
    endloop
  endfacet
  facet normal 0 0 1
    outer loop
      vertex 15 43 10
      vertex 6.76777 37.2678 10
      vertex 15 28 10
    endloop
  endfacet
  facet normal 0 0 1
    outer loop
      vertex 15 43 10
      vertex 5 38 10
      vertex 6.76777 37.2678 10
    endloop
  endfacet
  facet normal 0 0 1
    outer loop
      vertex 6.76777 37.2678 10
      vertex 7.5 35.5 10
      vertex 15 28 10
    endloop
  endfacet
  facet normal 0 0 1
    outer loop
      vertex 6.76777 33.7322 10
      vertex 5 33 10
      vertex 15 28 10
    endloop
  endfacet
  facet normal 0 0 1
    outer loop
      vertex 2.5 35.5 10
      vertex 3.23223 37.2678 10
      vertex 0 43 10
    endloop
  endfacet
  facet normal 1 0 0
    outer loop
      vertex 15 28 10
      vertex 15 28 5
      vertex 15 43 5
    endloop
  endfacet
  facet normal 1 0 0
    outer loop
      vertex 15 43 10
      vertex 15 28 10
      vertex 15 43 5
    endloop
  endfacet
  facet normal 0 0 -1
    outer loop
      vertex 15 43 5
      vertex 15 28 5
      vertex 10 43 5
    endloop
  endfacet
  facet normal 0 0 -1
    outer loop
      vertex 10 43 5
      vertex 15 28 5
      vertex 10 28 5
    endloop
  endfacet
  facet normal 1 0 0
    outer loop
      vertex 10 28 5
      vertex 10 28 0
      vertex 10 43 0
    endloop
  endfacet
  facet normal 1 0 0
    outer loop
      vertex 10 43 5
      vertex 10 28 5
      vertex 10 43 0
    endloop
  endfacet
  facet normal 0.92388 -0.382683 0
    outer loop
      vertex 3.23223 37.2678 0
      vertex 3.23223 37.2678 10
      vertex 2.5 35.5 10
    endloop
  endfacet
  facet normal 0.92388 -0.382683 0
    outer loop
      vertex 2.5 35.5 0
      vertex 3.23223 37.2678 0
      vertex 2.5 35.5 10
    endloop
  endfacet
  facet normal 0.92388 0.382683 0
    outer loop
      vertex 2.5 35.5 10
      vertex 3.23223 33.7322 10
      vertex 3.23223 33.7322 0
    endloop
  endfacet
  facet normal 0.92388 0.382683 0
    outer loop
      vertex 2.5 35.5 0
      vertex 2.5 35.5 10
      vertex 3.23223 33.7322 0
    endloop
  endfacet
  facet normal 0.382683 -0.92388 0
    outer loop
      vertex 5 38 0
      vertex 5 38 10
      vertex 3.23223 37.2678 10
    endloop
  endfacet
  facet normal 0.382683 -0.92388 0
    outer loop
      vertex 3.23223 37.2678 0
      vertex 5 38 0
      vertex 3.23223 37.2678 10
    endloop
  endfacet
  facet normal -0.382683 -0.92388 0
    outer loop
      vertex 6.76777 37.2678 0
      vertex 6.76777 37.2678 10
      vertex 5 38 10
    endloop
  endfacet
  facet normal -0.382683 -0.92388 0
    outer loop
      vertex 5 38 0
      vertex 6.76777 37.2678 0
      vertex 5 38 10
    endloop
  endfacet
  facet normal -0.92388 -0.382683 0
    outer loop
      vertex 7.5 35.5 10
      vertex 6.76777 37.2678 10
      vertex 7.5 35.5 0
    endloop
  endfacet
  facet normal -0.92388 -0.382683 0
    outer loop
      vertex 7.5 35.5 0
      vertex 6.76777 37.2678 10
      vertex 6.76777 37.2678 0
    endloop
  endfacet
  facet normal -0.92388 0.382683 0
    outer loop
      vertex 7.5 35.5 10
      vertex 7.5 35.5 0
      vertex 6.76777 33.7322 10
    endloop
  endfacet
  facet normal -0.92388 0.382683 0
    outer loop
      vertex 6.76777 33.7322 10
      vertex 7.5 35.5 0
      vertex 6.76777 33.7322 0
    endloop
  endfacet
  facet normal -0.382683 0.92388 0
    outer loop
      vertex 6.76777 33.7322 10
      vertex 6.76777 33.7322 0
      vertex 5 33 10
    endloop
  endfacet
  facet normal -0.382683 0.92388 0
    outer loop
      vertex 5 33 10
      vertex 6.76777 33.7322 0
      vertex 5 33 0
    endloop
  endfacet
  facet normal 0.382683 0.92388 0
    outer loop
      vertex 5 33 10
      vertex 5 33 0
      vertex 3.23223 33.7322 10
    endloop
  endfacet
  facet normal 0.382683 0.92388 0
    outer loop
      vertex 3.23223 33.7322 10
      vertex 5 33 0
      vertex 3.23223 33.7322 0
    endloop
  endfacet
endsolid OpenSCAD_Model
