solid OpenSCAD_Model
  facet normal -1 0 0
    outer loop
      vertex 0 0 0
      vertex 0 128 28
      vertex 0 128 0
    endloop
  endfacet
  facet normal -1 -0 0
    outer loop
      vertex 0 128 28
      vertex 0 0 0
      vertex 0 0 28
    endloop
  endfacet
  facet normal 0 0 1
    outer loop
      vertex 0 128 28
      vertex 3 27 28
      vertex 3 113.049 28
    endloop
  endfacet
  facet normal 0 0 1
    outer loop
      vertex 0 0 28
      vertex 3 27 28
      vertex 0 128 28
    endloop
  endfacet
  facet normal 0 0 1
    outer loop
      vertex 0 128 28
      vertex 3 113.049 28
      vertex 2.9 114 28
    endloop
  endfacet
  facet normal 0 0 1
    outer loop
      vertex 25 113.049 28
      vertex 28 128 28
      vertex 25.1 114 28
    endloop
  endfacet
  facet normal 0 0 1
    outer loop
      vertex 28 128 28
      vertex 25 117 28
      vertex 25.1 114 28
    endloop
  endfacet
  facet normal -0 0 1
    outer loop
      vertex 24.1404 118.515 28
      vertex 25 117 28
      vertex 28 128 28
    endloop
  endfacet
  facet normal 0 0 1
    outer loop
      vertex 25 117 28
      vertex 24.1404 118.515 28
      vertex 24.6325 117 28
    endloop
  endfacet
  facet normal 0 0 1
    outer loop
      vertex 28 128 28
      vertex 22.9801 120.524 28
      vertex 24.1404 118.515 28
    endloop
  endfacet
  facet normal 0 0 1
    outer loop
      vertex 28 128 28
      vertex 21.4273 122.249 28
      vertex 22.9801 120.524 28
    endloop
  endfacet
  facet normal 0 0 1
    outer loop
      vertex 28 128 28
      vertex 19.55 123.613 28
      vertex 21.4273 122.249 28
    endloop
  endfacet
  facet normal 0 0 1
    outer loop
      vertex 28 128 28
      vertex 17.4301 124.557 28
      vertex 19.55 123.613 28
    endloop
  endfacet
  facet normal 0 0 1
    outer loop
      vertex 28 128 28
      vertex 15.1603 125.039 28
      vertex 17.4301 124.557 28
    endloop
  endfacet
  facet normal 0 0 1
    outer loop
      vertex 28 128 28
      vertex 12.8397 125.039 28
      vertex 15.1603 125.039 28
    endloop
  endfacet
  facet normal 0 0 1
    outer loop
      vertex 3.85964 118.515 28
      vertex 3 117 28
      vertex 3.36746 117 28
    endloop
  endfacet
  facet normal 0 0 1
    outer loop
      vertex 3 117 28
      vertex 2.9 114 28
      vertex 3 114.951 28
    endloop
  endfacet
  facet normal 0 0 1
    outer loop
      vertex 3 117 28
      vertex 0 128 28
      vertex 2.9 114 28
    endloop
  endfacet
  facet normal 0 0 1
    outer loop
      vertex 3.85964 118.515 28
      vertex 0 128 28
      vertex 3 117 28
    endloop
  endfacet
  facet normal 0 0 1
    outer loop
      vertex 5.01991 120.524 28
      vertex 0 128 28
      vertex 3.85964 118.515 28
    endloop
  endfacet
  facet normal 0 0 1
    outer loop
      vertex 6.57265 122.249 28
      vertex 0 128 28
      vertex 5.01991 120.524 28
    endloop
  endfacet
  facet normal 0 0 1
    outer loop
      vertex 8.45 123.613 28
      vertex 0 128 28
      vertex 6.57265 122.249 28
    endloop
  endfacet
  facet normal 0 0 1
    outer loop
      vertex 10.5699 124.557 28
      vertex 0 128 28
      vertex 8.45 123.613 28
    endloop
  endfacet
  facet normal 0 0 1
    outer loop
      vertex 12.8397 125.039 28
      vertex 0 128 28
      vertex 10.5699 124.557 28
    endloop
  endfacet
  facet normal -0 0 1
    outer loop
      vertex 0 128 28
      vertex 12.8397 125.039 28
      vertex 28 128 28
    endloop
  endfacet
  facet normal -0 0 1
    outer loop
      vertex 28 24 28
      vertex 43 21 28
      vertex 43 24 28
    endloop
  endfacet
  facet normal 0 0 1
    outer loop
      vertex 28 128 28
      vertex 25 113.049 28
      vertex 28 24 28
    endloop
  endfacet
  facet normal -0 0 1
    outer loop
      vertex 25 27 28
      vertex 28 24 28
      vertex 25 113.049 28
    endloop
  endfacet
  facet normal 0 0 1
    outer loop
      vertex 3 21 28
      vertex 25 27 28
      vertex 3 27 28
    endloop
  endfacet
  facet normal 0 0 1
    outer loop
      vertex 25 27 28
      vertex 3 21 28
      vertex 28 24 28
    endloop
  endfacet
  facet normal 0 0 1
    outer loop
      vertex 28 24 28
      vertex 3 21 28
      vertex 43 21 28
    endloop
  endfacet
  facet normal 0 0 1
    outer loop
      vertex 25.1 114 28
      vertex 25 117 28
      vertex 25 114.951 28
    endloop
  endfacet
  facet normal -0 0 1
    outer loop
      vertex 3 3 28
      vertex 43 0 28
      vertex 43 3 28
    endloop
  endfacet
  facet normal 0 0 1
    outer loop
      vertex 3 27 28
      vertex 0 0 28
      vertex 3 21 28
    endloop
  endfacet
  facet normal 0 0 1
    outer loop
      vertex 3 3 28
      vertex 0 0 28
      vertex 43 0 28
    endloop
  endfacet
  facet normal 0 0 1
    outer loop
      vertex 3 21 28
      vertex 0 0 28
      vertex 3 3 28
    endloop
  endfacet
  facet normal 1 -0 0
    outer loop
      vertex 43 0 28
      vertex 43 3 0
      vertex 43 3 28
    endloop
  endfacet
  facet normal 1 0 0
    outer loop
      vertex 43 3 0
      vertex 43 0 28
      vertex 43 0 0
    endloop
  endfacet
  facet normal 1 -0 0
    outer loop
      vertex 43 21 28
      vertex 43 24 0
      vertex 43 24 28
    endloop
  endfacet
  facet normal 1 0 0
    outer loop
      vertex 43 24 0
      vertex 43 21 28
      vertex 43 21 0
    endloop
  endfacet
  facet normal -0 0 -1
    outer loop
      vertex 3 114.951 0
      vertex 2.9 114 0
      vertex 3 117 0
    endloop
  endfacet
  facet normal 0 0 -1
    outer loop
      vertex 43 0 0
      vertex 3 3 0
      vertex 43 3 0
    endloop
  endfacet
  facet normal 0 0 -1
    outer loop
      vertex 0 0 0
      vertex 3 21 0
      vertex 3 3 0
    endloop
  endfacet
  facet normal -0 0 -1
    outer loop
      vertex 3 21 0
      vertex 0 0 0
      vertex 3 27 0
    endloop
  endfacet
  facet normal 0 0 -1
    outer loop
      vertex 0 128 0
      vertex 3 27 0
      vertex 0 0 0
    endloop
  endfacet
  facet normal 0 0 -1
    outer loop
      vertex 3 27 0
      vertex 0 128 0
      vertex 3 113.049 0
    endloop
  endfacet
  facet normal 0 0 -1
    outer loop
      vertex 0 0 0
      vertex 3 3 0
      vertex 43 0 0
    endloop
  endfacet
  facet normal 0 0 -1
    outer loop
      vertex 43 21 0
      vertex 28 24 0
      vertex 43 24 0
    endloop
  endfacet
  facet normal 0 0 -1
    outer loop
      vertex 25 113.049 0
      vertex 28 128 0
      vertex 28 24 0
    endloop
  endfacet
  facet normal 0 0 -1
    outer loop
      vertex 25 113.049 0
      vertex 28 24 0
      vertex 25 27 0
    endloop
  endfacet
  facet normal 0 0 -1
    outer loop
      vertex 3 21 0
      vertex 28 24 0
      vertex 43 21 0
    endloop
  endfacet
  facet normal 0 0 -1
    outer loop
      vertex 3 21 0
      vertex 25 27 0
      vertex 28 24 0
    endloop
  endfacet
  facet normal -0 0 -1
    outer loop
      vertex 25 27 0
      vertex 3 21 0
      vertex 3 27 0
    endloop
  endfacet
  facet normal 0 0 -1
    outer loop
      vertex 25 117 0
      vertex 25.1 114 0
      vertex 25 114.951 0
    endloop
  endfacet
  facet normal 0 0 -1
    outer loop
      vertex 25.1 114 0
      vertex 25 117 0
      vertex 28 128 0
    endloop
  endfacet
  facet normal 0 0 -1
    outer loop
      vertex 24.1404 118.515 0
      vertex 25 117 0
      vertex 24.6325 117 0
    endloop
  endfacet
  facet normal 0 0 -1
    outer loop
      vertex 25 117 0
      vertex 24.1404 118.515 0
      vertex 28 128 0
    endloop
  endfacet
  facet normal 0 0 -1
    outer loop
      vertex 22.9801 120.524 0
      vertex 28 128 0
      vertex 24.1404 118.515 0
    endloop
  endfacet
  facet normal 0 0 -1
    outer loop
      vertex 21.4273 122.249 0
      vertex 28 128 0
      vertex 22.9801 120.524 0
    endloop
  endfacet
  facet normal 0 0 -1
    outer loop
      vertex 19.55 123.613 0
      vertex 28 128 0
      vertex 21.4273 122.249 0
    endloop
  endfacet
  facet normal 0 0 -1
    outer loop
      vertex 17.4301 124.557 0
      vertex 28 128 0
      vertex 19.55 123.613 0
    endloop
  endfacet
  facet normal 0 0 -1
    outer loop
      vertex 15.1603 125.039 0
      vertex 28 128 0
      vertex 17.4301 124.557 0
    endloop
  endfacet
  facet normal 0 0 -1
    outer loop
      vertex 12.8397 125.039 0
      vertex 28 128 0
      vertex 15.1603 125.039 0
    endloop
  endfacet
  facet normal 0 0 -1
    outer loop
      vertex 3 117 0
      vertex 3.85964 118.515 0
      vertex 3.36746 117 0
    endloop
  endfacet
  facet normal 0 0 -1
    outer loop
      vertex 12.8397 125.039 0
      vertex 0 128 0
      vertex 28 128 0
    endloop
  endfacet
  facet normal 0 0 -1
    outer loop
      vertex 10.5699 124.557 0
      vertex 0 128 0
      vertex 12.8397 125.039 0
    endloop
  endfacet
  facet normal 0 0 -1
    outer loop
      vertex 8.45 123.613 0
      vertex 0 128 0
      vertex 10.5699 124.557 0
    endloop
  endfacet
  facet normal 0 0 -1
    outer loop
      vertex 6.57265 122.249 0
      vertex 0 128 0
      vertex 8.45 123.613 0
    endloop
  endfacet
  facet normal 0 0 -1
    outer loop
      vertex 5.01991 120.524 0
      vertex 0 128 0
      vertex 6.57265 122.249 0
    endloop
  endfacet
  facet normal 0 0 -1
    outer loop
      vertex 3.85964 118.515 0
      vertex 0 128 0
      vertex 5.01991 120.524 0
    endloop
  endfacet
  facet normal 0 0 -1
    outer loop
      vertex 3 117 0
      vertex 0 128 0
      vertex 3.85964 118.515 0
    endloop
  endfacet
  facet normal 0 0 -1
    outer loop
      vertex 2.9 114 0
      vertex 0 128 0
      vertex 3 117 0
    endloop
  endfacet
  facet normal 0 0 -1
    outer loop
      vertex 3 113.049 0
      vertex 0 128 0
      vertex 2.9 114 0
    endloop
  endfacet
  facet normal 0 0 -1
    outer loop
      vertex 28 128 0
      vertex 25 113.049 0
      vertex 25.1 114 0
    endloop
  endfacet
  facet normal 0 -1 0
    outer loop
      vertex 0 0 0
      vertex 43 0 28
      vertex 0 0 28
    endloop
  endfacet
  facet normal 0 -1 -0
    outer loop
      vertex 43 0 28
      vertex 0 0 0
      vertex 43 0 0
    endloop
  endfacet
  facet normal 0 1 0
    outer loop
      vertex 43 24 28
      vertex 34.7725 24 16.3776
      vertex 28 24 28
    endloop
  endfacet
  facet normal 0 1 0
    outer loop
      vertex 43 24 28
      vertex 36.0225 24 15.4695
      vertex 34.7725 24 16.3776
    endloop
  endfacet
  facet normal 0 1 0
    outer loop
      vertex 43 24 28
      vertex 36.5 24 14
      vertex 36.0225 24 15.4695
    endloop
  endfacet
  facet normal 0 1 -0
    outer loop
      vertex 43 24 0
      vertex 36.5 24 14
      vertex 43 24 28
    endloop
  endfacet
  facet normal 0 1 0
    outer loop
      vertex 28 24 0
      vertex 34.7725 24 11.6224
      vertex 43 24 0
    endloop
  endfacet
  facet normal 0 1 0
    outer loop
      vertex 36.0225 24 12.5305
      vertex 43 24 0
      vertex 34.7725 24 11.6224
    endloop
  endfacet
  facet normal 0 1 0
    outer loop
      vertex 36.5 24 14
      vertex 43 24 0
      vertex 36.0225 24 12.5305
    endloop
  endfacet
  facet normal 0 1 -0
    outer loop
      vertex 33.2275 24 16.3776
      vertex 28 24 28
      vertex 34.7725 24 16.3776
    endloop
  endfacet
  facet normal 0 1 -0
    outer loop
      vertex 31.9775 24 15.4695
      vertex 28 24 28
      vertex 33.2275 24 16.3776
    endloop
  endfacet
  facet normal 0 1 -0
    outer loop
      vertex 31.5 24 14
      vertex 28 24 28
      vertex 31.9775 24 15.4695
    endloop
  endfacet
  facet normal 0 1 0
    outer loop
      vertex 34.7725 24 11.6224
      vertex 28 24 0
      vertex 33.2275 24 11.6224
    endloop
  endfacet
  facet normal 0 1 0
    outer loop
      vertex 31.5 24 14
      vertex 28 24 0
      vertex 28 24 28
    endloop
  endfacet
  facet normal 0 1 0
    outer loop
      vertex 31.9775 24 12.5305
      vertex 28 24 0
      vertex 31.5 24 14
    endloop
  endfacet
  facet normal 0 1 0
    outer loop
      vertex 33.2275 24 11.6224
      vertex 28 24 0
      vertex 31.9775 24 12.5305
    endloop
  endfacet
  facet normal 1 -0 0
    outer loop
      vertex 3 3 28
      vertex 3 21 0
      vertex 3 21 28
    endloop
  endfacet
  facet normal 1 0 0
    outer loop
      vertex 3 21 0
      vertex 3 3 28
      vertex 3 3 0
    endloop
  endfacet
  facet normal 0 1 -0
    outer loop
      vertex 43 3 0
      vertex 3 3 28
      vertex 43 3 28
    endloop
  endfacet
  facet normal 0 1 0
    outer loop
      vertex 3 3 28
      vertex 43 3 0
      vertex 3 3 0
    endloop
  endfacet
  facet normal 0 -1 0
    outer loop
      vertex 3 21 28
      vertex 33.5365 21 15.4266
      vertex 43 21 28
    endloop
  endfacet
  facet normal 0 -1 0
    outer loop
      vertex 3 21 28
      vertex 32.7865 21 14.8817
      vertex 33.5365 21 15.4266
    endloop
  endfacet
  facet normal 0 -1 0
    outer loop
      vertex 3 21 28
      vertex 32.5 21 14
      vertex 32.7865 21 14.8817
    endloop
  endfacet
  facet normal 0 -1 0
    outer loop
      vertex 3 21 0
      vertex 32.5 21 14
      vertex 3 21 28
    endloop
  endfacet
  facet normal 0 -1 -0
    outer loop
      vertex 32.5 21 14
      vertex 3 21 0
      vertex 32.7865 21 13.1183
    endloop
  endfacet
  facet normal 0 -1 0
    outer loop
      vertex 43 21 0
      vertex 33.5365 21 12.5734
      vertex 3 21 0
    endloop
  endfacet
  facet normal 0 -1 -0
    outer loop
      vertex 32.7865 21 13.1183
      vertex 3 21 0
      vertex 33.5365 21 12.5734
    endloop
  endfacet
  facet normal 0 -1 0
    outer loop
      vertex 34.4635 21 15.4266
      vertex 43 21 28
      vertex 33.5365 21 15.4266
    endloop
  endfacet
  facet normal 0 -1 0
    outer loop
      vertex 35.2135 21 14.8817
      vertex 43 21 28
      vertex 34.4635 21 15.4266
    endloop
  endfacet
  facet normal 0 -1 0
    outer loop
      vertex 35.5 21 14
      vertex 43 21 28
      vertex 35.2135 21 14.8817
    endloop
  endfacet
  facet normal 0 -1 0
    outer loop
      vertex 43 21 0
      vertex 35.5 21 14
      vertex 35.2135 21 13.1183
    endloop
  endfacet
  facet normal 0 -1 0
    outer loop
      vertex 35.5 21 14
      vertex 43 21 0
      vertex 43 21 28
    endloop
  endfacet
  facet normal 0 -1 0
    outer loop
      vertex 34.4635 21 12.5734
      vertex 43 21 0
      vertex 35.2135 21 13.1183
    endloop
  endfacet
  facet normal 0 -1 0
    outer loop
      vertex 33.5365 21 12.5734
      vertex 43 21 0
      vertex 34.4635 21 12.5734
    endloop
  endfacet
  facet normal -0.90659 0.302197 -0.29457
    outer loop
      vertex 36.0225 24 15.4695
      vertex 36.5 24 14
      vertex 35.5 21 14
    endloop
  endfacet
  facet normal -0.560303 0.302197 -0.771192
    outer loop
      vertex 36.0225 24 15.4695
      vertex 35.2135 21 14.8817
      vertex 34.7725 24 16.3776
    endloop
  endfacet
  facet normal 0 0.302197 0.953246
    outer loop
      vertex 34.7725 24 11.6224
      vertex 33.5365 21 12.5734
      vertex 34.4635 21 12.5734
    endloop
  endfacet
  facet normal 0 0.302197 0.953246
    outer loop
      vertex 33.5365 21 12.5734
      vertex 34.7725 24 11.6224
      vertex 33.2275 24 11.6224
    endloop
  endfacet
  facet normal 0.560303 0.302197 -0.771192
    outer loop
      vertex 33.2275 24 16.3776
      vertex 33.5365 21 15.4266
      vertex 32.7865 21 14.8817
    endloop
  endfacet
  facet normal -0.90659 0.302197 0.29457
    outer loop
      vertex 36.5 24 14
      vertex 36.0225 24 12.5305
      vertex 35.5 21 14
    endloop
  endfacet
  facet normal 0.560304 0.302197 -0.771192
    outer loop
      vertex 33.2275 24 16.3776
      vertex 32.7865 21 14.8817
      vertex 31.9775 24 15.4695
    endloop
  endfacet
  facet normal -0.560304 0.302197 -0.771192
    outer loop
      vertex 34.7725 24 16.3776
      vertex 35.2135 21 14.8817
      vertex 34.4635 21 15.4266
    endloop
  endfacet
  facet normal 0.90659 0.302197 -0.294569
    outer loop
      vertex 31.9775 24 15.4695
      vertex 32.7865 21 14.8817
      vertex 31.5 24 14
    endloop
  endfacet
  facet normal 0.90659 0.302197 -0.294571
    outer loop
      vertex 32.7865 21 14.8817
      vertex 32.5 21 14
      vertex 31.5 24 14
    endloop
  endfacet
  facet normal 0.90659 0.302197 0.294569
    outer loop
      vertex 32.7865 21 13.1183
      vertex 31.9775 24 12.5305
      vertex 31.5 24 14
    endloop
  endfacet
  facet normal 0.560303 0.302197 0.771192
    outer loop
      vertex 33.5365 21 12.5734
      vertex 33.2275 24 11.6224
      vertex 32.7865 21 13.1183
    endloop
  endfacet
  facet normal 0.560304 0.302197 0.771191
    outer loop
      vertex 32.7865 21 13.1183
      vertex 33.2275 24 11.6224
      vertex 31.9775 24 12.5305
    endloop
  endfacet
  facet normal -0.560304 0.302197 0.771192
    outer loop
      vertex 35.2135 21 13.1183
      vertex 36.0225 24 12.5305
      vertex 34.7725 24 11.6224
    endloop
  endfacet
  facet normal -0.90659 0.302197 0.29457
    outer loop
      vertex 35.5 21 14
      vertex 36.0225 24 12.5305
      vertex 35.2135 21 13.1183
    endloop
  endfacet
  facet normal -0.90659 0.302197 -0.294571
    outer loop
      vertex 36.0225 24 15.4695
      vertex 35.5 21 14
      vertex 35.2135 21 14.8817
    endloop
  endfacet
  facet normal 0 0.302197 -0.953246
    outer loop
      vertex 33.5365 21 15.4266
      vertex 34.7725 24 16.3776
      vertex 34.4635 21 15.4266
    endloop
  endfacet
  facet normal 0 0.302197 -0.953246
    outer loop
      vertex 34.7725 24 16.3776
      vertex 33.5365 21 15.4266
      vertex 33.2275 24 16.3776
    endloop
  endfacet
  facet normal 0.90659 0.302197 0.29457
    outer loop
      vertex 32.5 21 14
      vertex 32.7865 21 13.1183
      vertex 31.5 24 14
    endloop
  endfacet
  facet normal -0.560303 0.302197 0.771192
    outer loop
      vertex 35.2135 21 13.1183
      vertex 34.7725 24 11.6224
      vertex 34.4635 21 12.5734
    endloop
  endfacet
  facet normal 1 -0 0
    outer loop
      vertex 28 24 28
      vertex 28 128 0
      vertex 28 128 28
    endloop
  endfacet
  facet normal 1 0 0
    outer loop
      vertex 28 128 0
      vertex 28 24 28
      vertex 28 24 0
    endloop
  endfacet
  facet normal 0 1 -0
    outer loop
      vertex 28 128 0
      vertex 0 128 28
      vertex 28 128 28
    endloop
  endfacet
  facet normal 0 1 0
    outer loop
      vertex 0 128 28
      vertex 28 128 0
      vertex 0 128 0
    endloop
  endfacet
  facet normal 1 -0 0
    outer loop
      vertex 3 27 28
      vertex 3 113.049 0
      vertex 3 113.049 28
    endloop
  endfacet
  facet normal 1 0 0
    outer loop
      vertex 3 113.049 0
      vertex 3 27 28
      vertex 3 27 0
    endloop
  endfacet
  facet normal 1 -0 0
    outer loop
      vertex 3 114.951 28
      vertex 3 117 0
      vertex 3 117 28
    endloop
  endfacet
  facet normal 1 0 0
    outer loop
      vertex 3 117 0
      vertex 3 114.951 28
      vertex 3 114.951 0
    endloop
  endfacet
  facet normal -1 0 0
    outer loop
      vertex 25 27 0
      vertex 25 113.049 28
      vertex 25 113.049 0
    endloop
  endfacet
  facet normal -1 -0 0
    outer loop
      vertex 25 113.049 28
      vertex 25 27 0
      vertex 25 27 28
    endloop
  endfacet
  facet normal -1 0 0
    outer loop
      vertex 25 114.951 0
      vertex 25 117 28
      vertex 25 117 0
    endloop
  endfacet
  facet normal -1 -0 0
    outer loop
      vertex 25 117 28
      vertex 25 114.951 0
      vertex 25 114.951 28
    endloop
  endfacet
  facet normal 0 -1 0
    outer loop
      vertex 24.6325 117 0
      vertex 25 117 28
      vertex 24.6325 117 28
    endloop
  endfacet
  facet normal 0 -1 -0
    outer loop
      vertex 25 117 28
      vertex 24.6325 117 0
      vertex 25 117 0
    endloop
  endfacet
  facet normal 0 -1 0
    outer loop
      vertex 3 117 0
      vertex 3.36746 117 28
      vertex 3 117 28
    endloop
  endfacet
  facet normal 0 -1 -0
    outer loop
      vertex 3.36746 117 28
      vertex 3 117 0
      vertex 3.36746 117 0
    endloop
  endfacet
  facet normal 0 1 -0
    outer loop
      vertex 25 27 0
      vertex 3 27 28
      vertex 25 27 28
    endloop
  endfacet
  facet normal 0 1 0
    outer loop
      vertex 3 27 28
      vertex 25 27 0
      vertex 3 27 0
    endloop
  endfacet
  facet normal -0.994522 -0.104527 0
    outer loop
      vertex 25.1 114 0
      vertex 25 114.951 28
      vertex 25 114.951 0
    endloop
  endfacet
  facet normal -0.994522 -0.104527 0
    outer loop
      vertex 25 114.951 28
      vertex 25.1 114 0
      vertex 25.1 114 28
    endloop
  endfacet
  facet normal 0 -1 0
    outer loop
      vertex 12.8397 125.039 0
      vertex 15.1603 125.039 28
      vertex 12.8397 125.039 28
    endloop
  endfacet
  facet normal 0 -1 -0
    outer loop
      vertex 15.1603 125.039 28
      vertex 12.8397 125.039 0
      vertex 15.1603 125.039 0
    endloop
  endfacet
  facet normal -0.587786 -0.809017 0
    outer loop
      vertex 19.55 123.613 0
      vertex 21.4273 122.249 28
      vertex 19.55 123.613 28
    endloop
  endfacet
  facet normal -0.587786 -0.809017 -0
    outer loop
      vertex 21.4273 122.249 28
      vertex 19.55 123.613 0
      vertex 21.4273 122.249 0
    endloop
  endfacet
  facet normal 0.743145 -0.66913 0
    outer loop
      vertex 5.01991 120.524 28
      vertex 6.57265 122.249 0
      vertex 6.57265 122.249 28
    endloop
  endfacet
  facet normal 0.743145 -0.66913 0
    outer loop
      vertex 6.57265 122.249 0
      vertex 5.01991 120.524 28
      vertex 5.01991 120.524 0
    endloop
  endfacet
  facet normal 0.406735 -0.913546 0
    outer loop
      vertex 8.45 123.613 0
      vertex 10.5699 124.557 28
      vertex 8.45 123.613 28
    endloop
  endfacet
  facet normal 0.406735 -0.913546 0
    outer loop
      vertex 10.5699 124.557 28
      vertex 8.45 123.613 0
      vertex 10.5699 124.557 0
    endloop
  endfacet
  facet normal -0.866025 -0.500001 0
    outer loop
      vertex 24.1404 118.515 0
      vertex 22.9801 120.524 28
      vertex 22.9801 120.524 0
    endloop
  endfacet
  facet normal -0.866025 -0.500001 0
    outer loop
      vertex 22.9801 120.524 28
      vertex 24.1404 118.515 0
      vertex 24.1404 118.515 28
    endloop
  endfacet
  facet normal -0.951057 -0.309016 0
    outer loop
      vertex 24.6325 117 0
      vertex 24.1404 118.515 28
      vertex 24.1404 118.515 0
    endloop
  endfacet
  facet normal -0.951057 -0.309016 0
    outer loop
      vertex 24.1404 118.515 28
      vertex 24.6325 117 0
      vertex 24.6325 117 28
    endloop
  endfacet
  facet normal -0.743146 -0.66913 0
    outer loop
      vertex 22.9801 120.524 0
      vertex 21.4273 122.249 28
      vertex 21.4273 122.249 0
    endloop
  endfacet
  facet normal -0.743146 -0.66913 0
    outer loop
      vertex 21.4273 122.249 28
      vertex 22.9801 120.524 0
      vertex 22.9801 120.524 28
    endloop
  endfacet
  facet normal -0.207913 -0.978147 0
    outer loop
      vertex 15.1603 125.039 0
      vertex 17.4301 124.557 28
      vertex 15.1603 125.039 28
    endloop
  endfacet
  facet normal -0.207913 -0.978147 -0
    outer loop
      vertex 17.4301 124.557 28
      vertex 15.1603 125.039 0
      vertex 17.4301 124.557 0
    endloop
  endfacet
  facet normal -0.406735 -0.913546 0
    outer loop
      vertex 17.4301 124.557 0
      vertex 19.55 123.613 28
      vertex 17.4301 124.557 28
    endloop
  endfacet
  facet normal -0.406735 -0.913546 -0
    outer loop
      vertex 19.55 123.613 28
      vertex 17.4301 124.557 0
      vertex 19.55 123.613 0
    endloop
  endfacet
  facet normal 0.951057 -0.309017 0
    outer loop
      vertex 3.36746 117 28
      vertex 3.85964 118.515 0
      vertex 3.85964 118.515 28
    endloop
  endfacet
  facet normal 0.951057 -0.309017 0
    outer loop
      vertex 3.85964 118.515 0
      vertex 3.36746 117 28
      vertex 3.36746 117 0
    endloop
  endfacet
  facet normal 0.866025 -0.500001 0
    outer loop
      vertex 3.85964 118.515 28
      vertex 5.01991 120.524 0
      vertex 5.01991 120.524 28
    endloop
  endfacet
  facet normal 0.866025 -0.500001 0
    outer loop
      vertex 5.01991 120.524 0
      vertex 3.85964 118.515 28
      vertex 3.85964 118.515 0
    endloop
  endfacet
  facet normal 0.994522 -0.104529 0
    outer loop
      vertex 2.9 114 28
      vertex 3 114.951 0
      vertex 3 114.951 28
    endloop
  endfacet
  facet normal 0.994522 -0.104529 0
    outer loop
      vertex 3 114.951 0
      vertex 2.9 114 28
      vertex 2.9 114 0
    endloop
  endfacet
  facet normal 0.587786 -0.809017 0
    outer loop
      vertex 6.57265 122.249 0
      vertex 8.45 123.613 28
      vertex 6.57265 122.249 28
    endloop
  endfacet
  facet normal 0.587786 -0.809017 0
    outer loop
      vertex 8.45 123.613 28
      vertex 6.57265 122.249 0
      vertex 8.45 123.613 0
    endloop
  endfacet
  facet normal 0.207913 -0.978147 0
    outer loop
      vertex 10.5699 124.557 0
      vertex 12.8397 125.039 28
      vertex 10.5699 124.557 28
    endloop
  endfacet
  facet normal 0.207913 -0.978147 0
    outer loop
      vertex 12.8397 125.039 28
      vertex 10.5699 124.557 0
      vertex 12.8397 125.039 0
    endloop
  endfacet
  facet normal -0.994522 0.104527 0
    outer loop
      vertex 25 113.049 0
      vertex 25.1 114 28
      vertex 25.1 114 0
    endloop
  endfacet
  facet normal -0.994522 0.104527 0
    outer loop
      vertex 25.1 114 28
      vertex 25 113.049 0
      vertex 25 113.049 28
    endloop
  endfacet
  facet normal 0.994522 0.104529 0
    outer loop
      vertex 3 113.049 28
      vertex 2.9 114 0
      vertex 2.9 114 28
    endloop
  endfacet
  facet normal 0.994522 0.104529 0
    outer loop
      vertex 2.9 114 0
      vertex 3 113.049 28
      vertex 3 113.049 0
    endloop
  endfacet
endsolid OpenSCAD_Model
