solid OpenSCAD_Model
  facet normal -1 0 0
    outer loop
      vertex 0 101.5 0
      vertex 0 24.5 15
      vertex 0 101.5 15
    endloop
  endfacet
  facet normal -1 0 0
    outer loop
      vertex 0 0 0
      vertex 0 24.5 15
      vertex 0 101.5 0
    endloop
  endfacet
  facet normal -1 0 0
    outer loop
      vertex 0 0 20
      vertex 0 24.5 15
      vertex 0 0 0
    endloop
  endfacet
  facet normal -1 0 0
    outer loop
      vertex 0 24.5 15
      vertex 0 0 20
      vertex 0 24.5 20
    endloop
  endfacet
  facet normal 0 0 1
    outer loop
      vertex 43 24.5 20
      vertex 3 21.5 20
      vertex 43 21.5 20
    endloop
  endfacet
  facet normal 0 0 1
    outer loop
      vertex 3 21.5 20
      vertex 0 24.5 20
      vertex 3 3 20
    endloop
  endfacet
  facet normal -0 0 1
    outer loop
      vertex 0 24.5 20
      vertex 3 21.5 20
      vertex 43 24.5 20
    endloop
  endfacet
  facet normal -0 0 1
    outer loop
      vertex 3 3 20
      vertex 43 0 20
      vertex 43 3 20
    endloop
  endfacet
  facet normal 0 0 1
    outer loop
      vertex 3 3 20
      vertex 0 0 20
      vertex 43 0 20
    endloop
  endfacet
  facet normal 0 0 1
    outer loop
      vertex 0 0 20
      vertex 3 3 20
      vertex 0 24.5 20
    endloop
  endfacet
  facet normal 1 -0 0
    outer loop
      vertex 43 0 20
      vertex 43 3 0
      vertex 43 3 20
    endloop
  endfacet
  facet normal 1 0 0
    outer loop
      vertex 43 3 0
      vertex 43 0 20
      vertex 43 0 0
    endloop
  endfacet
  facet normal 1 -0 0
    outer loop
      vertex 43 21.5 20
      vertex 43 24.5 0
      vertex 43 24.5 20
    endloop
  endfacet
  facet normal 1 0 0
    outer loop
      vertex 43 24.5 0
      vertex 43 21.5 20
      vertex 43 21.5 0
    endloop
  endfacet
  facet normal 0 1 0
    outer loop
      vertex 43 24.5 20
      vertex 15 24.5 15
      vertex 0 24.5 20
    endloop
  endfacet
  facet normal 0 1 -0
    outer loop
      vertex 43 24.5 0
      vertex 15 24.5 15
      vertex 43 24.5 20
    endloop
  endfacet
  facet normal 0 1 0
    outer loop
      vertex 15 24.5 15
      vertex 43 24.5 0
      vertex 15 24.5 0
    endloop
  endfacet
  facet normal 0 1 0
    outer loop
      vertex 0 24.5 20
      vertex 15 24.5 15
      vertex 0 24.5 15
    endloop
  endfacet
  facet normal 0 0 -1
    outer loop
      vertex 43 0 0
      vertex 3 3 0
      vertex 43 3 0
    endloop
  endfacet
  facet normal 0 0 -1
    outer loop
      vertex 0 0 0
      vertex 3 21.5 0
      vertex 3 3 0
    endloop
  endfacet
  facet normal -0 0 -1
    outer loop
      vertex 3 21.5 0
      vertex 0 0 0
      vertex 3 27.5 0
    endloop
  endfacet
  facet normal 0 0 -1
    outer loop
      vertex 0 101.5 0
      vertex 3 27.5 0
      vertex 0 0 0
    endloop
  endfacet
  facet normal 0 0 -1
    outer loop
      vertex 0 0 0
      vertex 3 3 0
      vertex 43 0 0
    endloop
  endfacet
  facet normal 0 0 -1
    outer loop
      vertex 43 21.5 0
      vertex 15 24.5 0
      vertex 43 24.5 0
    endloop
  endfacet
  facet normal 0 0 -1
    outer loop
      vertex 12 97.5 0
      vertex 15 24.5 0
      vertex 12 27.5 0
    endloop
  endfacet
  facet normal 0 0 -1
    outer loop
      vertex 3 21.5 0
      vertex 15 24.5 0
      vertex 43 21.5 0
    endloop
  endfacet
  facet normal 0 0 -1
    outer loop
      vertex 3 21.5 0
      vertex 12 27.5 0
      vertex 15 24.5 0
    endloop
  endfacet
  facet normal -0 0 -1
    outer loop
      vertex 12 27.5 0
      vertex 3 21.5 0
      vertex 3 27.5 0
    endloop
  endfacet
  facet normal 0 0 -1
    outer loop
      vertex 15 24.5 0
      vertex 12 97.5 0
      vertex 15 101.5 0
    endloop
  endfacet
  facet normal 0 0 -1
    outer loop
      vertex 9.82907 97.8742 0
      vertex 12 97.5 0
      vertex 10.1606 97.5 0
    endloop
  endfacet
  facet normal 0 0 -1
    outer loop
      vertex 12 97.5 0
      vertex 9.82907 97.8742 0
      vertex 15 101.5 0
    endloop
  endfacet
  facet normal 0 0 -1
    outer loop
      vertex 7.9942 98.5701 0
      vertex 15 101.5 0
      vertex 9.82907 97.8742 0
    endloop
  endfacet
  facet normal 0 0 -1
    outer loop
      vertex 0 101.5 0
      vertex 7.9942 98.5701 0
      vertex 6.04612 98.3336 0
    endloop
  endfacet
  facet normal 0 0 -1
    outer loop
      vertex 3 97.5 0
      vertex 6.04612 98.3336 0
      vertex 4.83849 97.5 0
    endloop
  endfacet
  facet normal 0 0 -1
    outer loop
      vertex 0 101.5 0
      vertex 6.04612 98.3336 0
      vertex 3 97.5 0
    endloop
  endfacet
  facet normal 0 0 -1
    outer loop
      vertex 7.9942 98.5701 0
      vertex 0 101.5 0
      vertex 15 101.5 0
    endloop
  endfacet
  facet normal 0 0 -1
    outer loop
      vertex 3 27.5 0
      vertex 0 101.5 0
      vertex 3 97.5 0
    endloop
  endfacet
  facet normal 0 -1 0
    outer loop
      vertex 0 0 0
      vertex 43 0 20
      vertex 0 0 20
    endloop
  endfacet
  facet normal 0 -1 -0
    outer loop
      vertex 43 0 20
      vertex 0 0 0
      vertex 43 0 0
    endloop
  endfacet
  facet normal 1 -0 0
    outer loop
      vertex 3 3 20
      vertex 3 21.5 0
      vertex 3 21.5 20
    endloop
  endfacet
  facet normal 1 0 0
    outer loop
      vertex 3 21.5 0
      vertex 3 3 20
      vertex 3 3 0
    endloop
  endfacet
  facet normal 0 -1 0
    outer loop
      vertex 3 21.5 0
      vertex 43 21.5 20
      vertex 3 21.5 20
    endloop
  endfacet
  facet normal 0 -1 -0
    outer loop
      vertex 43 21.5 20
      vertex 3 21.5 0
      vertex 43 21.5 0
    endloop
  endfacet
  facet normal 0 1 -0
    outer loop
      vertex 43 3 0
      vertex 3 3 20
      vertex 43 3 20
    endloop
  endfacet
  facet normal 0 1 0
    outer loop
      vertex 3 3 20
      vertex 43 3 0
      vertex 3 3 0
    endloop
  endfacet
  facet normal 0 0 1
    outer loop
      vertex 15 101.5 15
      vertex 12 97.5 15
      vertex 15 24.5 15
    endloop
  endfacet
  facet normal -0 0 1
    outer loop
      vertex 9.82907 97.8742 15
      vertex 12 97.5 15
      vertex 15 101.5 15
    endloop
  endfacet
  facet normal 0 0 1
    outer loop
      vertex 12 97.5 15
      vertex 9.82907 97.8742 15
      vertex 10.1606 97.5 15
    endloop
  endfacet
  facet normal 0 0 1
    outer loop
      vertex 15 101.5 15
      vertex 7.9942 98.5701 15
      vertex 9.82907 97.8742 15
    endloop
  endfacet
  facet normal -0 0 1
    outer loop
      vertex 0 101.5 15
      vertex 7.9942 98.5701 15
      vertex 15 101.5 15
    endloop
  endfacet
  facet normal 0 0 1
    outer loop
      vertex 6.04612 98.3336 15
      vertex 3 97.5 15
      vertex 4.83849 97.5 15
    endloop
  endfacet
  facet normal 0 0 1
    outer loop
      vertex 7.9942 98.5701 15
      vertex 0 101.5 15
      vertex 6.04612 98.3336 15
    endloop
  endfacet
  facet normal 0 0 1
    outer loop
      vertex 0 24.5 15
      vertex 3 97.5 15
      vertex 0 101.5 15
    endloop
  endfacet
  facet normal 0 0 1
    outer loop
      vertex 6.04612 98.3336 15
      vertex 0 101.5 15
      vertex 3 97.5 15
    endloop
  endfacet
  facet normal -0 0 1
    outer loop
      vertex 12 27.5 15
      vertex 15 24.5 15
      vertex 12 97.5 15
    endloop
  endfacet
  facet normal -0 0 1
    outer loop
      vertex 3 27.5 15
      vertex 15 24.5 15
      vertex 12 27.5 15
    endloop
  endfacet
  facet normal 0 0 1
    outer loop
      vertex 3 27.5 15
      vertex 0 24.5 15
      vertex 15 24.5 15
    endloop
  endfacet
  facet normal 0 0 1
    outer loop
      vertex 3 97.5 15
      vertex 0 24.5 15
      vertex 3 27.5 15
    endloop
  endfacet
  facet normal 1 -0 0
    outer loop
      vertex 15 24.5 15
      vertex 15 101.5 0
      vertex 15 101.5 15
    endloop
  endfacet
  facet normal 1 0 0
    outer loop
      vertex 15 101.5 0
      vertex 15 24.5 15
      vertex 15 24.5 0
    endloop
  endfacet
  facet normal 0 1 -0
    outer loop
      vertex 15 101.5 0
      vertex 0 101.5 15
      vertex 15 101.5 15
    endloop
  endfacet
  facet normal 0 1 0
    outer loop
      vertex 0 101.5 15
      vertex 15 101.5 0
      vertex 0 101.5 0
    endloop
  endfacet
  facet normal 1 -0 0
    outer loop
      vertex 3 27.5 15
      vertex 3 97.5 0
      vertex 3 97.5 15
    endloop
  endfacet
  facet normal 1 0 0
    outer loop
      vertex 3 97.5 0
      vertex 3 27.5 15
      vertex 3 27.5 0
    endloop
  endfacet
  facet normal -1 0 0
    outer loop
      vertex 12 27.5 0
      vertex 12 97.5 15
      vertex 12 97.5 0
    endloop
  endfacet
  facet normal -1 -0 0
    outer loop
      vertex 12 97.5 15
      vertex 12 27.5 0
      vertex 12 27.5 15
    endloop
  endfacet
  facet normal 0 -1 0
    outer loop
      vertex 10.1606 97.5 0
      vertex 12 97.5 15
      vertex 10.1606 97.5 15
    endloop
  endfacet
  facet normal 0 -1 -0
    outer loop
      vertex 12 97.5 15
      vertex 10.1606 97.5 0
      vertex 12 97.5 0
    endloop
  endfacet
  facet normal 0 -1 0
    outer loop
      vertex 3 97.5 0
      vertex 4.83849 97.5 15
      vertex 3 97.5 15
    endloop
  endfacet
  facet normal 0 -1 -0
    outer loop
      vertex 4.83849 97.5 15
      vertex 3 97.5 0
      vertex 4.83849 97.5 0
    endloop
  endfacet
  facet normal 0 1 -0
    outer loop
      vertex 12 27.5 0
      vertex 3 27.5 15
      vertex 12 27.5 15
    endloop
  endfacet
  facet normal 0 1 0
    outer loop
      vertex 3 27.5 15
      vertex 12 27.5 0
      vertex 3 27.5 0
    endloop
  endfacet
  facet normal 0.120538 -0.992709 0
    outer loop
      vertex 6.04612 98.3336 0
      vertex 7.9942 98.5701 15
      vertex 6.04612 98.3336 15
    endloop
  endfacet
  facet normal 0.120538 -0.992709 0
    outer loop
      vertex 7.9942 98.5701 15
      vertex 6.04612 98.3336 0
      vertex 7.9942 98.5701 0
    endloop
  endfacet
  facet normal -0.748514 -0.663119 0
    outer loop
      vertex 10.1606 97.5 0
      vertex 9.82907 97.8742 15
      vertex 9.82907 97.8742 0
    endloop
  endfacet
  facet normal -0.748514 -0.663119 0
    outer loop
      vertex 9.82907 97.8742 15
      vertex 10.1606 97.5 0
      vertex 10.1606 97.5 15
    endloop
  endfacet
  facet normal 0.568064 -0.822984 0
    outer loop
      vertex 4.83849 97.5 0
      vertex 6.04612 98.3336 15
      vertex 4.83849 97.5 15
    endloop
  endfacet
  facet normal 0.568064 -0.822984 0
    outer loop
      vertex 6.04612 98.3336 15
      vertex 4.83849 97.5 0
      vertex 6.04612 98.3336 0
    endloop
  endfacet
  facet normal -0.354603 -0.935017 0
    outer loop
      vertex 7.9942 98.5701 0
      vertex 9.82907 97.8742 15
      vertex 7.9942 98.5701 15
    endloop
  endfacet
  facet normal -0.354603 -0.935017 -0
    outer loop
      vertex 9.82907 97.8742 15
      vertex 7.9942 98.5701 0
      vertex 9.82907 97.8742 0
    endloop
  endfacet
  facet normal 1 0 0
    outer loop
      vertex -10 24.5 20
      vertex -10 0 20
      vertex -10 24.5 15
    endloop
  endfacet
  facet normal 1 -0 0
    outer loop
      vertex -10 24.5 15
      vertex -10 101.5 0
      vertex -10 101.5 15
    endloop
  endfacet
  facet normal 1 0 0
    outer loop
      vertex -10 24.5 15
      vertex -10 0 0
      vertex -10 101.5 0
    endloop
  endfacet
  facet normal 1 0 0
    outer loop
      vertex -10 0 0
      vertex -10 24.5 15
      vertex -10 0 20
    endloop
  endfacet
  facet normal 0 0 1
    outer loop
      vertex -10 24.5 20
      vertex -13 21.5 20
      vertex -10 0 20
    endloop
  endfacet
  facet normal -0 0 1
    outer loop
      vertex -53 24.5 20
      vertex -13 21.5 20
      vertex -10 24.5 20
    endloop
  endfacet
  facet normal 0 0 1
    outer loop
      vertex -13 21.5 20
      vertex -53 24.5 20
      vertex -53 21.5 20
    endloop
  endfacet
  facet normal -0 0 1
    outer loop
      vertex -13 3 20
      vertex -10 0 20
      vertex -13 21.5 20
    endloop
  endfacet
  facet normal 0 0 1
    outer loop
      vertex -53 0 20
      vertex -13 3 20
      vertex -53 3 20
    endloop
  endfacet
  facet normal 0 0 1
    outer loop
      vertex -13 3 20
      vertex -53 0 20
      vertex -10 0 20
    endloop
  endfacet
  facet normal -1 0 0
    outer loop
      vertex -53 0 0
      vertex -53 3 20
      vertex -53 3 0
    endloop
  endfacet
  facet normal -1 -0 0
    outer loop
      vertex -53 3 20
      vertex -53 0 0
      vertex -53 0 20
    endloop
  endfacet
  facet normal -1 0 0
    outer loop
      vertex -53 21.5 0
      vertex -53 24.5 20
      vertex -53 24.5 0
    endloop
  endfacet
  facet normal -1 -0 0
    outer loop
      vertex -53 24.5 20
      vertex -53 21.5 0
      vertex -53 21.5 20
    endloop
  endfacet
  facet normal 0 1 0
    outer loop
      vertex -25 24.5 15
      vertex -10 24.5 20
      vertex -10 24.5 15
    endloop
  endfacet
  facet normal 0 1 0
    outer loop
      vertex -10 24.5 20
      vertex -25 24.5 15
      vertex -53 24.5 20
    endloop
  endfacet
  facet normal 0 1 0
    outer loop
      vertex -53 24.5 0
      vertex -25 24.5 15
      vertex -25 24.5 0
    endloop
  endfacet
  facet normal 0 1 0
    outer loop
      vertex -25 24.5 15
      vertex -53 24.5 0
      vertex -53 24.5 20
    endloop
  endfacet
  facet normal 0 0 -1
    outer loop
      vertex -13 21.5 0
      vertex -22 27.5 0
      vertex -13 27.5 0
    endloop
  endfacet
  facet normal -0 0 -1
    outer loop
      vertex -22 27.5 0
      vertex -25 24.5 0
      vertex -22 97.5 0
    endloop
  endfacet
  facet normal 0 0 -1
    outer loop
      vertex -13 21.5 0
      vertex -25 24.5 0
      vertex -22 27.5 0
    endloop
  endfacet
  facet normal 0 0 -1
    outer loop
      vertex -53 21.5 0
      vertex -25 24.5 0
      vertex -13 21.5 0
    endloop
  endfacet
  facet normal -0 0 -1
    outer loop
      vertex -25 24.5 0
      vertex -53 21.5 0
      vertex -53 24.5 0
    endloop
  endfacet
  facet normal 0 0 -1
    outer loop
      vertex -13 21.5 0
      vertex -10 0 0
      vertex -13 3 0
    endloop
  endfacet
  facet normal 0 0 -1
    outer loop
      vertex -53 0 0
      vertex -13 3 0
      vertex -10 0 0
    endloop
  endfacet
  facet normal -0 0 -1
    outer loop
      vertex -13 3 0
      vertex -53 0 0
      vertex -53 3 0
    endloop
  endfacet
  facet normal 0 0 -1
    outer loop
      vertex -13 27.5 0
      vertex -10 0 0
      vertex -13 21.5 0
    endloop
  endfacet
  facet normal 0 0 -1
    outer loop
      vertex -10 0 0
      vertex -13 27.5 0
      vertex -10 101.5 0
    endloop
  endfacet
  facet normal 0 0 -1
    outer loop
      vertex -13 97.5 0
      vertex -10 101.5 0
      vertex -13 27.5 0
    endloop
  endfacet
  facet normal 0 0 -1
    outer loop
      vertex -16.0461 98.3336 0
      vertex -13 97.5 0
      vertex -14.8385 97.5 0
    endloop
  endfacet
  facet normal 0 0 -1
    outer loop
      vertex -13 97.5 0
      vertex -16.0461 98.3336 0
      vertex -10 101.5 0
    endloop
  endfacet
  facet normal 0 0 -1
    outer loop
      vertex -17.9942 98.5701 0
      vertex -10 101.5 0
      vertex -16.0461 98.3336 0
    endloop
  endfacet
  facet normal 0 0 -1
    outer loop
      vertex -22 97.5 0
      vertex -19.8291 97.8742 0
      vertex -20.1606 97.5 0
    endloop
  endfacet
  facet normal 0 0 -1
    outer loop
      vertex -25 101.5 0
      vertex -19.8291 97.8742 0
      vertex -22 97.5 0
    endloop
  endfacet
  facet normal 0 0 -1
    outer loop
      vertex -19.8291 97.8742 0
      vertex -25 101.5 0
      vertex -17.9942 98.5701 0
    endloop
  endfacet
  facet normal 0 0 -1
    outer loop
      vertex -17.9942 98.5701 0
      vertex -25 101.5 0
      vertex -10 101.5 0
    endloop
  endfacet
  facet normal 0 0 -1
    outer loop
      vertex -25 101.5 0
      vertex -22 97.5 0
      vertex -25 24.5 0
    endloop
  endfacet
  facet normal 0 -1 0
    outer loop
      vertex -53 0 0
      vertex -10 0 20
      vertex -53 0 20
    endloop
  endfacet
  facet normal 0 -1 -0
    outer loop
      vertex -10 0 20
      vertex -53 0 0
      vertex -10 0 0
    endloop
  endfacet
  facet normal -1 0 0
    outer loop
      vertex -13 3 0
      vertex -13 21.5 20
      vertex -13 21.5 0
    endloop
  endfacet
  facet normal -1 -0 0
    outer loop
      vertex -13 21.5 20
      vertex -13 3 0
      vertex -13 3 20
    endloop
  endfacet
  facet normal 0 -1 0
    outer loop
      vertex -53 21.5 0
      vertex -13 21.5 20
      vertex -53 21.5 20
    endloop
  endfacet
  facet normal 0 -1 -0
    outer loop
      vertex -13 21.5 20
      vertex -53 21.5 0
      vertex -13 21.5 0
    endloop
  endfacet
  facet normal 0 1 -0
    outer loop
      vertex -13 3 0
      vertex -53 3 20
      vertex -13 3 20
    endloop
  endfacet
  facet normal 0 1 0
    outer loop
      vertex -53 3 20
      vertex -13 3 0
      vertex -53 3 0
    endloop
  endfacet
  facet normal 0 0 1
    outer loop
      vertex -10 101.5 15
      vertex -13 97.5 15
      vertex -10 24.5 15
    endloop
  endfacet
  facet normal -0 0 1
    outer loop
      vertex -16.0461 98.3336 15
      vertex -13 97.5 15
      vertex -10 101.5 15
    endloop
  endfacet
  facet normal 0 0 1
    outer loop
      vertex -13 97.5 15
      vertex -16.0461 98.3336 15
      vertex -14.8385 97.5 15
    endloop
  endfacet
  facet normal 0 0 1
    outer loop
      vertex -10 101.5 15
      vertex -17.9942 98.5701 15
      vertex -16.0461 98.3336 15
    endloop
  endfacet
  facet normal 0 0 1
    outer loop
      vertex -19.8291 97.8742 15
      vertex -22 97.5 15
      vertex -20.1606 97.5 15
    endloop
  endfacet
  facet normal 0 0 1
    outer loop
      vertex -25 101.5 15
      vertex -19.8291 97.8742 15
      vertex -17.9942 98.5701 15
    endloop
  endfacet
  facet normal -0 0 1
    outer loop
      vertex -25 101.5 15
      vertex -17.9942 98.5701 15
      vertex -10 101.5 15
    endloop
  endfacet
  facet normal 0 0 1
    outer loop
      vertex -25 24.5 15
      vertex -22 97.5 15
      vertex -25 101.5 15
    endloop
  endfacet
  facet normal 0 0 1
    outer loop
      vertex -19.8291 97.8742 15
      vertex -25 101.5 15
      vertex -22 97.5 15
    endloop
  endfacet
  facet normal -0 0 1
    outer loop
      vertex -13 27.5 15
      vertex -10 24.5 15
      vertex -13 97.5 15
    endloop
  endfacet
  facet normal -0 0 1
    outer loop
      vertex -22 27.5 15
      vertex -10 24.5 15
      vertex -13 27.5 15
    endloop
  endfacet
  facet normal 0 0 1
    outer loop
      vertex -22 27.5 15
      vertex -25 24.5 15
      vertex -10 24.5 15
    endloop
  endfacet
  facet normal 0 0 1
    outer loop
      vertex -22 97.5 15
      vertex -25 24.5 15
      vertex -22 27.5 15
    endloop
  endfacet
  facet normal -1 0 0
    outer loop
      vertex -25 24.5 0
      vertex -25 101.5 15
      vertex -25 101.5 0
    endloop
  endfacet
  facet normal -1 -0 0
    outer loop
      vertex -25 101.5 15
      vertex -25 24.5 0
      vertex -25 24.5 15
    endloop
  endfacet
  facet normal 0 1 -0
    outer loop
      vertex -10 101.5 0
      vertex -25 101.5 15
      vertex -10 101.5 15
    endloop
  endfacet
  facet normal 0 1 0
    outer loop
      vertex -25 101.5 15
      vertex -10 101.5 0
      vertex -25 101.5 0
    endloop
  endfacet
  facet normal -1 0 0
    outer loop
      vertex -13 27.5 0
      vertex -13 97.5 15
      vertex -13 97.5 0
    endloop
  endfacet
  facet normal -1 -0 0
    outer loop
      vertex -13 97.5 15
      vertex -13 27.5 0
      vertex -13 27.5 15
    endloop
  endfacet
  facet normal 1 -0 0
    outer loop
      vertex -22 27.5 15
      vertex -22 97.5 0
      vertex -22 97.5 15
    endloop
  endfacet
  facet normal 1 0 0
    outer loop
      vertex -22 97.5 0
      vertex -22 27.5 15
      vertex -22 27.5 0
    endloop
  endfacet
  facet normal 0 -1 0
    outer loop
      vertex -22 97.5 0
      vertex -20.1606 97.5 15
      vertex -22 97.5 15
    endloop
  endfacet
  facet normal 0 -1 -0
    outer loop
      vertex -20.1606 97.5 15
      vertex -22 97.5 0
      vertex -20.1606 97.5 0
    endloop
  endfacet
  facet normal 0 -1 0
    outer loop
      vertex -14.8385 97.5 0
      vertex -13 97.5 15
      vertex -14.8385 97.5 15
    endloop
  endfacet
  facet normal 0 -1 -0
    outer loop
      vertex -13 97.5 15
      vertex -14.8385 97.5 0
      vertex -13 97.5 0
    endloop
  endfacet
  facet normal 0 1 -0
    outer loop
      vertex -13 27.5 0
      vertex -22 27.5 15
      vertex -13 27.5 15
    endloop
  endfacet
  facet normal 0 1 0
    outer loop
      vertex -22 27.5 15
      vertex -13 27.5 0
      vertex -22 27.5 0
    endloop
  endfacet
  facet normal -0.120538 -0.992709 0
    outer loop
      vertex -17.9942 98.5701 0
      vertex -16.0461 98.3336 15
      vertex -17.9942 98.5701 15
    endloop
  endfacet
  facet normal -0.120538 -0.992709 -0
    outer loop
      vertex -16.0461 98.3336 15
      vertex -17.9942 98.5701 0
      vertex -16.0461 98.3336 0
    endloop
  endfacet
  facet normal 0.748515 -0.663118 0
    outer loop
      vertex -20.1606 97.5 15
      vertex -19.8291 97.8742 0
      vertex -19.8291 97.8742 15
    endloop
  endfacet
  facet normal 0.748515 -0.663118 0
    outer loop
      vertex -19.8291 97.8742 0
      vertex -20.1606 97.5 15
      vertex -20.1606 97.5 0
    endloop
  endfacet
  facet normal -0.568064 -0.822984 0
    outer loop
      vertex -16.0461 98.3336 0
      vertex -14.8385 97.5 15
      vertex -16.0461 98.3336 15
    endloop
  endfacet
  facet normal -0.568064 -0.822984 -0
    outer loop
      vertex -14.8385 97.5 15
      vertex -16.0461 98.3336 0
      vertex -14.8385 97.5 0
    endloop
  endfacet
  facet normal 0.354603 -0.935017 0
    outer loop
      vertex -19.8291 97.8742 0
      vertex -17.9942 98.5701 15
      vertex -19.8291 97.8742 15
    endloop
  endfacet
  facet normal 0.354603 -0.935017 0
    outer loop
      vertex -17.9942 98.5701 15
      vertex -19.8291 97.8742 0
      vertex -17.9942 98.5701 0
    endloop
  endfacet
endsolid OpenSCAD_Model
