solid OpenSCAD_Model
  facet normal -0.987688 0.156435 0
    outer loop
      vertex -11.2 -28 0
      vertex -10.8966 -26.0841 5.5
      vertex -10.8966 -26.0841 0
    endloop
  endfacet
  facet normal -0.987688 0.156435 0
    outer loop
      vertex -10.8966 -26.0841 5.5
      vertex -11.2 -28 0
      vertex -11.2 -28 5.5
    endloop
  endfacet
  facet normal -0.453991 0.891006 0
    outer loop
      vertex -6.9159 -22.1035 0
      vertex -8.64427 -22.9841 5.5
      vertex -6.9159 -22.1035 5.5
    endloop
  endfacet
  facet normal -0.453991 0.891006 0
    outer loop
      vertex -8.64427 -22.9841 5.5
      vertex -6.9159 -22.1035 0
      vertex -8.64427 -22.9841 0
    endloop
  endfacet
  facet normal 0 0 1
    outer loop
      vertex 2.96746 -28.5 5.5
      vertex -2.96746 -28.5 5.5
      vertex 2.96746 -28.8419 5.5
    endloop
  endfacet
  facet normal -0 0 1
    outer loop
      vertex -3 -32.5 5.5
      vertex 3 -33.5 5.5
      vertex 3 -32.5 5.5
    endloop
  endfacet
  facet normal 0 0 1
    outer loop
      vertex 3 -33.5 5.5
      vertex -3 -32.5 5.5
      vertex -3 -33.5 5.5
    endloop
  endfacet
  facet normal -0 0 1
    outer loop
      vertex -3 -30.5 5.5
      vertex 3 -31.5 5.5
      vertex 3 -30.5 5.5
    endloop
  endfacet
  facet normal 0 0 1
    outer loop
      vertex 3 -31.5 5.5
      vertex -3 -30.5 5.5
      vertex -3 -31.5 5.5
    endloop
  endfacet
  facet normal 0 0 1
    outer loop
      vertex 2.96746 -28.8419 5.5
      vertex 3 -29.5 5.5
      vertex 4.1581 -30.0325 5.5
    endloop
  endfacet
  facet normal 0 0 1
    outer loop
      vertex -2.96746 -28.8419 5.5
      vertex 2.96746 -28.8419 5.5
      vertex -2.96746 -28.5 5.5
    endloop
  endfacet
  facet normal 0 0 1
    outer loop
      vertex 2.96746 -28.8419 5.5
      vertex -2.96746 -28.8419 5.5
      vertex 3 -29.5 5.5
    endloop
  endfacet
  facet normal 0 0 1
    outer loop
      vertex -2.96746 -28.8419 5.5
      vertex -3 -29.5 5.5
      vertex 3 -29.5 5.5
    endloop
  endfacet
  facet normal -0 0 1
    outer loop
      vertex -4.1581 -30.0325 5.5
      vertex -3 -30.5 5.5
      vertex -3 -29.5 5.5
    endloop
  endfacet
  facet normal 0 0 1
    outer loop
      vertex -3 -30.5 5.5
      vertex -4.1581 -30.0325 5.5
      vertex -3 -31.5 5.5
    endloop
  endfacet
  facet normal -0 0 1
    outer loop
      vertex -5.8419 -30.0325 5.5
      vertex -3 -31.5 5.5
      vertex -4.1581 -30.0325 5.5
    endloop
  endfacet
  facet normal 0 0 1
    outer loop
      vertex -3 -31.5 5.5
      vertex -5.8419 -30.0325 5.5
      vertex -3 -32.5 5.5
    endloop
  endfacet
  facet normal 0 0 1
    outer loop
      vertex -4.1581 -30.0325 5.5
      vertex -3 -29.5 5.5
      vertex -2.96746 -28.8419 5.5
    endloop
  endfacet
  facet normal 0 0 1
    outer loop
      vertex -3 -32.5 5.5
      vertex -5 -34.2 5.5
      vertex -3 -33.5 5.5
    endloop
  endfacet
  facet normal 0 0 1
    outer loop
      vertex -3 -33.5 5.5
      vertex -5 -34.2 5.5
      vertex -3 -34.2 5.5
    endloop
  endfacet
  facet normal 0 0 1
    outer loop
      vertex -3 -32.5 5.5
      vertex -5.8419 -30.0325 5.5
      vertex -5 -34.2 5.5
    endloop
  endfacet
  facet normal 0 0 1
    outer loop
      vertex -5.8419 -30.0325 5.5
      vertex -6.9159 -33.8965 5.5
      vertex -5 -34.2 5.5
    endloop
  endfacet
  facet normal 0 0 1
    outer loop
      vertex -8.64427 -33.0159 5.5
      vertex -5.8419 -30.0325 5.5
      vertex -7.03253 -28.8419 5.5
    endloop
  endfacet
  facet normal -0 0 1
    outer loop
      vertex -10.8966 -26.0841 5.5
      vertex -7.03253 -27.1581 5.5
      vertex -10.0159 -24.3557 5.5
    endloop
  endfacet
  facet normal 0 0 1
    outer loop
      vertex -5.8419 -30.0325 5.5
      vertex -8.64427 -33.0159 5.5
      vertex -6.9159 -33.8965 5.5
    endloop
  endfacet
  facet normal 0 0 1
    outer loop
      vertex -11.2 -28 5.5
      vertex -7.03253 -27.1581 5.5
      vertex -10.8966 -26.0841 5.5
    endloop
  endfacet
  facet normal 0 0 1
    outer loop
      vertex -7.03253 -28.8419 5.5
      vertex -10.0159 -31.6443 5.5
      vertex -8.64427 -33.0159 5.5
    endloop
  endfacet
  facet normal 0 0 1
    outer loop
      vertex -7.03253 -27.1581 5.5
      vertex -11.2 -28 5.5
      vertex -7.03253 -28.8419 5.5
    endloop
  endfacet
  facet normal 0 0 1
    outer loop
      vertex -7.03253 -28.8419 5.5
      vertex -10.8966 -29.9159 5.5
      vertex -10.0159 -31.6443 5.5
    endloop
  endfacet
  facet normal 0 0 1
    outer loop
      vertex -7.03253 -28.8419 5.5
      vertex -11.2 -28 5.5
      vertex -10.8966 -29.9159 5.5
    endloop
  endfacet
  facet normal -0 0 1
    outer loop
      vertex -3 -24.5 5.5
      vertex 3 -25.5 5.5
      vertex 3 -24.5 5.5
    endloop
  endfacet
  facet normal 0 0 1
    outer loop
      vertex 3 -25.5 5.5
      vertex -3 -24.5 5.5
      vertex -3 -25.5 5.5
    endloop
  endfacet
  facet normal -0 0 1
    outer loop
      vertex -3 -22.5 5.5
      vertex 3 -23.5 5.5
      vertex 3 -22.5 5.5
    endloop
  endfacet
  facet normal 0 0 1
    outer loop
      vertex 3 -23.5 5.5
      vertex -3 -22.5 5.5
      vertex -3 -23.5 5.5
    endloop
  endfacet
  facet normal -0 0 1
    outer loop
      vertex 7.03253 -27.1581 5.5
      vertex 11.2 -28 5.5
      vertex 10.8966 -26.0841 5.5
    endloop
  endfacet
  facet normal 0 0 1
    outer loop
      vertex 7.03253 -27.1581 5.5
      vertex 10.8966 -26.0841 5.5
      vertex 10.0159 -24.3557 5.5
    endloop
  endfacet
  facet normal 0 0 1
    outer loop
      vertex 7.03253 -28.8419 5.5
      vertex 11.2 -28 5.5
      vertex 7.03253 -27.1581 5.5
    endloop
  endfacet
  facet normal 0 0 1
    outer loop
      vertex 7.03253 -27.1581 5.5
      vertex 10.0159 -24.3557 5.5
      vertex 8.64427 -22.9841 5.5
    endloop
  endfacet
  facet normal 0 0 1
    outer loop
      vertex 11.2 -28 5.5
      vertex 7.03253 -28.8419 5.5
      vertex 10.8966 -29.9159 5.5
    endloop
  endfacet
  facet normal 0 0 1
    outer loop
      vertex 10.8966 -29.9159 5.5
      vertex 7.03253 -28.8419 5.5
      vertex 10.0159 -31.6443 5.5
    endloop
  endfacet
  facet normal 0 0 1
    outer loop
      vertex 5.8419 -25.9675 5.5
      vertex 8.64427 -22.9841 5.5
      vertex 6.9159 -22.1035 5.5
    endloop
  endfacet
  facet normal 0 0 1
    outer loop
      vertex 8.64427 -22.9841 5.5
      vertex 5.8419 -25.9675 5.5
      vertex 7.03253 -27.1581 5.5
    endloop
  endfacet
  facet normal 0 0 1
    outer loop
      vertex 5 -21.8 5.5
      vertex 5.8419 -25.9675 5.5
      vertex 6.9159 -22.1035 5.5
    endloop
  endfacet
  facet normal -0 0 1
    outer loop
      vertex 3 -23.5 5.5
      vertex 5.8419 -25.9675 5.5
      vertex 5 -21.8 5.5
    endloop
  endfacet
  facet normal 0 0 1
    outer loop
      vertex 3 -22.5 5.5
      vertex 5 -21.8 5.5
      vertex 3 -21.8 5.5
    endloop
  endfacet
  facet normal 0 0 1
    outer loop
      vertex 3 -23.5 5.5
      vertex 5 -21.8 5.5
      vertex 3 -22.5 5.5
    endloop
  endfacet
  facet normal -0 0 1
    outer loop
      vertex 3 -24.5 5.5
      vertex 5.8419 -25.9675 5.5
      vertex 3 -23.5 5.5
    endloop
  endfacet
  facet normal 0 0 1
    outer loop
      vertex 5.8419 -25.9675 5.5
      vertex 3 -24.5 5.5
      vertex 4.1581 -25.9675 5.5
    endloop
  endfacet
  facet normal -0 0 1
    outer loop
      vertex 3 -25.5 5.5
      vertex 4.1581 -25.9675 5.5
      vertex 3 -24.5 5.5
    endloop
  endfacet
  facet normal 0 0 1
    outer loop
      vertex 3 -26.5 5.5
      vertex 4.1581 -25.9675 5.5
      vertex 3 -25.5 5.5
    endloop
  endfacet
  facet normal -0 0 1
    outer loop
      vertex 3 -26.5 5.5
      vertex 2.96746 -27.1581 5.5
      vertex 4.1581 -25.9675 5.5
    endloop
  endfacet
  facet normal 0 0 1
    outer loop
      vertex 2.96746 -27.1581 5.5
      vertex -2.96746 -27.1581 5.5
      vertex 2.96746 -27.5 5.5
    endloop
  endfacet
  facet normal 0 0 1
    outer loop
      vertex 3 -26.5 5.5
      vertex -2.96746 -27.1581 5.5
      vertex 2.96746 -27.1581 5.5
    endloop
  endfacet
  facet normal -0 0 1
    outer loop
      vertex -3 -26.5 5.5
      vertex -2.96746 -27.1581 5.5
      vertex 3 -26.5 5.5
    endloop
  endfacet
  facet normal 0 0 1
    outer loop
      vertex -2.96746 -27.1581 5.5
      vertex -3 -26.5 5.5
      vertex -4.1581 -25.9675 5.5
    endloop
  endfacet
  facet normal 0 0 1
    outer loop
      vertex 10.0159 -31.6443 5.5
      vertex 7.03253 -28.8419 5.5
      vertex 8.64427 -33.0159 5.5
    endloop
  endfacet
  facet normal -0 0 1
    outer loop
      vertex 5.8419 -30.0325 5.5
      vertex 8.64427 -33.0159 5.5
      vertex 7.03253 -28.8419 5.5
    endloop
  endfacet
  facet normal 0 0 1
    outer loop
      vertex 8.64427 -33.0159 5.5
      vertex 5.8419 -30.0325 5.5
      vertex 6.9159 -33.8965 5.5
    endloop
  endfacet
  facet normal 0 0 1
    outer loop
      vertex 5.8419 -30.0325 5.5
      vertex 5 -34.2 5.5
      vertex 6.9159 -33.8965 5.5
    endloop
  endfacet
  facet normal 0 0 1
    outer loop
      vertex 3 -31.5 5.5
      vertex 5.8419 -30.0325 5.5
      vertex 4.1581 -30.0325 5.5
    endloop
  endfacet
  facet normal 0 0 1
    outer loop
      vertex 3 -30.5 5.5
      vertex 4.1581 -30.0325 5.5
      vertex 3 -29.5 5.5
    endloop
  endfacet
  facet normal 0 0 1
    outer loop
      vertex 3 -31.5 5.5
      vertex 4.1581 -30.0325 5.5
      vertex 3 -30.5 5.5
    endloop
  endfacet
  facet normal 0 0 1
    outer loop
      vertex 3 -32.5 5.5
      vertex 5.8419 -30.0325 5.5
      vertex 3 -31.5 5.5
    endloop
  endfacet
  facet normal 0 0 1
    outer loop
      vertex 5.8419 -30.0325 5.5
      vertex 3 -32.5 5.5
      vertex 5 -34.2 5.5
    endloop
  endfacet
  facet normal -0 0 1
    outer loop
      vertex 3 -33.5 5.5
      vertex 5 -34.2 5.5
      vertex 3 -32.5 5.5
    endloop
  endfacet
  facet normal 0 0 1
    outer loop
      vertex 5 -34.2 5.5
      vertex 3 -33.5 5.5
      vertex 3 -34.2 5.5
    endloop
  endfacet
  facet normal -0 0 1
    outer loop
      vertex -5 -21.8 5.5
      vertex -3 -22.5 5.5
      vertex -3 -21.8 5.5
    endloop
  endfacet
  facet normal 0 0 1
    outer loop
      vertex -3 -22.5 5.5
      vertex -5 -21.8 5.5
      vertex -3 -23.5 5.5
    endloop
  endfacet
  facet normal 0 0 1
    outer loop
      vertex -5.8419 -25.9675 5.5
      vertex -3 -23.5 5.5
      vertex -5 -21.8 5.5
    endloop
  endfacet
  facet normal 0 0 1
    outer loop
      vertex -3 -23.5 5.5
      vertex -5.8419 -25.9675 5.5
      vertex -3 -24.5 5.5
    endloop
  endfacet
  facet normal 0 0 1
    outer loop
      vertex -3 -25.5 5.5
      vertex -4.1581 -25.9675 5.5
      vertex -3 -26.5 5.5
    endloop
  endfacet
  facet normal 0 0 1
    outer loop
      vertex -3 -24.5 5.5
      vertex -4.1581 -25.9675 5.5
      vertex -3 -25.5 5.5
    endloop
  endfacet
  facet normal 0 0 1
    outer loop
      vertex -3 -24.5 5.5
      vertex -5.8419 -25.9675 5.5
      vertex -4.1581 -25.9675 5.5
    endloop
  endfacet
  facet normal -0 0 1
    outer loop
      vertex -6.9159 -22.1035 5.5
      vertex -5.8419 -25.9675 5.5
      vertex -5 -21.8 5.5
    endloop
  endfacet
  facet normal -0 0 1
    outer loop
      vertex -8.64427 -22.9841 5.5
      vertex -5.8419 -25.9675 5.5
      vertex -6.9159 -22.1035 5.5
    endloop
  endfacet
  facet normal -0 0 1
    outer loop
      vertex -10.0159 -24.3557 5.5
      vertex -7.03253 -27.1581 5.5
      vertex -8.64427 -22.9841 5.5
    endloop
  endfacet
  facet normal 0 0 1
    outer loop
      vertex -5.8419 -25.9675 5.5
      vertex -8.64427 -22.9841 5.5
      vertex -7.03253 -27.1581 5.5
    endloop
  endfacet
  facet normal 0 0 1
    outer loop
      vertex 2.96746 -27.5 5.5
      vertex -2.96746 -27.1581 5.5
      vertex -2.96746 -27.5 5.5
    endloop
  endfacet
  facet normal -0.156435 0.987688 0
    outer loop
      vertex -5 -21.8 0
      vertex -6.9159 -22.1035 5.5
      vertex -5 -21.8 5.5
    endloop
  endfacet
  facet normal -0.156435 0.987688 0
    outer loop
      vertex -6.9159 -22.1035 5.5
      vertex -5 -21.8 0
      vertex -6.9159 -22.1035 0
    endloop
  endfacet
  facet normal 0 0 -1
    outer loop
      vertex 7.03253 -28.8419 0
      vertex 11.2 -28 0
      vertex 10.8966 -29.9159 0
    endloop
  endfacet
  facet normal 0 0 -1
    outer loop
      vertex 7.03253 -28.8419 0
      vertex 10.8966 -29.9159 0
      vertex 10.0159 -31.6443 0
    endloop
  endfacet
  facet normal 0 0 -1
    outer loop
      vertex 7.03253 -27.1581 0
      vertex 11.2 -28 0
      vertex 7.03253 -28.8419 0
    endloop
  endfacet
  facet normal 0 0 -1
    outer loop
      vertex 7.03253 -28.8419 0
      vertex 10.0159 -31.6443 0
      vertex 8.64427 -33.0159 0
    endloop
  endfacet
  facet normal 0 0 -1
    outer loop
      vertex 11.2 -28 0
      vertex 7.03253 -27.1581 0
      vertex 10.8966 -26.0841 0
    endloop
  endfacet
  facet normal -0 0 -1
    outer loop
      vertex 10.8966 -26.0841 0
      vertex 7.03253 -27.1581 0
      vertex 10.0159 -24.3557 0
    endloop
  endfacet
  facet normal 0 0 -1
    outer loop
      vertex 5.8419 -30.0325 0
      vertex 8.64427 -33.0159 0
      vertex 6.9159 -33.8965 0
    endloop
  endfacet
  facet normal 0 0 -1
    outer loop
      vertex 8.64427 -33.0159 0
      vertex 5.8419 -30.0325 0
      vertex 7.03253 -28.8419 0
    endloop
  endfacet
  facet normal 0 0 -1
    outer loop
      vertex 5 -34.2 0
      vertex 5.8419 -30.0325 0
      vertex 6.9159 -33.8965 0
    endloop
  endfacet
  facet normal 0 0 -1
    outer loop
      vertex 5 -34.2 0
      vertex 4.1581 -30.0325 0
      vertex 5.8419 -30.0325 0
    endloop
  endfacet
  facet normal 0 0 -1
    outer loop
      vertex 5 -34.2 0
      vertex 2.96746 -28.8419 0
      vertex 4.1581 -30.0325 0
    endloop
  endfacet
  facet normal 0 0 -1
    outer loop
      vertex 2.96746 -28.8419 0
      vertex -2.96746 -28.8419 0
      vertex 2.96746 -27.1581 0
    endloop
  endfacet
  facet normal 0 0 -1
    outer loop
      vertex 5 -34.2 0
      vertex -2.96746 -28.8419 0
      vertex 2.96746 -28.8419 0
    endloop
  endfacet
  facet normal 0 0 -1
    outer loop
      vertex 5 -34.2 0
      vertex -4.1581 -30.0325 0
      vertex -2.96746 -28.8419 0
    endloop
  endfacet
  facet normal 0 0 -1
    outer loop
      vertex -5 -34.2 0
      vertex -4.1581 -30.0325 0
      vertex 5 -34.2 0
    endloop
  endfacet
  facet normal 0 0 -1
    outer loop
      vertex -5 -34.2 0
      vertex -5.8419 -30.0325 0
      vertex -4.1581 -30.0325 0
    endloop
  endfacet
  facet normal 0 0 -1
    outer loop
      vertex -6.9159 -33.8965 0
      vertex -5.8419 -30.0325 0
      vertex -5 -34.2 0
    endloop
  endfacet
  facet normal 0 0 -1
    outer loop
      vertex -8.64427 -33.0159 0
      vertex -5.8419 -30.0325 0
      vertex -6.9159 -33.8965 0
    endloop
  endfacet
  facet normal 0 0 -1
    outer loop
      vertex -10.0159 -31.6443 0
      vertex -7.03253 -28.8419 0
      vertex -8.64427 -33.0159 0
    endloop
  endfacet
  facet normal -0 0 -1
    outer loop
      vertex -5.8419 -30.0325 0
      vertex -8.64427 -33.0159 0
      vertex -7.03253 -28.8419 0
    endloop
  endfacet
  facet normal -0 0 -1
    outer loop
      vertex 10.0159 -24.3557 0
      vertex 7.03253 -27.1581 0
      vertex 8.64427 -22.9841 0
    endloop
  endfacet
  facet normal 0 0 -1
    outer loop
      vertex 5.8419 -25.9675 0
      vertex 8.64427 -22.9841 0
      vertex 7.03253 -27.1581 0
    endloop
  endfacet
  facet normal -0 0 -1
    outer loop
      vertex 8.64427 -22.9841 0
      vertex 5.8419 -25.9675 0
      vertex 6.9159 -22.1035 0
    endloop
  endfacet
  facet normal 0 0 -1
    outer loop
      vertex 5.8419 -25.9675 0
      vertex 5 -21.8 0
      vertex 6.9159 -22.1035 0
    endloop
  endfacet
  facet normal 0 0 -1
    outer loop
      vertex 4.1581 -25.9675 0
      vertex 5 -21.8 0
      vertex 5.8419 -25.9675 0
    endloop
  endfacet
  facet normal 0 0 -1
    outer loop
      vertex 2.96746 -27.1581 0
      vertex 5 -21.8 0
      vertex 4.1581 -25.9675 0
    endloop
  endfacet
  facet normal 0 0 -1
    outer loop
      vertex -2.96746 -27.1581 0
      vertex 2.96746 -27.1581 0
      vertex -2.96746 -28.8419 0
    endloop
  endfacet
  facet normal 0 0 -1
    outer loop
      vertex 2.96746 -27.1581 0
      vertex -2.96746 -27.1581 0
      vertex 5 -21.8 0
    endloop
  endfacet
  facet normal 0 0 -1
    outer loop
      vertex -4.1581 -25.9675 0
      vertex 5 -21.8 0
      vertex -2.96746 -27.1581 0
    endloop
  endfacet
  facet normal 0 0 -1
    outer loop
      vertex -4.1581 -25.9675 0
      vertex -5 -21.8 0
      vertex 5 -21.8 0
    endloop
  endfacet
  facet normal 0 0 -1
    outer loop
      vertex -5.8419 -25.9675 0
      vertex -5 -21.8 0
      vertex -4.1581 -25.9675 0
    endloop
  endfacet
  facet normal 0 0 -1
    outer loop
      vertex -5.8419 -25.9675 0
      vertex -6.9159 -22.1035 0
      vertex -5 -21.8 0
    endloop
  endfacet
  facet normal 0 0 -1
    outer loop
      vertex -8.64427 -22.9841 0
      vertex -5.8419 -25.9675 0
      vertex -7.03253 -27.1581 0
    endloop
  endfacet
  facet normal 0 0 -1
    outer loop
      vertex -10.8966 -29.9159 0
      vertex -7.03253 -28.8419 0
      vertex -10.0159 -31.6443 0
    endloop
  endfacet
  facet normal 0 0 -1
    outer loop
      vertex -5.8419 -25.9675 0
      vertex -8.64427 -22.9841 0
      vertex -6.9159 -22.1035 0
    endloop
  endfacet
  facet normal 0 0 -1
    outer loop
      vertex -11.2 -28 0
      vertex -7.03253 -28.8419 0
      vertex -10.8966 -29.9159 0
    endloop
  endfacet
  facet normal 0 0 -1
    outer loop
      vertex -7.03253 -27.1581 0
      vertex -10.0159 -24.3557 0
      vertex -8.64427 -22.9841 0
    endloop
  endfacet
  facet normal 0 0 -1
    outer loop
      vertex -7.03253 -28.8419 0
      vertex -11.2 -28 0
      vertex -7.03253 -27.1581 0
    endloop
  endfacet
  facet normal 0 0 -1
    outer loop
      vertex -7.03253 -27.1581 0
      vertex -10.8966 -26.0841 0
      vertex -10.0159 -24.3557 0
    endloop
  endfacet
  facet normal -0 0 -1
    outer loop
      vertex -7.03253 -27.1581 0
      vertex -11.2 -28 0
      vertex -10.8966 -26.0841 0
    endloop
  endfacet
  facet normal -0.707107 0.707107 0
    outer loop
      vertex -8.64427 -22.9841 0
      vertex -10.0159 -24.3557 5.5
      vertex -8.64427 -22.9841 5.5
    endloop
  endfacet
  facet normal -0.707107 0.707107 0
    outer loop
      vertex -10.0159 -24.3557 5.5
      vertex -8.64427 -22.9841 0
      vertex -10.0159 -24.3557 0
    endloop
  endfacet
  facet normal -0.891006 0.453991 0
    outer loop
      vertex -10.8966 -26.0841 0
      vertex -10.0159 -24.3557 5.5
      vertex -10.0159 -24.3557 0
    endloop
  endfacet
  facet normal -0.891006 0.453991 0
    outer loop
      vertex -10.0159 -24.3557 5.5
      vertex -10.8966 -26.0841 0
      vertex -10.8966 -26.0841 5.5
    endloop
  endfacet
  facet normal -0.891006 -0.453991 0
    outer loop
      vertex -10.0159 -31.6443 0
      vertex -10.8966 -29.9159 5.5
      vertex -10.8966 -29.9159 0
    endloop
  endfacet
  facet normal -0.891006 -0.453991 0
    outer loop
      vertex -10.8966 -29.9159 5.5
      vertex -10.0159 -31.6443 0
      vertex -10.0159 -31.6443 5.5
    endloop
  endfacet
  facet normal -0.987688 -0.156435 0
    outer loop
      vertex -10.8966 -29.9159 0
      vertex -11.2 -28 5.5
      vertex -11.2 -28 0
    endloop
  endfacet
  facet normal -0.987688 -0.156435 0
    outer loop
      vertex -11.2 -28 5.5
      vertex -10.8966 -29.9159 0
      vertex -10.8966 -29.9159 5.5
    endloop
  endfacet
  facet normal -0.156435 -0.987688 0
    outer loop
      vertex -6.9159 -33.8965 0
      vertex -5 -34.2 5.5
      vertex -6.9159 -33.8965 5.5
    endloop
  endfacet
  facet normal -0.156435 -0.987688 -0
    outer loop
      vertex -5 -34.2 5.5
      vertex -6.9159 -33.8965 0
      vertex -5 -34.2 0
    endloop
  endfacet
  facet normal -0.707107 -0.707107 0
    outer loop
      vertex -10.0159 -31.6443 0
      vertex -8.64427 -33.0159 5.5
      vertex -10.0159 -31.6443 5.5
    endloop
  endfacet
  facet normal -0.707107 -0.707107 -0
    outer loop
      vertex -8.64427 -33.0159 5.5
      vertex -10.0159 -31.6443 0
      vertex -8.64427 -33.0159 0
    endloop
  endfacet
  facet normal -0.453991 -0.891006 0
    outer loop
      vertex -8.64427 -33.0159 0
      vertex -6.9159 -33.8965 5.5
      vertex -8.64427 -33.0159 5.5
    endloop
  endfacet
  facet normal -0.453991 -0.891006 -0
    outer loop
      vertex -6.9159 -33.8965 5.5
      vertex -8.64427 -33.0159 0
      vertex -6.9159 -33.8965 0
    endloop
  endfacet
  facet normal 0.987688 0.156435 0
    outer loop
      vertex 11.2 -28 5.5
      vertex 10.8966 -26.0841 0
      vertex 10.8966 -26.0841 5.5
    endloop
  endfacet
  facet normal 0.987688 0.156435 0
    outer loop
      vertex 10.8966 -26.0841 0
      vertex 11.2 -28 5.5
      vertex 11.2 -28 0
    endloop
  endfacet
  facet normal 0.156435 -0.987688 0
    outer loop
      vertex 5 -34.2 0
      vertex 6.9159 -33.8965 5.5
      vertex 5 -34.2 5.5
    endloop
  endfacet
  facet normal 0.156435 -0.987688 0
    outer loop
      vertex 6.9159 -33.8965 5.5
      vertex 5 -34.2 0
      vertex 6.9159 -33.8965 0
    endloop
  endfacet
  facet normal 0.891006 -0.453991 0
    outer loop
      vertex 10.0159 -31.6443 5.5
      vertex 10.8966 -29.9159 0
      vertex 10.8966 -29.9159 5.5
    endloop
  endfacet
  facet normal 0.891006 -0.453991 0
    outer loop
      vertex 10.8966 -29.9159 0
      vertex 10.0159 -31.6443 5.5
      vertex 10.0159 -31.6443 0
    endloop
  endfacet
  facet normal 0.453991 0.891006 -0
    outer loop
      vertex 8.64427 -22.9841 0
      vertex 6.9159 -22.1035 5.5
      vertex 8.64427 -22.9841 5.5
    endloop
  endfacet
  facet normal 0.453991 0.891006 0
    outer loop
      vertex 6.9159 -22.1035 5.5
      vertex 8.64427 -22.9841 0
      vertex 6.9159 -22.1035 0
    endloop
  endfacet
  facet normal 0.891006 0.453991 0
    outer loop
      vertex 10.8966 -26.0841 5.5
      vertex 10.0159 -24.3557 0
      vertex 10.0159 -24.3557 5.5
    endloop
  endfacet
  facet normal 0.891006 0.453991 0
    outer loop
      vertex 10.0159 -24.3557 0
      vertex 10.8966 -26.0841 5.5
      vertex 10.8966 -26.0841 0
    endloop
  endfacet
  facet normal 0.156435 0.987688 -0
    outer loop
      vertex 6.9159 -22.1035 0
      vertex 5 -21.8 5.5
      vertex 6.9159 -22.1035 5.5
    endloop
  endfacet
  facet normal 0.156435 0.987688 0
    outer loop
      vertex 5 -21.8 5.5
      vertex 6.9159 -22.1035 0
      vertex 5 -21.8 0
    endloop
  endfacet
  facet normal 0.987688 -0.156435 0
    outer loop
      vertex 10.8966 -29.9159 5.5
      vertex 11.2 -28 0
      vertex 11.2 -28 5.5
    endloop
  endfacet
  facet normal 0.987688 -0.156435 0
    outer loop
      vertex 11.2 -28 0
      vertex 10.8966 -29.9159 5.5
      vertex 10.8966 -29.9159 0
    endloop
  endfacet
  facet normal 0.707107 0.707107 -0
    outer loop
      vertex 10.0159 -24.3557 0
      vertex 8.64427 -22.9841 5.5
      vertex 10.0159 -24.3557 5.5
    endloop
  endfacet
  facet normal 0.707107 0.707107 0
    outer loop
      vertex 8.64427 -22.9841 5.5
      vertex 10.0159 -24.3557 0
      vertex 8.64427 -22.9841 0
    endloop
  endfacet
  facet normal 0.453991 -0.891006 0
    outer loop
      vertex 6.9159 -33.8965 0
      vertex 8.64427 -33.0159 5.5
      vertex 6.9159 -33.8965 5.5
    endloop
  endfacet
  facet normal 0.453991 -0.891006 0
    outer loop
      vertex 8.64427 -33.0159 5.5
      vertex 6.9159 -33.8965 0
      vertex 8.64427 -33.0159 0
    endloop
  endfacet
  facet normal 0.707107 -0.707107 0
    outer loop
      vertex 8.64427 -33.0159 0
      vertex 10.0159 -31.6443 5.5
      vertex 8.64427 -33.0159 5.5
    endloop
  endfacet
  facet normal 0.707107 -0.707107 0
    outer loop
      vertex 10.0159 -31.6443 5.5
      vertex 8.64427 -33.0159 0
      vertex 10.0159 -31.6443 0
    endloop
  endfacet
  facet normal 0 -1 0
    outer loop
      vertex -5 -34.2 5.5
      vertex -3 -34.2 4
      vertex -3 -34.2 5.5
    endloop
  endfacet
  facet normal 0 -1 -0
    outer loop
      vertex -3 -34.2 4
      vertex -5 -34.2 0
      vertex 3 -34.2 4
    endloop
  endfacet
  facet normal 0 -1 0
    outer loop
      vertex -5 -34.2 0
      vertex -3 -34.2 4
      vertex -5 -34.2 5.5
    endloop
  endfacet
  facet normal 0 -1 0
    outer loop
      vertex 3 -34.2 4
      vertex 5 -34.2 5.5
      vertex 3 -34.2 5.5
    endloop
  endfacet
  facet normal 0 -1 0
    outer loop
      vertex 3 -34.2 4
      vertex 5 -34.2 0
      vertex 5 -34.2 5.5
    endloop
  endfacet
  facet normal 0 -1 0
    outer loop
      vertex 5 -34.2 0
      vertex 3 -34.2 4
      vertex -5 -34.2 0
    endloop
  endfacet
  facet normal 0 1 0
    outer loop
      vertex 5 -21.8 5.5
      vertex 3 -21.8 4
      vertex 3 -21.8 5.5
    endloop
  endfacet
  facet normal 0 1 0
    outer loop
      vertex 3 -21.8 4
      vertex 5 -21.8 0
      vertex -3 -21.8 4
    endloop
  endfacet
  facet normal 0 1 -0
    outer loop
      vertex 5 -21.8 0
      vertex 3 -21.8 4
      vertex 5 -21.8 5.5
    endloop
  endfacet
  facet normal 0 1 -0
    outer loop
      vertex -3 -21.8 4
      vertex -5 -21.8 5.5
      vertex -3 -21.8 5.5
    endloop
  endfacet
  facet normal 0 1 0
    outer loop
      vertex -3 -21.8 4
      vertex -5 -21.8 0
      vertex -5 -21.8 5.5
    endloop
  endfacet
  facet normal 0 1 0
    outer loop
      vertex -5 -21.8 0
      vertex -3 -21.8 4
      vertex 5 -21.8 0
    endloop
  endfacet
  facet normal -0.707107 -0.707107 0
    outer loop
      vertex -2.96746 -27.1581 0
      vertex -4.1581 -25.9675 5.5
      vertex -4.1581 -25.9675 0
    endloop
  endfacet
  facet normal -0.707107 -0.707107 0
    outer loop
      vertex -4.1581 -25.9675 5.5
      vertex -2.96746 -27.1581 0
      vertex -2.96746 -27.1581 5.5
    endloop
  endfacet
  facet normal 1 -0 0
    outer loop
      vertex -7.03253 -28.8419 5.5
      vertex -7.03253 -27.1581 0
      vertex -7.03253 -27.1581 5.5
    endloop
  endfacet
  facet normal 1 0 0
    outer loop
      vertex -7.03253 -27.1581 0
      vertex -7.03253 -28.8419 5.5
      vertex -7.03253 -28.8419 0
    endloop
  endfacet
  facet normal 0 -1 0
    outer loop
      vertex -5.8419 -25.9675 0
      vertex -4.1581 -25.9675 5.5
      vertex -5.8419 -25.9675 5.5
    endloop
  endfacet
  facet normal 0 -1 -0
    outer loop
      vertex -4.1581 -25.9675 5.5
      vertex -5.8419 -25.9675 0
      vertex -4.1581 -25.9675 0
    endloop
  endfacet
  facet normal 0.707107 -0.707107 0
    outer loop
      vertex -7.03253 -27.1581 5.5
      vertex -5.8419 -25.9675 0
      vertex -5.8419 -25.9675 5.5
    endloop
  endfacet
  facet normal 0.707107 -0.707107 0
    outer loop
      vertex -5.8419 -25.9675 0
      vertex -7.03253 -27.1581 5.5
      vertex -7.03253 -27.1581 0
    endloop
  endfacet
  facet normal -0.707107 0.707107 0
    outer loop
      vertex -4.1581 -30.0325 0
      vertex -2.96746 -28.8419 5.5
      vertex -2.96746 -28.8419 0
    endloop
  endfacet
  facet normal -0.707107 0.707107 0
    outer loop
      vertex -2.96746 -28.8419 5.5
      vertex -4.1581 -30.0325 0
      vertex -4.1581 -30.0325 5.5
    endloop
  endfacet
  facet normal 0.707107 0.707107 0
    outer loop
      vertex -5.8419 -30.0325 5.5
      vertex -7.03253 -28.8419 0
      vertex -7.03253 -28.8419 5.5
    endloop
  endfacet
  facet normal 0.707107 0.707107 0
    outer loop
      vertex -7.03253 -28.8419 0
      vertex -5.8419 -30.0325 5.5
      vertex -5.8419 -30.0325 0
    endloop
  endfacet
  facet normal -1 0 0
    outer loop
      vertex -2.96746 -27.1581 0
      vertex -2.96746 -27.5 4
      vertex -2.96746 -27.1581 5.5
    endloop
  endfacet
  facet normal -1 0 0
    outer loop
      vertex -2.96746 -27.1581 0
      vertex -2.96746 -28.5 4
      vertex -2.96746 -27.5 4
    endloop
  endfacet
  facet normal -1 0 0
    outer loop
      vertex -2.96746 -28.8419 0
      vertex -2.96746 -28.5 4
      vertex -2.96746 -27.1581 0
    endloop
  endfacet
  facet normal -1 0 0
    outer loop
      vertex -2.96746 -28.8419 5.5
      vertex -2.96746 -28.5 4
      vertex -2.96746 -28.8419 0
    endloop
  endfacet
  facet normal -1 0 0
    outer loop
      vertex -2.96746 -28.5 4
      vertex -2.96746 -28.8419 5.5
      vertex -2.96746 -28.5 5.5
    endloop
  endfacet
  facet normal -1 -0 0
    outer loop
      vertex -2.96746 -27.1581 5.5
      vertex -2.96746 -27.5 4
      vertex -2.96746 -27.5 5.5
    endloop
  endfacet
  facet normal 0 1 -0
    outer loop
      vertex -4.1581 -30.0325 0
      vertex -5.8419 -30.0325 5.5
      vertex -4.1581 -30.0325 5.5
    endloop
  endfacet
  facet normal 0 1 0
    outer loop
      vertex -5.8419 -30.0325 5.5
      vertex -4.1581 -30.0325 0
      vertex -5.8419 -30.0325 0
    endloop
  endfacet
  facet normal -0.707107 -0.707107 0
    outer loop
      vertex 7.03253 -27.1581 0
      vertex 5.8419 -25.9675 5.5
      vertex 5.8419 -25.9675 0
    endloop
  endfacet
  facet normal -0.707107 -0.707107 0
    outer loop
      vertex 5.8419 -25.9675 5.5
      vertex 7.03253 -27.1581 0
      vertex 7.03253 -27.1581 5.5
    endloop
  endfacet
  facet normal 1 0 0
    outer loop
      vertex 2.96746 -28.5 5.5
      vertex 2.96746 -28.8419 5.5
      vertex 2.96746 -28.5 4
    endloop
  endfacet
  facet normal 1 0 0
    outer loop
      vertex 2.96746 -27.5 4
      vertex 2.96746 -27.1581 5.5
      vertex 2.96746 -27.5 5.5
    endloop
  endfacet
  facet normal 1 0 0
    outer loop
      vertex 2.96746 -27.1581 5.5
      vertex 2.96746 -27.5 4
      vertex 2.96746 -27.1581 0
    endloop
  endfacet
  facet normal 1 -0 0
    outer loop
      vertex 2.96746 -28.5 4
      vertex 2.96746 -27.1581 0
      vertex 2.96746 -27.5 4
    endloop
  endfacet
  facet normal 1 0 0
    outer loop
      vertex 2.96746 -28.5 4
      vertex 2.96746 -28.8419 0
      vertex 2.96746 -27.1581 0
    endloop
  endfacet
  facet normal 1 0 0
    outer loop
      vertex 2.96746 -28.8419 0
      vertex 2.96746 -28.5 4
      vertex 2.96746 -28.8419 5.5
    endloop
  endfacet
  facet normal 0 -1 0
    outer loop
      vertex 4.1581 -25.9675 0
      vertex 5.8419 -25.9675 5.5
      vertex 4.1581 -25.9675 5.5
    endloop
  endfacet
  facet normal 0 -1 -0
    outer loop
      vertex 5.8419 -25.9675 5.5
      vertex 4.1581 -25.9675 0
      vertex 5.8419 -25.9675 0
    endloop
  endfacet
  facet normal 0.707107 -0.707107 0
    outer loop
      vertex 2.96746 -27.1581 5.5
      vertex 4.1581 -25.9675 0
      vertex 4.1581 -25.9675 5.5
    endloop
  endfacet
  facet normal 0.707107 -0.707107 0
    outer loop
      vertex 4.1581 -25.9675 0
      vertex 2.96746 -27.1581 5.5
      vertex 2.96746 -27.1581 0
    endloop
  endfacet
  facet normal -0.707107 0.707107 0
    outer loop
      vertex 5.8419 -30.0325 0
      vertex 7.03253 -28.8419 5.5
      vertex 7.03253 -28.8419 0
    endloop
  endfacet
  facet normal -0.707107 0.707107 0
    outer loop
      vertex 7.03253 -28.8419 5.5
      vertex 5.8419 -30.0325 0
      vertex 5.8419 -30.0325 5.5
    endloop
  endfacet
  facet normal 0.707107 0.707107 0
    outer loop
      vertex 4.1581 -30.0325 5.5
      vertex 2.96746 -28.8419 0
      vertex 2.96746 -28.8419 5.5
    endloop
  endfacet
  facet normal 0.707107 0.707107 0
    outer loop
      vertex 2.96746 -28.8419 0
      vertex 4.1581 -30.0325 5.5
      vertex 4.1581 -30.0325 0
    endloop
  endfacet
  facet normal -1 0 0
    outer loop
      vertex 7.03253 -28.8419 0
      vertex 7.03253 -27.1581 5.5
      vertex 7.03253 -27.1581 0
    endloop
  endfacet
  facet normal -1 -0 0
    outer loop
      vertex 7.03253 -27.1581 5.5
      vertex 7.03253 -28.8419 0
      vertex 7.03253 -28.8419 5.5
    endloop
  endfacet
  facet normal 0 1 -0
    outer loop
      vertex 5.8419 -30.0325 0
      vertex 4.1581 -30.0325 5.5
      vertex 5.8419 -30.0325 5.5
    endloop
  endfacet
  facet normal 0 1 0
    outer loop
      vertex 4.1581 -30.0325 5.5
      vertex 5.8419 -30.0325 0
      vertex 4.1581 -30.0325 0
    endloop
  endfacet
  facet normal 1 -0 0
    outer loop
      vertex -3 -34.2 5.5
      vertex -3 -33.5 4
      vertex -3 -33.5 5.5
    endloop
  endfacet
  facet normal 1 0 0
    outer loop
      vertex -3 -33.5 4
      vertex -3 -34.2 5.5
      vertex -3 -34.2 4
    endloop
  endfacet
  facet normal -1 0 0
    outer loop
      vertex 3 -34.2 4
      vertex 3 -33.5 5.5
      vertex 3 -33.5 4
    endloop
  endfacet
  facet normal -1 -0 0
    outer loop
      vertex 3 -33.5 5.5
      vertex 3 -34.2 4
      vertex 3 -34.2 5.5
    endloop
  endfacet
  facet normal 0 -1 0
    outer loop
      vertex -3 -33.5 4
      vertex 3 -33.5 5.5
      vertex -3 -33.5 5.5
    endloop
  endfacet
  facet normal 0 -1 -0
    outer loop
      vertex 3 -33.5 5.5
      vertex -3 -33.5 4
      vertex 3 -33.5 4
    endloop
  endfacet
  facet normal -0 0 1
    outer loop
      vertex -3 -33.5 4
      vertex 3 -34.2 4
      vertex 3 -33.5 4
    endloop
  endfacet
  facet normal 0 0 1
    outer loop
      vertex 3 -34.2 4
      vertex -3 -33.5 4
      vertex -3 -34.2 4
    endloop
  endfacet
  facet normal 1 -0 0
    outer loop
      vertex -3 -32.5 5.5
      vertex -3 -31.5 4
      vertex -3 -31.5 5.5
    endloop
  endfacet
  facet normal 1 0 0
    outer loop
      vertex -3 -31.5 4
      vertex -3 -32.5 5.5
      vertex -3 -32.5 4
    endloop
  endfacet
  facet normal -1 0 0
    outer loop
      vertex 3 -32.5 4
      vertex 3 -31.5 5.5
      vertex 3 -31.5 4
    endloop
  endfacet
  facet normal -1 -0 0
    outer loop
      vertex 3 -31.5 5.5
      vertex 3 -32.5 4
      vertex 3 -32.5 5.5
    endloop
  endfacet
  facet normal 0 -1 0
    outer loop
      vertex -3 -31.5 4
      vertex 3 -31.5 5.5
      vertex -3 -31.5 5.5
    endloop
  endfacet
  facet normal 0 -1 -0
    outer loop
      vertex 3 -31.5 5.5
      vertex -3 -31.5 4
      vertex 3 -31.5 4
    endloop
  endfacet
  facet normal -0 0 1
    outer loop
      vertex -3 -31.5 4
      vertex 3 -32.5 4
      vertex 3 -31.5 4
    endloop
  endfacet
  facet normal 0 0 1
    outer loop
      vertex 3 -32.5 4
      vertex -3 -31.5 4
      vertex -3 -32.5 4
    endloop
  endfacet
  facet normal 0 1 -0
    outer loop
      vertex 3 -32.5 4
      vertex -3 -32.5 5.5
      vertex 3 -32.5 5.5
    endloop
  endfacet
  facet normal 0 1 0
    outer loop
      vertex -3 -32.5 5.5
      vertex 3 -32.5 4
      vertex -3 -32.5 4
    endloop
  endfacet
  facet normal 1 -0 0
    outer loop
      vertex -3 -30.5 5.5
      vertex -3 -29.5 4
      vertex -3 -29.5 5.5
    endloop
  endfacet
  facet normal 1 0 0
    outer loop
      vertex -3 -29.5 4
      vertex -3 -30.5 5.5
      vertex -3 -30.5 4
    endloop
  endfacet
  facet normal -1 0 0
    outer loop
      vertex 3 -30.5 4
      vertex 3 -29.5 5.5
      vertex 3 -29.5 4
    endloop
  endfacet
  facet normal -1 -0 0
    outer loop
      vertex 3 -29.5 5.5
      vertex 3 -30.5 4
      vertex 3 -30.5 5.5
    endloop
  endfacet
  facet normal 0 -1 0
    outer loop
      vertex -3 -29.5 4
      vertex 3 -29.5 5.5
      vertex -3 -29.5 5.5
    endloop
  endfacet
  facet normal 0 -1 -0
    outer loop
      vertex 3 -29.5 5.5
      vertex -3 -29.5 4
      vertex 3 -29.5 4
    endloop
  endfacet
  facet normal -0 0 1
    outer loop
      vertex -3 -29.5 4
      vertex 3 -30.5 4
      vertex 3 -29.5 4
    endloop
  endfacet
  facet normal 0 0 1
    outer loop
      vertex 3 -30.5 4
      vertex -3 -29.5 4
      vertex -3 -30.5 4
    endloop
  endfacet
  facet normal 0 1 -0
    outer loop
      vertex 3 -30.5 4
      vertex -3 -30.5 5.5
      vertex 3 -30.5 5.5
    endloop
  endfacet
  facet normal 0 1 0
    outer loop
      vertex -3 -30.5 5.5
      vertex 3 -30.5 4
      vertex -3 -30.5 4
    endloop
  endfacet
  facet normal 0 -1 0
    outer loop
      vertex -2.96746 -27.5 4
      vertex 2.96746 -27.5 5.5
      vertex -2.96746 -27.5 5.5
    endloop
  endfacet
  facet normal 0 -1 -0
    outer loop
      vertex 2.96746 -27.5 5.5
      vertex -2.96746 -27.5 4
      vertex 2.96746 -27.5 4
    endloop
  endfacet
  facet normal -0 0 1
    outer loop
      vertex -2.96746 -27.5 4
      vertex 2.96746 -28.5 4
      vertex 2.96746 -27.5 4
    endloop
  endfacet
  facet normal 0 0 1
    outer loop
      vertex 2.96746 -28.5 4
      vertex -2.96746 -27.5 4
      vertex -2.96746 -28.5 4
    endloop
  endfacet
  facet normal 0 1 -0
    outer loop
      vertex 2.96746 -28.5 4
      vertex -2.96746 -28.5 5.5
      vertex 2.96746 -28.5 5.5
    endloop
  endfacet
  facet normal 0 1 0
    outer loop
      vertex -2.96746 -28.5 5.5
      vertex 2.96746 -28.5 4
      vertex -2.96746 -28.5 4
    endloop
  endfacet
  facet normal 1 -0 0
    outer loop
      vertex -3 -26.5 5.5
      vertex -3 -25.5 4
      vertex -3 -25.5 5.5
    endloop
  endfacet
  facet normal 1 0 0
    outer loop
      vertex -3 -25.5 4
      vertex -3 -26.5 5.5
      vertex -3 -26.5 4
    endloop
  endfacet
  facet normal -1 0 0
    outer loop
      vertex 3 -26.5 4
      vertex 3 -25.5 5.5
      vertex 3 -25.5 4
    endloop
  endfacet
  facet normal -1 -0 0
    outer loop
      vertex 3 -25.5 5.5
      vertex 3 -26.5 4
      vertex 3 -26.5 5.5
    endloop
  endfacet
  facet normal 0 -1 0
    outer loop
      vertex -3 -25.5 4
      vertex 3 -25.5 5.5
      vertex -3 -25.5 5.5
    endloop
  endfacet
  facet normal 0 -1 -0
    outer loop
      vertex 3 -25.5 5.5
      vertex -3 -25.5 4
      vertex 3 -25.5 4
    endloop
  endfacet
  facet normal -0 0 1
    outer loop
      vertex -3 -25.5 4
      vertex 3 -26.5 4
      vertex 3 -25.5 4
    endloop
  endfacet
  facet normal 0 0 1
    outer loop
      vertex 3 -26.5 4
      vertex -3 -25.5 4
      vertex -3 -26.5 4
    endloop
  endfacet
  facet normal 0 1 -0
    outer loop
      vertex 3 -26.5 4
      vertex -3 -26.5 5.5
      vertex 3 -26.5 5.5
    endloop
  endfacet
  facet normal 0 1 0
    outer loop
      vertex -3 -26.5 5.5
      vertex 3 -26.5 4
      vertex -3 -26.5 4
    endloop
  endfacet
  facet normal 1 -0 0
    outer loop
      vertex -3 -24.5 5.5
      vertex -3 -23.5 4
      vertex -3 -23.5 5.5
    endloop
  endfacet
  facet normal 1 0 0
    outer loop
      vertex -3 -23.5 4
      vertex -3 -24.5 5.5
      vertex -3 -24.5 4
    endloop
  endfacet
  facet normal -1 0 0
    outer loop
      vertex 3 -24.5 4
      vertex 3 -23.5 5.5
      vertex 3 -23.5 4
    endloop
  endfacet
  facet normal -1 -0 0
    outer loop
      vertex 3 -23.5 5.5
      vertex 3 -24.5 4
      vertex 3 -24.5 5.5
    endloop
  endfacet
  facet normal 0 -1 0
    outer loop
      vertex -3 -23.5 4
      vertex 3 -23.5 5.5
      vertex -3 -23.5 5.5
    endloop
  endfacet
  facet normal 0 -1 -0
    outer loop
      vertex 3 -23.5 5.5
      vertex -3 -23.5 4
      vertex 3 -23.5 4
    endloop
  endfacet
  facet normal -0 0 1
    outer loop
      vertex -3 -23.5 4
      vertex 3 -24.5 4
      vertex 3 -23.5 4
    endloop
  endfacet
  facet normal 0 0 1
    outer loop
      vertex 3 -24.5 4
      vertex -3 -23.5 4
      vertex -3 -24.5 4
    endloop
  endfacet
  facet normal 0 1 -0
    outer loop
      vertex 3 -24.5 4
      vertex -3 -24.5 5.5
      vertex 3 -24.5 5.5
    endloop
  endfacet
  facet normal 0 1 0
    outer loop
      vertex -3 -24.5 5.5
      vertex 3 -24.5 4
      vertex -3 -24.5 4
    endloop
  endfacet
  facet normal 1 -0 0
    outer loop
      vertex -3 -22.5 5.5
      vertex -3 -21.8 4
      vertex -3 -21.8 5.5
    endloop
  endfacet
  facet normal 1 0 0
    outer loop
      vertex -3 -21.8 4
      vertex -3 -22.5 5.5
      vertex -3 -22.5 4
    endloop
  endfacet
  facet normal -1 0 0
    outer loop
      vertex 3 -22.5 4
      vertex 3 -21.8 5.5
      vertex 3 -21.8 4
    endloop
  endfacet
  facet normal -1 -0 0
    outer loop
      vertex 3 -21.8 5.5
      vertex 3 -22.5 4
      vertex 3 -22.5 5.5
    endloop
  endfacet
  facet normal -0 0 1
    outer loop
      vertex -3 -21.8 4
      vertex 3 -22.5 4
      vertex 3 -21.8 4
    endloop
  endfacet
  facet normal 0 0 1
    outer loop
      vertex 3 -22.5 4
      vertex -3 -21.8 4
      vertex -3 -22.5 4
    endloop
  endfacet
  facet normal 0 1 -0
    outer loop
      vertex 3 -22.5 4
      vertex -3 -22.5 5.5
      vertex 3 -22.5 5.5
    endloop
  endfacet
  facet normal 0 1 0
    outer loop
      vertex -3 -22.5 5.5
      vertex 3 -22.5 4
      vertex -3 -22.5 4
    endloop
  endfacet
  facet normal -0.987688 0.156435 0
    outer loop
      vertex -11.2 28 0
      vertex -10.8966 29.9159 5.5
      vertex -10.8966 29.9159 0
    endloop
  endfacet
  facet normal -0.987688 0.156435 0
    outer loop
      vertex -10.8966 29.9159 5.5
      vertex -11.2 28 0
      vertex -11.2 28 5.5
    endloop
  endfacet
  facet normal -0.453991 0.891006 0
    outer loop
      vertex -6.9159 33.8965 0
      vertex -8.64427 33.0159 5.5
      vertex -6.9159 33.8965 5.5
    endloop
  endfacet
  facet normal -0.453991 0.891006 0
    outer loop
      vertex -8.64427 33.0159 5.5
      vertex -6.9159 33.8965 0
      vertex -8.64427 33.0159 0
    endloop
  endfacet
  facet normal 0 0 1
    outer loop
      vertex 2.96746 27.5 5.5
      vertex -2.96746 27.5 5.5
      vertex 2.96746 27.1581 5.5
    endloop
  endfacet
  facet normal -0 0 1
    outer loop
      vertex -3 23.5 5.5
      vertex 3 22.5 5.5
      vertex 3 23.5 5.5
    endloop
  endfacet
  facet normal 0 0 1
    outer loop
      vertex 3 22.5 5.5
      vertex -3 23.5 5.5
      vertex -3 22.5 5.5
    endloop
  endfacet
  facet normal -0 0 1
    outer loop
      vertex -3 25.5 5.5
      vertex 3 24.5 5.5
      vertex 3 25.5 5.5
    endloop
  endfacet
  facet normal 0 0 1
    outer loop
      vertex 3 24.5 5.5
      vertex -3 25.5 5.5
      vertex -3 24.5 5.5
    endloop
  endfacet
  facet normal 0 0 1
    outer loop
      vertex 2.96746 27.1581 5.5
      vertex 3 26.5 5.5
      vertex 4.1581 25.9675 5.5
    endloop
  endfacet
  facet normal 0 0 1
    outer loop
      vertex -2.96746 27.1581 5.5
      vertex 2.96746 27.1581 5.5
      vertex -2.96746 27.5 5.5
    endloop
  endfacet
  facet normal 0 0 1
    outer loop
      vertex 2.96746 27.1581 5.5
      vertex -2.96746 27.1581 5.5
      vertex 3 26.5 5.5
    endloop
  endfacet
  facet normal 0 0 1
    outer loop
      vertex -2.96746 27.1581 5.5
      vertex -3 26.5 5.5
      vertex 3 26.5 5.5
    endloop
  endfacet
  facet normal -0 0 1
    outer loop
      vertex -4.1581 25.9675 5.5
      vertex -3 25.5 5.5
      vertex -3 26.5 5.5
    endloop
  endfacet
  facet normal 0 0 1
    outer loop
      vertex -3 25.5 5.5
      vertex -4.1581 25.9675 5.5
      vertex -3 24.5 5.5
    endloop
  endfacet
  facet normal -0 0 1
    outer loop
      vertex -5.8419 25.9675 5.5
      vertex -3 24.5 5.5
      vertex -4.1581 25.9675 5.5
    endloop
  endfacet
  facet normal 0 0 1
    outer loop
      vertex -3 24.5 5.5
      vertex -5.8419 25.9675 5.5
      vertex -3 23.5 5.5
    endloop
  endfacet
  facet normal 0 0 1
    outer loop
      vertex -4.1581 25.9675 5.5
      vertex -3 26.5 5.5
      vertex -2.96746 27.1581 5.5
    endloop
  endfacet
  facet normal 0 0 1
    outer loop
      vertex -3 23.5 5.5
      vertex -5 21.8 5.5
      vertex -3 22.5 5.5
    endloop
  endfacet
  facet normal 0 0 1
    outer loop
      vertex -3 22.5 5.5
      vertex -5 21.8 5.5
      vertex -3 21.8 5.5
    endloop
  endfacet
  facet normal 0 0 1
    outer loop
      vertex -3 23.5 5.5
      vertex -5.8419 25.9675 5.5
      vertex -5 21.8 5.5
    endloop
  endfacet
  facet normal 0 0 1
    outer loop
      vertex -5.8419 25.9675 5.5
      vertex -6.9159 22.1035 5.5
      vertex -5 21.8 5.5
    endloop
  endfacet
  facet normal 0 0 1
    outer loop
      vertex -8.64427 22.9841 5.5
      vertex -5.8419 25.9675 5.5
      vertex -7.03253 27.1581 5.5
    endloop
  endfacet
  facet normal -0 0 1
    outer loop
      vertex -10.8966 29.9159 5.5
      vertex -7.03253 28.8419 5.5
      vertex -10.0159 31.6443 5.5
    endloop
  endfacet
  facet normal 0 0 1
    outer loop
      vertex -5.8419 25.9675 5.5
      vertex -8.64427 22.9841 5.5
      vertex -6.9159 22.1035 5.5
    endloop
  endfacet
  facet normal 0 0 1
    outer loop
      vertex -11.2 28 5.5
      vertex -7.03253 28.8419 5.5
      vertex -10.8966 29.9159 5.5
    endloop
  endfacet
  facet normal 0 0 1
    outer loop
      vertex -7.03253 27.1581 5.5
      vertex -10.0159 24.3557 5.5
      vertex -8.64427 22.9841 5.5
    endloop
  endfacet
  facet normal 0 0 1
    outer loop
      vertex -7.03253 28.8419 5.5
      vertex -11.2 28 5.5
      vertex -7.03253 27.1581 5.5
    endloop
  endfacet
  facet normal 0 0 1
    outer loop
      vertex -7.03253 27.1581 5.5
      vertex -10.8966 26.0841 5.5
      vertex -10.0159 24.3557 5.5
    endloop
  endfacet
  facet normal 0 0 1
    outer loop
      vertex -7.03253 27.1581 5.5
      vertex -11.2 28 5.5
      vertex -10.8966 26.0841 5.5
    endloop
  endfacet
  facet normal -0 0 1
    outer loop
      vertex -3 31.5 5.5
      vertex 3 30.5 5.5
      vertex 3 31.5 5.5
    endloop
  endfacet
  facet normal 0 0 1
    outer loop
      vertex 3 30.5 5.5
      vertex -3 31.5 5.5
      vertex -3 30.5 5.5
    endloop
  endfacet
  facet normal -0 0 1
    outer loop
      vertex -3 33.5 5.5
      vertex 3 32.5 5.5
      vertex 3 33.5 5.5
    endloop
  endfacet
  facet normal 0 0 1
    outer loop
      vertex 3 32.5 5.5
      vertex -3 33.5 5.5
      vertex -3 32.5 5.5
    endloop
  endfacet
  facet normal -0 0 1
    outer loop
      vertex 7.03253 28.8419 5.5
      vertex 11.2 28 5.5
      vertex 10.8966 29.9159 5.5
    endloop
  endfacet
  facet normal 0 0 1
    outer loop
      vertex 7.03253 28.8419 5.5
      vertex 10.8966 29.9159 5.5
      vertex 10.0159 31.6443 5.5
    endloop
  endfacet
  facet normal 0 0 1
    outer loop
      vertex 7.03253 27.1581 5.5
      vertex 11.2 28 5.5
      vertex 7.03253 28.8419 5.5
    endloop
  endfacet
  facet normal 0 0 1
    outer loop
      vertex 7.03253 28.8419 5.5
      vertex 10.0159 31.6443 5.5
      vertex 8.64427 33.0159 5.5
    endloop
  endfacet
  facet normal 0 0 1
    outer loop
      vertex 11.2 28 5.5
      vertex 7.03253 27.1581 5.5
      vertex 10.8966 26.0841 5.5
    endloop
  endfacet
  facet normal 0 0 1
    outer loop
      vertex 10.8966 26.0841 5.5
      vertex 7.03253 27.1581 5.5
      vertex 10.0159 24.3557 5.5
    endloop
  endfacet
  facet normal 0 0 1
    outer loop
      vertex 5.8419 30.0325 5.5
      vertex 8.64427 33.0159 5.5
      vertex 6.9159 33.8965 5.5
    endloop
  endfacet
  facet normal 0 0 1
    outer loop
      vertex 8.64427 33.0159 5.5
      vertex 5.8419 30.0325 5.5
      vertex 7.03253 28.8419 5.5
    endloop
  endfacet
  facet normal 0 0 1
    outer loop
      vertex 5 34.2 5.5
      vertex 5.8419 30.0325 5.5
      vertex 6.9159 33.8965 5.5
    endloop
  endfacet
  facet normal -0 0 1
    outer loop
      vertex 3 32.5 5.5
      vertex 5.8419 30.0325 5.5
      vertex 5 34.2 5.5
    endloop
  endfacet
  facet normal 0 0 1
    outer loop
      vertex 3 33.5 5.5
      vertex 5 34.2 5.5
      vertex 3 34.2 5.5
    endloop
  endfacet
  facet normal 0 0 1
    outer loop
      vertex 3 32.5 5.5
      vertex 5 34.2 5.5
      vertex 3 33.5 5.5
    endloop
  endfacet
  facet normal -0 0 1
    outer loop
      vertex 3 31.5 5.5
      vertex 5.8419 30.0325 5.5
      vertex 3 32.5 5.5
    endloop
  endfacet
  facet normal 0 0 1
    outer loop
      vertex 5.8419 30.0325 5.5
      vertex 3 31.5 5.5
      vertex 4.1581 30.0325 5.5
    endloop
  endfacet
  facet normal -0 0 1
    outer loop
      vertex 3 30.5 5.5
      vertex 4.1581 30.0325 5.5
      vertex 3 31.5 5.5
    endloop
  endfacet
  facet normal 0 0 1
    outer loop
      vertex 3 29.5 5.5
      vertex 4.1581 30.0325 5.5
      vertex 3 30.5 5.5
    endloop
  endfacet
  facet normal -0 0 1
    outer loop
      vertex 3 29.5 5.5
      vertex 2.96746 28.8419 5.5
      vertex 4.1581 30.0325 5.5
    endloop
  endfacet
  facet normal 0 0 1
    outer loop
      vertex 2.96746 28.8419 5.5
      vertex -2.96746 28.8419 5.5
      vertex 2.96746 28.5 5.5
    endloop
  endfacet
  facet normal 0 0 1
    outer loop
      vertex 3 29.5 5.5
      vertex -2.96746 28.8419 5.5
      vertex 2.96746 28.8419 5.5
    endloop
  endfacet
  facet normal -0 0 1
    outer loop
      vertex -3 29.5 5.5
      vertex -2.96746 28.8419 5.5
      vertex 3 29.5 5.5
    endloop
  endfacet
  facet normal 0 0 1
    outer loop
      vertex -2.96746 28.8419 5.5
      vertex -3 29.5 5.5
      vertex -4.1581 30.0325 5.5
    endloop
  endfacet
  facet normal 0 0 1
    outer loop
      vertex 10.0159 24.3557 5.5
      vertex 7.03253 27.1581 5.5
      vertex 8.64427 22.9841 5.5
    endloop
  endfacet
  facet normal -0 0 1
    outer loop
      vertex 5.8419 25.9675 5.5
      vertex 8.64427 22.9841 5.5
      vertex 7.03253 27.1581 5.5
    endloop
  endfacet
  facet normal 0 0 1
    outer loop
      vertex 8.64427 22.9841 5.5
      vertex 5.8419 25.9675 5.5
      vertex 6.9159 22.1035 5.5
    endloop
  endfacet
  facet normal 0 0 1
    outer loop
      vertex 5.8419 25.9675 5.5
      vertex 5 21.8 5.5
      vertex 6.9159 22.1035 5.5
    endloop
  endfacet
  facet normal 0 0 1
    outer loop
      vertex 3 24.5 5.5
      vertex 5.8419 25.9675 5.5
      vertex 4.1581 25.9675 5.5
    endloop
  endfacet
  facet normal 0 0 1
    outer loop
      vertex 3 23.5 5.5
      vertex 5.8419 25.9675 5.5
      vertex 3 24.5 5.5
    endloop
  endfacet
  facet normal 0 0 1
    outer loop
      vertex 3 25.5 5.5
      vertex 4.1581 25.9675 5.5
      vertex 3 26.5 5.5
    endloop
  endfacet
  facet normal 0 0 1
    outer loop
      vertex 3 24.5 5.5
      vertex 4.1581 25.9675 5.5
      vertex 3 25.5 5.5
    endloop
  endfacet
  facet normal 0 0 1
    outer loop
      vertex 5.8419 25.9675 5.5
      vertex 3 23.5 5.5
      vertex 5 21.8 5.5
    endloop
  endfacet
  facet normal -0 0 1
    outer loop
      vertex 3 22.5 5.5
      vertex 5 21.8 5.5
      vertex 3 23.5 5.5
    endloop
  endfacet
  facet normal 0 0 1
    outer loop
      vertex 3 21.8 5.5
      vertex 5 21.8 5.5
      vertex 3 22.5 5.5
    endloop
  endfacet
  facet normal -0 0 1
    outer loop
      vertex -5 34.2 5.5
      vertex -3 33.5 5.5
      vertex -3 34.2 5.5
    endloop
  endfacet
  facet normal 0 0 1
    outer loop
      vertex -3 33.5 5.5
      vertex -5 34.2 5.5
      vertex -3 32.5 5.5
    endloop
  endfacet
  facet normal 0 0 1
    outer loop
      vertex -5.8419 30.0325 5.5
      vertex -3 32.5 5.5
      vertex -5 34.2 5.5
    endloop
  endfacet
  facet normal 0 0 1
    outer loop
      vertex -3 32.5 5.5
      vertex -5.8419 30.0325 5.5
      vertex -3 31.5 5.5
    endloop
  endfacet
  facet normal 0 0 1
    outer loop
      vertex -3 30.5 5.5
      vertex -4.1581 30.0325 5.5
      vertex -3 29.5 5.5
    endloop
  endfacet
  facet normal 0 0 1
    outer loop
      vertex -3 31.5 5.5
      vertex -4.1581 30.0325 5.5
      vertex -3 30.5 5.5
    endloop
  endfacet
  facet normal 0 0 1
    outer loop
      vertex -3 31.5 5.5
      vertex -5.8419 30.0325 5.5
      vertex -4.1581 30.0325 5.5
    endloop
  endfacet
  facet normal -0 0 1
    outer loop
      vertex -6.9159 33.8965 5.5
      vertex -5.8419 30.0325 5.5
      vertex -5 34.2 5.5
    endloop
  endfacet
  facet normal -0 0 1
    outer loop
      vertex -8.64427 33.0159 5.5
      vertex -5.8419 30.0325 5.5
      vertex -6.9159 33.8965 5.5
    endloop
  endfacet
  facet normal -0 0 1
    outer loop
      vertex -10.0159 31.6443 5.5
      vertex -7.03253 28.8419 5.5
      vertex -8.64427 33.0159 5.5
    endloop
  endfacet
  facet normal 0 0 1
    outer loop
      vertex -5.8419 30.0325 5.5
      vertex -8.64427 33.0159 5.5
      vertex -7.03253 28.8419 5.5
    endloop
  endfacet
  facet normal 0 0 1
    outer loop
      vertex 2.96746 28.5 5.5
      vertex -2.96746 28.8419 5.5
      vertex -2.96746 28.5 5.5
    endloop
  endfacet
  facet normal -0.156435 0.987688 0
    outer loop
      vertex -5 34.2 0
      vertex -6.9159 33.8965 5.5
      vertex -5 34.2 5.5
    endloop
  endfacet
  facet normal -0.156435 0.987688 0
    outer loop
      vertex -6.9159 33.8965 5.5
      vertex -5 34.2 0
      vertex -6.9159 33.8965 0
    endloop
  endfacet
  facet normal 0 0 -1
    outer loop
      vertex 5 21.8 0
      vertex 2.96746 27.1581 0
      vertex 4.1581 25.9675 0
    endloop
  endfacet
  facet normal 0 0 -1
    outer loop
      vertex 2.96746 27.1581 0
      vertex -2.96746 27.1581 0
      vertex 2.96746 28.8419 0
    endloop
  endfacet
  facet normal 0 0 -1
    outer loop
      vertex 5 21.8 0
      vertex -2.96746 27.1581 0
      vertex 2.96746 27.1581 0
    endloop
  endfacet
  facet normal 0 0 -1
    outer loop
      vertex 5 21.8 0
      vertex -4.1581 25.9675 0
      vertex -2.96746 27.1581 0
    endloop
  endfacet
  facet normal -0 0 -1
    outer loop
      vertex 5 21.8 0
      vertex -5 21.8 0
      vertex -4.1581 25.9675 0
    endloop
  endfacet
  facet normal 0 0 -1
    outer loop
      vertex -5 21.8 0
      vertex -5.8419 25.9675 0
      vertex -4.1581 25.9675 0
    endloop
  endfacet
  facet normal 0 0 -1
    outer loop
      vertex -6.9159 22.1035 0
      vertex -5.8419 25.9675 0
      vertex -5 21.8 0
    endloop
  endfacet
  facet normal 0 0 -1
    outer loop
      vertex -8.64427 22.9841 0
      vertex -5.8419 25.9675 0
      vertex -6.9159 22.1035 0
    endloop
  endfacet
  facet normal 0 0 -1
    outer loop
      vertex -10.0159 24.3557 0
      vertex -7.03253 27.1581 0
      vertex -8.64427 22.9841 0
    endloop
  endfacet
  facet normal -0 0 -1
    outer loop
      vertex -5.8419 25.9675 0
      vertex -8.64427 22.9841 0
      vertex -7.03253 27.1581 0
    endloop
  endfacet
  facet normal 0 0 -1
    outer loop
      vertex 7.03253 27.1581 0
      vertex 11.2 28 0
      vertex 10.8966 26.0841 0
    endloop
  endfacet
  facet normal 0 0 -1
    outer loop
      vertex 7.03253 27.1581 0
      vertex 10.8966 26.0841 0
      vertex 10.0159 24.3557 0
    endloop
  endfacet
  facet normal 0 0 -1
    outer loop
      vertex 7.03253 28.8419 0
      vertex 11.2 28 0
      vertex 7.03253 27.1581 0
    endloop
  endfacet
  facet normal 0 0 -1
    outer loop
      vertex 7.03253 27.1581 0
      vertex 10.0159 24.3557 0
      vertex 8.64427 22.9841 0
    endloop
  endfacet
  facet normal 0 0 -1
    outer loop
      vertex 11.2 28 0
      vertex 7.03253 28.8419 0
      vertex 10.8966 29.9159 0
    endloop
  endfacet
  facet normal -0 0 -1
    outer loop
      vertex 10.8966 29.9159 0
      vertex 7.03253 28.8419 0
      vertex 10.0159 31.6443 0
    endloop
  endfacet
  facet normal 0 0 -1
    outer loop
      vertex 5.8419 25.9675 0
      vertex 8.64427 22.9841 0
      vertex 6.9159 22.1035 0
    endloop
  endfacet
  facet normal 0 0 -1
    outer loop
      vertex 8.64427 22.9841 0
      vertex 5.8419 25.9675 0
      vertex 7.03253 27.1581 0
    endloop
  endfacet
  facet normal 0 0 -1
    outer loop
      vertex 5 21.8 0
      vertex 5.8419 25.9675 0
      vertex 6.9159 22.1035 0
    endloop
  endfacet
  facet normal -0 0 -1
    outer loop
      vertex 5.8419 25.9675 0
      vertex 5 21.8 0
      vertex 4.1581 25.9675 0
    endloop
  endfacet
  facet normal -0 0 -1
    outer loop
      vertex 10.0159 31.6443 0
      vertex 7.03253 28.8419 0
      vertex 8.64427 33.0159 0
    endloop
  endfacet
  facet normal 0 0 -1
    outer loop
      vertex 5.8419 30.0325 0
      vertex 8.64427 33.0159 0
      vertex 7.03253 28.8419 0
    endloop
  endfacet
  facet normal -0 0 -1
    outer loop
      vertex 8.64427 33.0159 0
      vertex 5.8419 30.0325 0
      vertex 6.9159 33.8965 0
    endloop
  endfacet
  facet normal 0 0 -1
    outer loop
      vertex 5.8419 30.0325 0
      vertex 5 34.2 0
      vertex 6.9159 33.8965 0
    endloop
  endfacet
  facet normal 0 0 -1
    outer loop
      vertex 4.1581 30.0325 0
      vertex 5 34.2 0
      vertex 5.8419 30.0325 0
    endloop
  endfacet
  facet normal 0 0 -1
    outer loop
      vertex 2.96746 28.8419 0
      vertex 5 34.2 0
      vertex 4.1581 30.0325 0
    endloop
  endfacet
  facet normal 0 0 -1
    outer loop
      vertex -2.96746 28.8419 0
      vertex 2.96746 28.8419 0
      vertex -2.96746 27.1581 0
    endloop
  endfacet
  facet normal 0 0 -1
    outer loop
      vertex 2.96746 28.8419 0
      vertex -2.96746 28.8419 0
      vertex 5 34.2 0
    endloop
  endfacet
  facet normal 0 0 -1
    outer loop
      vertex -4.1581 30.0325 0
      vertex 5 34.2 0
      vertex -2.96746 28.8419 0
    endloop
  endfacet
  facet normal 0 0 -1
    outer loop
      vertex -4.1581 30.0325 0
      vertex -5 34.2 0
      vertex 5 34.2 0
    endloop
  endfacet
  facet normal 0 0 -1
    outer loop
      vertex -5.8419 30.0325 0
      vertex -5 34.2 0
      vertex -4.1581 30.0325 0
    endloop
  endfacet
  facet normal 0 0 -1
    outer loop
      vertex -5.8419 30.0325 0
      vertex -6.9159 33.8965 0
      vertex -5 34.2 0
    endloop
  endfacet
  facet normal 0 0 -1
    outer loop
      vertex -8.64427 33.0159 0
      vertex -5.8419 30.0325 0
      vertex -7.03253 28.8419 0
    endloop
  endfacet
  facet normal 0 0 -1
    outer loop
      vertex -10.8966 26.0841 0
      vertex -7.03253 27.1581 0
      vertex -10.0159 24.3557 0
    endloop
  endfacet
  facet normal 0 0 -1
    outer loop
      vertex -5.8419 30.0325 0
      vertex -8.64427 33.0159 0
      vertex -6.9159 33.8965 0
    endloop
  endfacet
  facet normal 0 0 -1
    outer loop
      vertex -11.2 28 0
      vertex -7.03253 27.1581 0
      vertex -10.8966 26.0841 0
    endloop
  endfacet
  facet normal 0 0 -1
    outer loop
      vertex -7.03253 28.8419 0
      vertex -10.0159 31.6443 0
      vertex -8.64427 33.0159 0
    endloop
  endfacet
  facet normal 0 0 -1
    outer loop
      vertex -7.03253 27.1581 0
      vertex -11.2 28 0
      vertex -7.03253 28.8419 0
    endloop
  endfacet
  facet normal 0 0 -1
    outer loop
      vertex -7.03253 28.8419 0
      vertex -10.8966 29.9159 0
      vertex -10.0159 31.6443 0
    endloop
  endfacet
  facet normal -0 0 -1
    outer loop
      vertex -7.03253 28.8419 0
      vertex -11.2 28 0
      vertex -10.8966 29.9159 0
    endloop
  endfacet
  facet normal -0.707107 0.707107 0
    outer loop
      vertex -8.64427 33.0159 0
      vertex -10.0159 31.6443 5.5
      vertex -8.64427 33.0159 5.5
    endloop
  endfacet
  facet normal -0.707107 0.707107 0
    outer loop
      vertex -10.0159 31.6443 5.5
      vertex -8.64427 33.0159 0
      vertex -10.0159 31.6443 0
    endloop
  endfacet
  facet normal -0.891006 0.453991 0
    outer loop
      vertex -10.8966 29.9159 0
      vertex -10.0159 31.6443 5.5
      vertex -10.0159 31.6443 0
    endloop
  endfacet
  facet normal -0.891006 0.453991 0
    outer loop
      vertex -10.0159 31.6443 5.5
      vertex -10.8966 29.9159 0
      vertex -10.8966 29.9159 5.5
    endloop
  endfacet
  facet normal -0.891006 -0.453991 0
    outer loop
      vertex -10.0159 24.3557 0
      vertex -10.8966 26.0841 5.5
      vertex -10.8966 26.0841 0
    endloop
  endfacet
  facet normal -0.891006 -0.453991 0
    outer loop
      vertex -10.8966 26.0841 5.5
      vertex -10.0159 24.3557 0
      vertex -10.0159 24.3557 5.5
    endloop
  endfacet
  facet normal -0.987688 -0.156435 0
    outer loop
      vertex -10.8966 26.0841 0
      vertex -11.2 28 5.5
      vertex -11.2 28 0
    endloop
  endfacet
  facet normal -0.987688 -0.156435 0
    outer loop
      vertex -11.2 28 5.5
      vertex -10.8966 26.0841 0
      vertex -10.8966 26.0841 5.5
    endloop
  endfacet
  facet normal -0.156435 -0.987688 0
    outer loop
      vertex -6.9159 22.1035 0
      vertex -5 21.8 5.5
      vertex -6.9159 22.1035 5.5
    endloop
  endfacet
  facet normal -0.156435 -0.987688 -0
    outer loop
      vertex -5 21.8 5.5
      vertex -6.9159 22.1035 0
      vertex -5 21.8 0
    endloop
  endfacet
  facet normal -0.707107 -0.707107 0
    outer loop
      vertex -10.0159 24.3557 0
      vertex -8.64427 22.9841 5.5
      vertex -10.0159 24.3557 5.5
    endloop
  endfacet
  facet normal -0.707107 -0.707107 -0
    outer loop
      vertex -8.64427 22.9841 5.5
      vertex -10.0159 24.3557 0
      vertex -8.64427 22.9841 0
    endloop
  endfacet
  facet normal -0.453991 -0.891006 0
    outer loop
      vertex -8.64427 22.9841 0
      vertex -6.9159 22.1035 5.5
      vertex -8.64427 22.9841 5.5
    endloop
  endfacet
  facet normal -0.453991 -0.891006 -0
    outer loop
      vertex -6.9159 22.1035 5.5
      vertex -8.64427 22.9841 0
      vertex -6.9159 22.1035 0
    endloop
  endfacet
  facet normal 0.987688 0.156435 0
    outer loop
      vertex 11.2 28 5.5
      vertex 10.8966 29.9159 0
      vertex 10.8966 29.9159 5.5
    endloop
  endfacet
  facet normal 0.987688 0.156435 0
    outer loop
      vertex 10.8966 29.9159 0
      vertex 11.2 28 5.5
      vertex 11.2 28 0
    endloop
  endfacet
  facet normal 0.156435 -0.987688 0
    outer loop
      vertex 5 21.8 0
      vertex 6.9159 22.1035 5.5
      vertex 5 21.8 5.5
    endloop
  endfacet
  facet normal 0.156435 -0.987688 0
    outer loop
      vertex 6.9159 22.1035 5.5
      vertex 5 21.8 0
      vertex 6.9159 22.1035 0
    endloop
  endfacet
  facet normal 0.891006 -0.453991 0
    outer loop
      vertex 10.0159 24.3557 5.5
      vertex 10.8966 26.0841 0
      vertex 10.8966 26.0841 5.5
    endloop
  endfacet
  facet normal 0.891006 -0.453991 0
    outer loop
      vertex 10.8966 26.0841 0
      vertex 10.0159 24.3557 5.5
      vertex 10.0159 24.3557 0
    endloop
  endfacet
  facet normal 0.453991 0.891006 -0
    outer loop
      vertex 8.64427 33.0159 0
      vertex 6.9159 33.8965 5.5
      vertex 8.64427 33.0159 5.5
    endloop
  endfacet
  facet normal 0.453991 0.891006 0
    outer loop
      vertex 6.9159 33.8965 5.5
      vertex 8.64427 33.0159 0
      vertex 6.9159 33.8965 0
    endloop
  endfacet
  facet normal 0.891006 0.453991 0
    outer loop
      vertex 10.8966 29.9159 5.5
      vertex 10.0159 31.6443 0
      vertex 10.0159 31.6443 5.5
    endloop
  endfacet
  facet normal 0.891006 0.453991 0
    outer loop
      vertex 10.0159 31.6443 0
      vertex 10.8966 29.9159 5.5
      vertex 10.8966 29.9159 0
    endloop
  endfacet
  facet normal 0.156435 0.987688 -0
    outer loop
      vertex 6.9159 33.8965 0
      vertex 5 34.2 5.5
      vertex 6.9159 33.8965 5.5
    endloop
  endfacet
  facet normal 0.156435 0.987688 0
    outer loop
      vertex 5 34.2 5.5
      vertex 6.9159 33.8965 0
      vertex 5 34.2 0
    endloop
  endfacet
  facet normal 0.987688 -0.156435 0
    outer loop
      vertex 10.8966 26.0841 5.5
      vertex 11.2 28 0
      vertex 11.2 28 5.5
    endloop
  endfacet
  facet normal 0.987688 -0.156435 0
    outer loop
      vertex 11.2 28 0
      vertex 10.8966 26.0841 5.5
      vertex 10.8966 26.0841 0
    endloop
  endfacet
  facet normal 0.707107 0.707107 -0
    outer loop
      vertex 10.0159 31.6443 0
      vertex 8.64427 33.0159 5.5
      vertex 10.0159 31.6443 5.5
    endloop
  endfacet
  facet normal 0.707107 0.707107 0
    outer loop
      vertex 8.64427 33.0159 5.5
      vertex 10.0159 31.6443 0
      vertex 8.64427 33.0159 0
    endloop
  endfacet
  facet normal 0.453991 -0.891006 0
    outer loop
      vertex 6.9159 22.1035 0
      vertex 8.64427 22.9841 5.5
      vertex 6.9159 22.1035 5.5
    endloop
  endfacet
  facet normal 0.453991 -0.891006 0
    outer loop
      vertex 8.64427 22.9841 5.5
      vertex 6.9159 22.1035 0
      vertex 8.64427 22.9841 0
    endloop
  endfacet
  facet normal 0.707107 -0.707107 0
    outer loop
      vertex 8.64427 22.9841 0
      vertex 10.0159 24.3557 5.5
      vertex 8.64427 22.9841 5.5
    endloop
  endfacet
  facet normal 0.707107 -0.707107 0
    outer loop
      vertex 10.0159 24.3557 5.5
      vertex 8.64427 22.9841 0
      vertex 10.0159 24.3557 0
    endloop
  endfacet
  facet normal 0 -1 0
    outer loop
      vertex -5 21.8 5.5
      vertex -3 21.8 4
      vertex -3 21.8 5.5
    endloop
  endfacet
  facet normal 0 -1 -0
    outer loop
      vertex -3 21.8 4
      vertex -5 21.8 0
      vertex 3 21.8 4
    endloop
  endfacet
  facet normal 0 -1 0
    outer loop
      vertex -5 21.8 0
      vertex -3 21.8 4
      vertex -5 21.8 5.5
    endloop
  endfacet
  facet normal 0 -1 0
    outer loop
      vertex 3 21.8 4
      vertex 5 21.8 5.5
      vertex 3 21.8 5.5
    endloop
  endfacet
  facet normal 0 -1 0
    outer loop
      vertex 3 21.8 4
      vertex 5 21.8 0
      vertex 5 21.8 5.5
    endloop
  endfacet
  facet normal 0 -1 0
    outer loop
      vertex 5 21.8 0
      vertex 3 21.8 4
      vertex -5 21.8 0
    endloop
  endfacet
  facet normal 0 1 0
    outer loop
      vertex 5 34.2 5.5
      vertex 3 34.2 4
      vertex 3 34.2 5.5
    endloop
  endfacet
  facet normal 0 1 0
    outer loop
      vertex 3 34.2 4
      vertex 5 34.2 0
      vertex -3 34.2 4
    endloop
  endfacet
  facet normal 0 1 -0
    outer loop
      vertex 5 34.2 0
      vertex 3 34.2 4
      vertex 5 34.2 5.5
    endloop
  endfacet
  facet normal 0 1 -0
    outer loop
      vertex -3 34.2 4
      vertex -5 34.2 5.5
      vertex -3 34.2 5.5
    endloop
  endfacet
  facet normal 0 1 0
    outer loop
      vertex -3 34.2 4
      vertex -5 34.2 0
      vertex -5 34.2 5.5
    endloop
  endfacet
  facet normal 0 1 0
    outer loop
      vertex -5 34.2 0
      vertex -3 34.2 4
      vertex 5 34.2 0
    endloop
  endfacet
  facet normal -0.707107 -0.707107 0
    outer loop
      vertex -2.96746 28.8419 0
      vertex -4.1581 30.0325 5.5
      vertex -4.1581 30.0325 0
    endloop
  endfacet
  facet normal -0.707107 -0.707107 0
    outer loop
      vertex -4.1581 30.0325 5.5
      vertex -2.96746 28.8419 0
      vertex -2.96746 28.8419 5.5
    endloop
  endfacet
  facet normal 1 -0 0
    outer loop
      vertex -7.03253 27.1581 5.5
      vertex -7.03253 28.8419 0
      vertex -7.03253 28.8419 5.5
    endloop
  endfacet
  facet normal 1 0 0
    outer loop
      vertex -7.03253 28.8419 0
      vertex -7.03253 27.1581 5.5
      vertex -7.03253 27.1581 0
    endloop
  endfacet
  facet normal 0 -1 0
    outer loop
      vertex -5.8419 30.0325 0
      vertex -4.1581 30.0325 5.5
      vertex -5.8419 30.0325 5.5
    endloop
  endfacet
  facet normal 0 -1 -0
    outer loop
      vertex -4.1581 30.0325 5.5
      vertex -5.8419 30.0325 0
      vertex -4.1581 30.0325 0
    endloop
  endfacet
  facet normal 0.707107 -0.707107 0
    outer loop
      vertex -7.03253 28.8419 5.5
      vertex -5.8419 30.0325 0
      vertex -5.8419 30.0325 5.5
    endloop
  endfacet
  facet normal 0.707107 -0.707107 0
    outer loop
      vertex -5.8419 30.0325 0
      vertex -7.03253 28.8419 5.5
      vertex -7.03253 28.8419 0
    endloop
  endfacet
  facet normal -0.707107 0.707107 0
    outer loop
      vertex -4.1581 25.9675 0
      vertex -2.96746 27.1581 5.5
      vertex -2.96746 27.1581 0
    endloop
  endfacet
  facet normal -0.707107 0.707107 0
    outer loop
      vertex -2.96746 27.1581 5.5
      vertex -4.1581 25.9675 0
      vertex -4.1581 25.9675 5.5
    endloop
  endfacet
  facet normal 0.707107 0.707107 0
    outer loop
      vertex -5.8419 25.9675 5.5
      vertex -7.03253 27.1581 0
      vertex -7.03253 27.1581 5.5
    endloop
  endfacet
  facet normal 0.707107 0.707107 0
    outer loop
      vertex -7.03253 27.1581 0
      vertex -5.8419 25.9675 5.5
      vertex -5.8419 25.9675 0
    endloop
  endfacet
  facet normal -1 0 0
    outer loop
      vertex -2.96746 28.8419 0
      vertex -2.96746 28.5 4
      vertex -2.96746 28.8419 5.5
    endloop
  endfacet
  facet normal -1 0 0
    outer loop
      vertex -2.96746 28.8419 0
      vertex -2.96746 27.5 4
      vertex -2.96746 28.5 4
    endloop
  endfacet
  facet normal -1 0 0
    outer loop
      vertex -2.96746 27.1581 0
      vertex -2.96746 27.5 4
      vertex -2.96746 28.8419 0
    endloop
  endfacet
  facet normal -1 0 0
    outer loop
      vertex -2.96746 27.1581 5.5
      vertex -2.96746 27.5 4
      vertex -2.96746 27.1581 0
    endloop
  endfacet
  facet normal -1 0 0
    outer loop
      vertex -2.96746 27.5 4
      vertex -2.96746 27.1581 5.5
      vertex -2.96746 27.5 5.5
    endloop
  endfacet
  facet normal -1 -0 0
    outer loop
      vertex -2.96746 28.8419 5.5
      vertex -2.96746 28.5 4
      vertex -2.96746 28.5 5.5
    endloop
  endfacet
  facet normal 0 1 -0
    outer loop
      vertex -4.1581 25.9675 0
      vertex -5.8419 25.9675 5.5
      vertex -4.1581 25.9675 5.5
    endloop
  endfacet
  facet normal 0 1 0
    outer loop
      vertex -5.8419 25.9675 5.5
      vertex -4.1581 25.9675 0
      vertex -5.8419 25.9675 0
    endloop
  endfacet
  facet normal -0.707107 -0.707107 0
    outer loop
      vertex 7.03253 28.8419 0
      vertex 5.8419 30.0325 5.5
      vertex 5.8419 30.0325 0
    endloop
  endfacet
  facet normal -0.707107 -0.707107 0
    outer loop
      vertex 5.8419 30.0325 5.5
      vertex 7.03253 28.8419 0
      vertex 7.03253 28.8419 5.5
    endloop
  endfacet
  facet normal 1 0 0
    outer loop
      vertex 2.96746 27.5 5.5
      vertex 2.96746 27.1581 5.5
      vertex 2.96746 27.5 4
    endloop
  endfacet
  facet normal 1 0 0
    outer loop
      vertex 2.96746 28.5 4
      vertex 2.96746 28.8419 5.5
      vertex 2.96746 28.5 5.5
    endloop
  endfacet
  facet normal 1 0 0
    outer loop
      vertex 2.96746 28.8419 5.5
      vertex 2.96746 28.5 4
      vertex 2.96746 28.8419 0
    endloop
  endfacet
  facet normal 1 -0 0
    outer loop
      vertex 2.96746 27.5 4
      vertex 2.96746 28.8419 0
      vertex 2.96746 28.5 4
    endloop
  endfacet
  facet normal 1 0 0
    outer loop
      vertex 2.96746 27.5 4
      vertex 2.96746 27.1581 0
      vertex 2.96746 28.8419 0
    endloop
  endfacet
  facet normal 1 0 0
    outer loop
      vertex 2.96746 27.1581 0
      vertex 2.96746 27.5 4
      vertex 2.96746 27.1581 5.5
    endloop
  endfacet
  facet normal 0 -1 0
    outer loop
      vertex 4.1581 30.0325 0
      vertex 5.8419 30.0325 5.5
      vertex 4.1581 30.0325 5.5
    endloop
  endfacet
  facet normal 0 -1 -0
    outer loop
      vertex 5.8419 30.0325 5.5
      vertex 4.1581 30.0325 0
      vertex 5.8419 30.0325 0
    endloop
  endfacet
  facet normal 0.707107 -0.707107 0
    outer loop
      vertex 2.96746 28.8419 5.5
      vertex 4.1581 30.0325 0
      vertex 4.1581 30.0325 5.5
    endloop
  endfacet
  facet normal 0.707107 -0.707107 0
    outer loop
      vertex 4.1581 30.0325 0
      vertex 2.96746 28.8419 5.5
      vertex 2.96746 28.8419 0
    endloop
  endfacet
  facet normal -0.707107 0.707107 0
    outer loop
      vertex 5.8419 25.9675 0
      vertex 7.03253 27.1581 5.5
      vertex 7.03253 27.1581 0
    endloop
  endfacet
  facet normal -0.707107 0.707107 0
    outer loop
      vertex 7.03253 27.1581 5.5
      vertex 5.8419 25.9675 0
      vertex 5.8419 25.9675 5.5
    endloop
  endfacet
  facet normal 0.707107 0.707107 0
    outer loop
      vertex 4.1581 25.9675 5.5
      vertex 2.96746 27.1581 0
      vertex 2.96746 27.1581 5.5
    endloop
  endfacet
  facet normal 0.707107 0.707107 0
    outer loop
      vertex 2.96746 27.1581 0
      vertex 4.1581 25.9675 5.5
      vertex 4.1581 25.9675 0
    endloop
  endfacet
  facet normal -1 0 0
    outer loop
      vertex 7.03253 27.1581 0
      vertex 7.03253 28.8419 5.5
      vertex 7.03253 28.8419 0
    endloop
  endfacet
  facet normal -1 -0 0
    outer loop
      vertex 7.03253 28.8419 5.5
      vertex 7.03253 27.1581 0
      vertex 7.03253 27.1581 5.5
    endloop
  endfacet
  facet normal 0 1 -0
    outer loop
      vertex 5.8419 25.9675 0
      vertex 4.1581 25.9675 5.5
      vertex 5.8419 25.9675 5.5
    endloop
  endfacet
  facet normal 0 1 0
    outer loop
      vertex 4.1581 25.9675 5.5
      vertex 5.8419 25.9675 0
      vertex 4.1581 25.9675 0
    endloop
  endfacet
  facet normal 1 -0 0
    outer loop
      vertex -3 21.8 5.5
      vertex -3 22.5 4
      vertex -3 22.5 5.5
    endloop
  endfacet
  facet normal 1 0 0
    outer loop
      vertex -3 22.5 4
      vertex -3 21.8 5.5
      vertex -3 21.8 4
    endloop
  endfacet
  facet normal -1 0 0
    outer loop
      vertex 3 21.8 4
      vertex 3 22.5 5.5
      vertex 3 22.5 4
    endloop
  endfacet
  facet normal -1 -0 0
    outer loop
      vertex 3 22.5 5.5
      vertex 3 21.8 4
      vertex 3 21.8 5.5
    endloop
  endfacet
  facet normal 0 -1 0
    outer loop
      vertex -3 22.5 4
      vertex 3 22.5 5.5
      vertex -3 22.5 5.5
    endloop
  endfacet
  facet normal 0 -1 -0
    outer loop
      vertex 3 22.5 5.5
      vertex -3 22.5 4
      vertex 3 22.5 4
    endloop
  endfacet
  facet normal -0 0 1
    outer loop
      vertex -3 22.5 4
      vertex 3 21.8 4
      vertex 3 22.5 4
    endloop
  endfacet
  facet normal 0 0 1
    outer loop
      vertex 3 21.8 4
      vertex -3 22.5 4
      vertex -3 21.8 4
    endloop
  endfacet
  facet normal 1 -0 0
    outer loop
      vertex -3 23.5 5.5
      vertex -3 24.5 4
      vertex -3 24.5 5.5
    endloop
  endfacet
  facet normal 1 0 0
    outer loop
      vertex -3 24.5 4
      vertex -3 23.5 5.5
      vertex -3 23.5 4
    endloop
  endfacet
  facet normal -1 0 0
    outer loop
      vertex 3 23.5 4
      vertex 3 24.5 5.5
      vertex 3 24.5 4
    endloop
  endfacet
  facet normal -1 -0 0
    outer loop
      vertex 3 24.5 5.5
      vertex 3 23.5 4
      vertex 3 23.5 5.5
    endloop
  endfacet
  facet normal 0 -1 0
    outer loop
      vertex -3 24.5 4
      vertex 3 24.5 5.5
      vertex -3 24.5 5.5
    endloop
  endfacet
  facet normal 0 -1 -0
    outer loop
      vertex 3 24.5 5.5
      vertex -3 24.5 4
      vertex 3 24.5 4
    endloop
  endfacet
  facet normal -0 0 1
    outer loop
      vertex -3 24.5 4
      vertex 3 23.5 4
      vertex 3 24.5 4
    endloop
  endfacet
  facet normal 0 0 1
    outer loop
      vertex 3 23.5 4
      vertex -3 24.5 4
      vertex -3 23.5 4
    endloop
  endfacet
  facet normal 0 1 -0
    outer loop
      vertex 3 23.5 4
      vertex -3 23.5 5.5
      vertex 3 23.5 5.5
    endloop
  endfacet
  facet normal 0 1 0
    outer loop
      vertex -3 23.5 5.5
      vertex 3 23.5 4
      vertex -3 23.5 4
    endloop
  endfacet
  facet normal 1 -0 0
    outer loop
      vertex -3 25.5 5.5
      vertex -3 26.5 4
      vertex -3 26.5 5.5
    endloop
  endfacet
  facet normal 1 0 0
    outer loop
      vertex -3 26.5 4
      vertex -3 25.5 5.5
      vertex -3 25.5 4
    endloop
  endfacet
  facet normal -1 0 0
    outer loop
      vertex 3 25.5 4
      vertex 3 26.5 5.5
      vertex 3 26.5 4
    endloop
  endfacet
  facet normal -1 -0 0
    outer loop
      vertex 3 26.5 5.5
      vertex 3 25.5 4
      vertex 3 25.5 5.5
    endloop
  endfacet
  facet normal 0 -1 0
    outer loop
      vertex -3 26.5 4
      vertex 3 26.5 5.5
      vertex -3 26.5 5.5
    endloop
  endfacet
  facet normal 0 -1 -0
    outer loop
      vertex 3 26.5 5.5
      vertex -3 26.5 4
      vertex 3 26.5 4
    endloop
  endfacet
  facet normal -0 0 1
    outer loop
      vertex -3 26.5 4
      vertex 3 25.5 4
      vertex 3 26.5 4
    endloop
  endfacet
  facet normal 0 0 1
    outer loop
      vertex 3 25.5 4
      vertex -3 26.5 4
      vertex -3 25.5 4
    endloop
  endfacet
  facet normal 0 1 -0
    outer loop
      vertex 3 25.5 4
      vertex -3 25.5 5.5
      vertex 3 25.5 5.5
    endloop
  endfacet
  facet normal 0 1 0
    outer loop
      vertex -3 25.5 5.5
      vertex 3 25.5 4
      vertex -3 25.5 4
    endloop
  endfacet
  facet normal 0 -1 0
    outer loop
      vertex -2.96746 28.5 4
      vertex 2.96746 28.5 5.5
      vertex -2.96746 28.5 5.5
    endloop
  endfacet
  facet normal 0 -1 -0
    outer loop
      vertex 2.96746 28.5 5.5
      vertex -2.96746 28.5 4
      vertex 2.96746 28.5 4
    endloop
  endfacet
  facet normal -0 0 1
    outer loop
      vertex -2.96746 28.5 4
      vertex 2.96746 27.5 4
      vertex 2.96746 28.5 4
    endloop
  endfacet
  facet normal 0 0 1
    outer loop
      vertex 2.96746 27.5 4
      vertex -2.96746 28.5 4
      vertex -2.96746 27.5 4
    endloop
  endfacet
  facet normal 0 1 -0
    outer loop
      vertex 2.96746 27.5 4
      vertex -2.96746 27.5 5.5
      vertex 2.96746 27.5 5.5
    endloop
  endfacet
  facet normal 0 1 0
    outer loop
      vertex -2.96746 27.5 5.5
      vertex 2.96746 27.5 4
      vertex -2.96746 27.5 4
    endloop
  endfacet
  facet normal 1 -0 0
    outer loop
      vertex -3 29.5 5.5
      vertex -3 30.5 4
      vertex -3 30.5 5.5
    endloop
  endfacet
  facet normal 1 0 0
    outer loop
      vertex -3 30.5 4
      vertex -3 29.5 5.5
      vertex -3 29.5 4
    endloop
  endfacet
  facet normal -1 0 0
    outer loop
      vertex 3 29.5 4
      vertex 3 30.5 5.5
      vertex 3 30.5 4
    endloop
  endfacet
  facet normal -1 -0 0
    outer loop
      vertex 3 30.5 5.5
      vertex 3 29.5 4
      vertex 3 29.5 5.5
    endloop
  endfacet
  facet normal 0 -1 0
    outer loop
      vertex -3 30.5 4
      vertex 3 30.5 5.5
      vertex -3 30.5 5.5
    endloop
  endfacet
  facet normal 0 -1 -0
    outer loop
      vertex 3 30.5 5.5
      vertex -3 30.5 4
      vertex 3 30.5 4
    endloop
  endfacet
  facet normal -0 0 1
    outer loop
      vertex -3 30.5 4
      vertex 3 29.5 4
      vertex 3 30.5 4
    endloop
  endfacet
  facet normal 0 0 1
    outer loop
      vertex 3 29.5 4
      vertex -3 30.5 4
      vertex -3 29.5 4
    endloop
  endfacet
  facet normal 0 1 -0
    outer loop
      vertex 3 29.5 4
      vertex -3 29.5 5.5
      vertex 3 29.5 5.5
    endloop
  endfacet
  facet normal 0 1 0
    outer loop
      vertex -3 29.5 5.5
      vertex 3 29.5 4
      vertex -3 29.5 4
    endloop
  endfacet
  facet normal 1 -0 0
    outer loop
      vertex -3 31.5 5.5
      vertex -3 32.5 4
      vertex -3 32.5 5.5
    endloop
  endfacet
  facet normal 1 0 0
    outer loop
      vertex -3 32.5 4
      vertex -3 31.5 5.5
      vertex -3 31.5 4
    endloop
  endfacet
  facet normal -1 0 0
    outer loop
      vertex 3 31.5 4
      vertex 3 32.5 5.5
      vertex 3 32.5 4
    endloop
  endfacet
  facet normal -1 -0 0
    outer loop
      vertex 3 32.5 5.5
      vertex 3 31.5 4
      vertex 3 31.5 5.5
    endloop
  endfacet
  facet normal 0 -1 0
    outer loop
      vertex -3 32.5 4
      vertex 3 32.5 5.5
      vertex -3 32.5 5.5
    endloop
  endfacet
  facet normal 0 -1 -0
    outer loop
      vertex 3 32.5 5.5
      vertex -3 32.5 4
      vertex 3 32.5 4
    endloop
  endfacet
  facet normal -0 0 1
    outer loop
      vertex -3 32.5 4
      vertex 3 31.5 4
      vertex 3 32.5 4
    endloop
  endfacet
  facet normal 0 0 1
    outer loop
      vertex 3 31.5 4
      vertex -3 32.5 4
      vertex -3 31.5 4
    endloop
  endfacet
  facet normal 0 1 -0
    outer loop
      vertex 3 31.5 4
      vertex -3 31.5 5.5
      vertex 3 31.5 5.5
    endloop
  endfacet
  facet normal 0 1 0
    outer loop
      vertex -3 31.5 5.5
      vertex 3 31.5 4
      vertex -3 31.5 4
    endloop
  endfacet
  facet normal 1 -0 0
    outer loop
      vertex -3 33.5 5.5
      vertex -3 34.2 4
      vertex -3 34.2 5.5
    endloop
  endfacet
  facet normal 1 0 0
    outer loop
      vertex -3 34.2 4
      vertex -3 33.5 5.5
      vertex -3 33.5 4
    endloop
  endfacet
  facet normal -1 0 0
    outer loop
      vertex 3 33.5 4
      vertex 3 34.2 5.5
      vertex 3 34.2 4
    endloop
  endfacet
  facet normal -1 -0 0
    outer loop
      vertex 3 34.2 5.5
      vertex 3 33.5 4
      vertex 3 33.5 5.5
    endloop
  endfacet
  facet normal -0 0 1
    outer loop
      vertex -3 34.2 4
      vertex 3 33.5 4
      vertex 3 34.2 4
    endloop
  endfacet
  facet normal 0 0 1
    outer loop
      vertex 3 33.5 4
      vertex -3 34.2 4
      vertex -3 33.5 4
    endloop
  endfacet
  facet normal 0 1 -0
    outer loop
      vertex 3 33.5 4
      vertex -3 33.5 5.5
      vertex 3 33.5 5.5
    endloop
  endfacet
  facet normal 0 1 0
    outer loop
      vertex -3 33.5 5.5
      vertex 3 33.5 4
      vertex -3 33.5 4
    endloop
  endfacet
endsolid OpenSCAD_Model
